<svg width="25" height="24" viewBox="0 0 25 24" fill="none" xmlns="http://www.w3.org/2000/svg">
<path d="M10.8408 4.6401L6.41079 2.4501C4.02079 1.2801 2.06079 2.47011 2.06079 5.09011V19.9301C2.06079 21.0701 3.01079 22.0001 4.17079 22.0001H11.5908C12.1408 22.0001 12.5908 21.5501 12.5908 21.0001V7.4101C12.5908 6.3601 11.8008 5.1101 10.8408 4.6401ZM9.06079 13.7501H5.59079C5.18079 13.7501 4.84079 13.4101 4.84079 13.0001C4.84079 12.5901 5.18079 12.2501 5.59079 12.2501H9.06079C9.47079 12.2501 9.81079 12.5901 9.81079 13.0001C9.81079 13.4101 9.48079 13.7501 9.06079 13.7501ZM9.06079 9.7501H5.59079C5.18079 9.7501 4.84079 9.4101 4.84079 9.0001C4.84079 8.59011 5.18079 8.2501 5.59079 8.2501H9.06079C9.47079 8.2501 9.81079 8.59011 9.81079 9.0001C9.81079 9.4101 9.48079 9.7501 9.06079 9.7501Z" fill="#2271B6"/>
<path d="M22.0908 18.04V19.5C22.0908 20.88 20.9708 22 19.5908 22H15.0608C14.5208 22 14.0908 21.57 14.0908 21.03V18.87C15.1608 19 16.2908 18.69 17.1008 18.04C17.7808 18.59 18.6508 18.92 19.6008 18.92C20.5308 18.92 21.4008 18.59 22.0908 18.04Z" fill="#2271B6"/>
<path d="M22.0908 15.05V15.06C22.0108 16.37 20.9408 17.42 19.6008 17.42C18.2108 17.42 17.1008 16.29 17.1008 14.92C17.1008 16.45 15.6908 17.68 14.0908 17.37V12C14.0908 11.36 14.6808 10.88 15.3108 11.02L17.1008 11.42L17.5808 11.53L19.6208 11.99C20.1108 12.09 20.5608 12.26 20.9508 12.51C20.9508 12.52 20.9608 12.52 20.9608 12.52C21.0608 12.59 21.1608 12.67 21.2508 12.76C21.7108 13.22 22.0108 13.89 22.0808 14.87C22.0808 14.93 22.0908 14.99 22.0908 15.05Z" fill="#2271B6"/>
</svg>
