<svg width="30" height="30" viewBox="0 0 30 30" fill="none" xmlns="http://www.w3.org/2000/svg">
<path d="M14.925 2.76278L11.9125 9.77528H8.9C8.4 9.77528 7.9125 9.81278 7.4375 9.91278L8.6875 6.91278L8.7375 6.80028L8.8125 6.60028C8.85 6.51278 8.875 6.43778 8.9125 6.37528C10.3625 3.01278 11.9875 1.96278 14.925 2.76278Z" fill="#2271B6"/>
<path d="M23.4129 10.1109L23.3879 10.0984C22.6379 9.88594 21.8754 9.77344 21.1004 9.77344H13.2754L16.0879 3.23594L16.1254 3.14844C16.3004 3.21094 16.4879 3.29844 16.6754 3.36094L19.4379 4.52344C20.9754 5.16094 22.0504 5.82344 22.7129 6.62344C22.8254 6.77344 22.9254 6.91094 23.0254 7.07344C23.1379 7.24844 23.2254 7.42344 23.2754 7.61094C23.3254 7.72344 23.3629 7.82344 23.3879 7.93594C23.5754 8.57344 23.5879 9.29844 23.4129 10.1109Z" fill="#2271B6"/>
<path d="M15.6494 22.0766H15.9619C16.3369 22.0766 16.6494 21.7391 16.6494 21.3266C16.6494 20.8016 16.4994 20.7266 16.1744 20.6016L15.6494 20.4141V22.0766Z" fill="#2271B6"/>
<path d="M22.8623 11.8984C22.2998 11.7359 21.7123 11.6484 21.0998 11.6484H8.89981C8.0498 11.6484 7.2498 11.8109 6.4998 12.1359C4.3248 13.0734 2.7998 15.2359 2.7998 17.7484V20.1859C2.7998 20.4859 2.8248 20.7734 2.8623 21.0734C3.1373 25.0484 5.2623 27.1734 9.2373 27.4359C9.5248 27.4734 9.81231 27.4984 10.1248 27.4984H19.8748C24.4998 27.4984 26.9373 25.2984 27.1748 20.9234C27.1873 20.6859 27.1998 20.4359 27.1998 20.1859V17.7484C27.1998 14.9859 25.3623 12.6609 22.8623 11.8984ZM16.5998 19.3734C17.1748 19.5734 17.9498 19.9984 17.9498 21.3234C17.9498 22.4609 17.0623 23.3734 15.9623 23.3734H15.6498V23.6484C15.6498 24.0109 15.3623 24.2984 14.9998 24.2984C14.6373 24.2984 14.3498 24.0109 14.3498 23.6484V23.3734H14.2373C13.0373 23.3734 12.0498 22.3609 12.0498 21.1109C12.0498 20.7484 12.3373 20.4609 12.6998 20.4609C13.0623 20.4609 13.3498 20.7484 13.3498 21.1109C13.3498 21.6359 13.7498 22.0734 14.2373 22.0734H14.3498V19.9609L13.3998 19.6234C12.8248 19.4234 12.0498 18.9984 12.0498 17.6734C12.0498 16.5359 12.9373 15.6234 14.0373 15.6234H14.3498V15.3484C14.3498 14.9859 14.6373 14.6984 14.9998 14.6984C15.3623 14.6984 15.6498 14.9859 15.6498 15.3484V15.6234H15.7623C16.9623 15.6234 17.9498 16.6359 17.9498 17.8859C17.9498 18.2484 17.6623 18.5359 17.2998 18.5359C16.9373 18.5359 16.6498 18.2484 16.6498 17.8859C16.6498 17.3609 16.2498 16.9234 15.7623 16.9234H15.6498V19.0359L16.5998 19.3734Z" fill="#2271B6"/>
<path d="M13.3496 17.6758C13.3496 18.2008 13.4996 18.2758 13.8246 18.4008L14.3496 18.5883V16.9258H14.0371C13.6496 16.9258 13.3496 17.2633 13.3496 17.6758Z" fill="#2271B6"/>
<g clip-path="url(#clip0_1804_12422)">
<rect width="10" height="11" transform="translate(10.0908 14)" fill="#2271B6"/>
</g>
<defs>
<clipPath id="clip0_1804_12422">
<rect width="10" height="11" fill="white" transform="translate(10.0908 14)"/>
</clipPath>
</defs>
</svg>
