<svg width="24" height="24" viewBox="0 0 24 24" fill="none" xmlns="http://www.w3.org/2000/svg">
<path d="M22 21.25C22 21.66 21.66 22 21.25 22H2.75C2.34 22 2 21.66 2 21.25C2 20.84 2.34 20.5 2.75 20.5H21.25C21.66 20.5 22 20.84 22 21.25Z" fill="#292D32"/>
<path d="M15.3904 4.52001L4.65043 15.26C4.24043 15.67 3.58043 15.67 3.18043 15.26H3.17043C1.78043 13.86 1.78043 11.6 3.17043 10.21L10.3204 3.06001C11.7204 1.66001 13.9804 1.66001 15.3804 3.06001C15.7904 3.45001 15.7904 4.12001 15.3904 4.52001Z" fill="#292D32"/>
<path d="M20.8204 8.48995L17.7704 5.43995C17.3604 5.02995 16.7004 5.02995 16.3004 5.43995L5.56043 16.1799C5.15043 16.5799 5.15043 17.2399 5.56043 17.6499L8.61043 20.7099C10.0104 22.0999 12.2704 22.0999 13.6704 20.7099L20.8104 13.5599C22.2304 12.1599 22.2304 9.88995 20.8204 8.48995ZM12.7604 17.5199L11.5504 18.7399C11.3004 18.9899 10.8904 18.9899 10.6304 18.7399C10.3804 18.4899 10.3804 18.0799 10.6304 17.8199L11.8504 16.5999C12.0904 16.3599 12.5104 16.3599 12.7604 16.5999C13.0104 16.8499 13.0104 17.2799 12.7604 17.5199ZM16.7304 13.5499L14.2904 15.9999C14.0404 16.2399 13.6304 16.2399 13.3704 15.9999C13.1204 15.7499 13.1204 15.3399 13.3704 15.0799L15.8204 12.6299C16.0604 12.3899 16.4804 12.3899 16.7304 12.6299C16.9804 12.8899 16.9804 13.2999 16.7304 13.5499Z" fill="#292D32"/>
</svg>
