<svg width="16" height="16" viewBox="0 0 16 16" fill="none" xmlns="http://www.w3.org/2000/svg">
<path d="M14 14.6667H2C1.72667 14.6667 1.5 14.4401 1.5 14.1667C1.5 13.8934 1.72667 13.6667 2 13.6667H14C14.2733 13.6667 14.5 13.8934 14.5 14.1667C14.5 14.4401 14.2733 14.6667 14 14.6667Z" fill="#292D32"/>
<path d="M12.6804 2.31994C11.387 1.02661 10.1204 0.993275 8.79371 2.31994L7.98704 3.12661C7.92037 3.19328 7.89371 3.29994 7.92038 3.39328C8.42704 5.15994 9.84037 6.57328 11.607 7.07994C11.6337 7.08661 11.6604 7.09328 11.687 7.09328C11.7604 7.09328 11.827 7.06661 11.8804 7.01328L12.6804 6.20661C13.3404 5.55328 13.6604 4.91994 13.6604 4.27994C13.667 3.61994 13.347 2.97994 12.6804 2.31994Z" fill="#292D32"/>
<path d="M10.4075 7.68678C10.2142 7.59345 10.0275 7.50011 9.84753 7.39345C9.70086 7.30678 9.56086 7.21345 9.42086 7.11345C9.30753 7.04011 9.1742 6.93345 9.04753 6.82678C9.0342 6.82011 8.98753 6.78011 8.9342 6.72678C8.7142 6.54011 8.46753 6.30011 8.24753 6.03345C8.22753 6.02011 8.1942 5.97345 8.14753 5.91345C8.08086 5.83345 7.96753 5.70011 7.86753 5.54678C7.78753 5.44678 7.6942 5.30011 7.60753 5.15345C7.50086 4.97345 7.40753 4.79345 7.3142 4.60678C7.19182 4.34455 6.84766 4.26666 6.64304 4.47127L2.8942 8.22011C2.80753 8.30678 2.72753 8.47345 2.70753 8.58678L2.34753 11.1401C2.28086 11.5934 2.40753 12.0201 2.68753 12.3068C2.92753 12.5401 3.26086 12.6668 3.62086 12.6668C3.70086 12.6668 3.78086 12.6601 3.86086 12.6468L6.42086 12.2868C6.54086 12.2668 6.70753 12.1868 6.78753 12.1001L10.5426 8.34509C10.7431 8.14456 10.6677 7.79954 10.4075 7.68678Z" fill="#292D32"/>
</svg>
