<svg width="21" height="20" viewBox="0 0 21 20" fill="none" xmlns="http://www.w3.org/2000/svg">
<path d="M18.9508 6.37009L12.0208 0.830093C10.9508 -0.0299066 9.22084 -0.0299066 8.16084 0.820093L1.23084 6.37009C0.450841 6.99009 -0.0491588 8.30009 0.120841 9.28009L1.45084 17.2401C1.69084 18.6601 3.05084 19.8101 4.49084 19.8101H15.6908C17.1208 19.8101 18.4908 18.6501 18.7308 17.2401L20.0608 9.28009C20.2208 8.30009 19.7208 6.99009 18.9508 6.37009ZM10.0908 13.5001C8.71084 13.5001 7.59084 12.3801 7.59084 11.0001C7.59084 9.62009 8.71084 8.50009 10.0908 8.50009C11.4708 8.50009 12.5908 9.62009 12.5908 11.0001C12.5908 12.3801 11.4708 13.5001 10.0908 13.5001Z" fill="#2271B6"/>
</svg>
