<svg width="40" height="40" viewBox="0 0 40 40" fill="none" xmlns="http://www.w3.org/2000/svg">
<path d="M35.4171 30.7834L32.6671 31.4334C32.0504 31.5834 31.5671 32.05 31.4337 32.6667L30.8504 35.1167C30.5337 36.45 28.8337 36.8667 27.9504 35.8167L22.9671 30.0834C22.5671 29.6167 22.7837 28.8834 23.3837 28.7334C26.3337 28.0167 28.9837 26.3667 30.9337 24.0167C31.2504 23.6334 31.8171 23.5834 32.1671 23.9334L35.8671 27.6334C37.1337 28.9 36.6837 30.4834 35.4171 30.7834Z" fill="white"/>
<path d="M4.50027 30.7834L7.25027 31.4334C7.86694 31.5834 8.35027 32.05 8.4836 32.6667L9.06694 35.1167C9.3836 36.45 11.0836 36.8667 11.9669 35.8167L16.9503 30.0834C17.3503 29.6167 17.1336 28.8834 16.5336 28.7334C13.5836 28.0167 10.9336 26.3667 8.9836 24.0167C8.66694 23.6334 8.10027 23.5834 7.75027 23.9334L4.05027 27.6334C2.7836 28.9 3.2336 30.4834 4.50027 30.7834Z" fill="white"/>
<path d="M19.9997 3.33337C13.5497 3.33337 8.33301 8.55004 8.33301 15C8.33301 17.4167 9.04967 19.6334 10.283 21.4834C12.083 24.15 14.933 26.0334 18.2497 26.5167C18.8163 26.6167 19.3997 26.6667 19.9997 26.6667C20.5997 26.6667 21.183 26.6167 21.7497 26.5167C25.0663 26.0334 27.9163 24.15 29.7163 21.4834C30.9497 19.6334 31.6663 17.4167 31.6663 15C31.6663 8.55004 26.4497 3.33337 19.9997 3.33337ZM25.0997 14.6334L23.7163 16.0167C23.483 16.25 23.3497 16.7 23.433 17.0334L23.833 18.75C24.1497 20.1 23.433 20.6334 22.233 19.9167L20.5663 18.9334C20.2663 18.75 19.7663 18.75 19.4663 18.9334L17.7997 19.9167C16.5997 20.6167 15.883 20.1 16.1997 18.75L16.5997 17.0334C16.6663 16.7167 16.5497 16.25 16.3163 16.0167L14.8997 14.6334C14.083 13.8167 14.3497 13 15.483 12.8167L17.2663 12.5167C17.5663 12.4667 17.9163 12.2 18.0497 11.9334L19.033 9.96671C19.5663 8.90004 20.433 8.90004 20.9663 9.96671L21.9497 11.9334C22.083 12.2 22.433 12.4667 22.7497 12.5167L24.533 12.8167C25.6497 13 25.9163 13.8167 25.0997 14.6334Z" fill="white"/>
</svg>
