<svg width="40" height="40" viewBox="0 0 40 40" fill="none" xmlns="http://www.w3.org/2000/svg">
<path d="M33.0508 14.5023L25.5008 6.95228C23.9174 5.36895 21.7341 4.51895 19.5008 4.63561L11.1674 5.03561C7.83411 5.18561 5.18411 7.83561 5.01744 11.1523L4.61744 19.4856C4.51744 21.7189 5.35077 23.9023 6.93411 25.4856L14.4841 33.0356C17.5841 36.1356 22.6174 36.1356 25.7341 33.0356L33.0508 25.7189C36.1674 22.6356 36.1674 17.6023 33.0508 14.5023ZM15.8341 20.6356C13.1841 20.6356 11.0341 18.4856 11.0341 15.8356C11.0341 13.1856 13.1841 11.0356 15.8341 11.0356C18.4841 11.0356 20.6341 13.1856 20.6341 15.8356C20.6341 18.4856 18.4841 20.6356 15.8341 20.6356Z" fill="#2271B6"/>
</svg>
