<svg width="18" height="17" viewBox="0 0 18 17" fill="none" xmlns="http://www.w3.org/2000/svg">
<path d="M12.2212 1.41699H6.28534C3.70701 1.41699 2.16992 2.95408 2.16992 5.53241V11.4612C2.16992 14.0466 3.70701 15.5837 6.28534 15.5837H12.2141C14.7924 15.5837 16.3295 14.0466 16.3295 11.4682V5.53241C16.3366 2.95408 14.7995 1.41699 12.2212 1.41699ZM9.25326 12.9274C7.98534 12.9274 6.99367 12.297 6.32076 11.6737V12.1766C6.32076 12.467 6.07992 12.7078 5.78951 12.7078C5.49909 12.7078 5.25826 12.467 5.25826 12.1766V10.2287C5.25826 9.93824 5.49909 9.69741 5.78951 9.69741H7.54617C7.83659 9.69741 8.07742 9.93824 8.07742 10.2287C8.07742 10.5191 7.83659 10.7599 7.54617 10.7599H6.90867C7.43284 11.2841 8.24742 11.8649 9.25326 11.8649C11.1091 11.8649 12.6178 10.3562 12.6178 8.50033C12.6178 8.20991 12.8587 7.96908 13.1491 7.96908C13.4395 7.96908 13.6803 8.20991 13.6803 8.50033C13.6803 10.9441 11.697 12.9274 9.25326 12.9274ZM13.6803 6.75783C13.6803 6.77908 13.6803 6.80033 13.6803 6.81449C13.6733 6.89241 13.652 6.96324 13.6166 7.02699C13.5812 7.09074 13.5316 7.14741 13.4678 7.19699C13.4183 7.23241 13.3616 7.26074 13.2978 7.28199C13.2483 7.29616 13.1987 7.30324 13.1491 7.30324H11.4278C11.1374 7.30324 10.8966 7.06241 10.8966 6.77199C10.8966 6.48158 11.1374 6.24074 11.4278 6.24074H12.0158C11.4491 5.71658 10.5353 5.13574 9.26742 5.13574C7.41159 5.13574 5.90284 6.64449 5.90284 8.50033C5.90284 8.79074 5.66201 9.03158 5.37159 9.03158C5.08117 9.03158 4.82617 8.79074 4.82617 8.50033C4.82617 6.05658 6.80951 4.07324 9.25326 4.07324C10.7762 4.07324 11.8953 4.73199 12.6178 5.36241V4.82408C12.6178 4.53366 12.8587 4.29283 13.1491 4.29283C13.4395 4.29283 13.6803 4.53366 13.6803 4.82408V6.75783Z" fill="#2271B6"/>
</svg>
