<svg width="30" height="30" viewBox="0 0 30 30" fill="none" xmlns="http://www.w3.org/2000/svg">
<path d="M25.625 12.7375H22.0125C19.05 12.7375 16.6375 10.325 16.6375 7.3625V3.75C16.6375 3.0625 16.075 2.5 15.3875 2.5H10.0875C6.2375 2.5 3.125 5 3.125 9.4625V20.5375C3.125 25 6.2375 27.5 10.0875 27.5H19.9125C23.7625 27.5 26.875 25 26.875 20.5375V13.9875C26.875 13.3 26.3125 12.7375 25.625 12.7375Z" fill="#2271B6"/>
<path d="M19.7496 2.7631C19.2371 2.2506 18.3496 2.6006 18.3496 3.3131V7.6756C18.3496 9.5006 19.8996 11.0131 21.7871 11.0131C22.9746 11.0256 24.6246 11.0256 26.0371 11.0256C26.7496 11.0256 27.1246 10.1881 26.6246 9.6881C24.8246 7.8756 21.5996 4.6131 19.7496 2.7631Z" fill="#2271B6"/>
</svg>
