<svg width="24" height="24" viewBox="0 0 24 24" fill="none" xmlns="http://www.w3.org/2000/svg">
<path d="M4.49008 18.15L10.4301 21.58C11.4001 22.14 12.6001 22.14 13.5801 21.58L19.5101 18.15C20.4801 17.59 21.0801 16.55 21.0801 15.42V8.58C21.0801 7.46 20.4801 6.42 19.5101 5.85L13.5701 2.42C12.6001 1.86 11.4001 1.86 10.4201 2.42L4.48008 5.85C3.51008 6.41 2.91008 7.45 2.91008 8.58V15.42C2.92008 16.55 3.52008 17.58 4.49008 18.15ZM12.7501 16.25C12.7501 16.66 12.4101 17 12.0001 17C11.5901 17 11.2501 16.66 11.2501 16.25V11C11.2501 10.59 11.5901 10.25 12.0001 10.25C12.4101 10.25 12.7501 10.59 12.7501 11V16.25ZM11.0801 7.37C11.1301 7.25 11.2001 7.14 11.2901 7.04C11.4801 6.85 11.7301 6.75 12.0001 6.75C12.1301 6.75 12.2601 6.78 12.3801 6.83C12.5101 6.88 12.6101 6.95 12.7101 7.04C12.8001 7.14 12.8701 7.25 12.9301 7.37C12.9801 7.49 13.0001 7.62 13.0001 7.75C13.0001 8.01 12.9001 8.27 12.7101 8.46C12.6101 8.55 12.5101 8.62 12.3801 8.67C12.0101 8.83 11.5701 8.74 11.2901 8.46C11.2001 8.36 11.1301 8.26 11.0801 8.13C11.0301 8.01 11.0001 7.88 11.0001 7.75C11.0001 7.62 11.0301 7.49 11.0801 7.37Z" fill="#292D32"/>
</svg>
