<svg width="40" height="40" viewBox="0 0 40 40" fill="none" xmlns="http://www.w3.org/2000/svg">
    <path
        d="M36.6663 35.4141H3.33301C2.64967 35.4141 2.08301 35.9807 2.08301 36.6641C2.08301 37.3474 2.64967 37.9141 3.33301 37.9141H36.6663C37.3497 37.9141 37.9163 37.3474 37.9163 36.6641C37.9163 35.9807 37.3497 35.4141 36.6663 35.4141Z"
        fill="#2271B6" />
    <path
        d="M28.3333 3.33594H11.6667C6.66667 3.33594 5 6.31927 5 10.0026V36.6693H35V10.0026C35 6.31927 33.3333 3.33594 28.3333 3.33594ZM16.6667 28.7526H11.6667C10.9833 28.7526 10.4167 28.1859 10.4167 27.5026C10.4167 26.8193 10.9833 26.2526 11.6667 26.2526H16.6667C17.35 26.2526 17.9167 26.8193 17.9167 27.5026C17.9167 28.1859 17.35 28.7526 16.6667 28.7526ZM16.6667 21.2526H11.6667C10.9833 21.2526 10.4167 20.6859 10.4167 20.0026C10.4167 19.3193 10.9833 18.7526 11.6667 18.7526H16.6667C17.35 18.7526 17.9167 19.3193 17.9167 20.0026C17.9167 20.6859 17.35 21.2526 16.6667 21.2526ZM16.6667 13.7526H11.6667C10.9833 13.7526 10.4167 13.1859 10.4167 12.5026C10.4167 11.8193 10.9833 11.2526 11.6667 11.2526H16.6667C17.35 11.2526 17.9167 11.8193 17.9167 12.5026C17.9167 13.1859 17.35 13.7526 16.6667 13.7526ZM28.3333 28.7526H23.3333C22.65 28.7526 22.0833 28.1859 22.0833 27.5026C22.0833 26.8193 22.65 26.2526 23.3333 26.2526H28.3333C29.0167 26.2526 29.5833 26.8193 29.5833 27.5026C29.5833 28.1859 29.0167 28.7526 28.3333 28.7526ZM28.3333 21.2526H23.3333C22.65 21.2526 22.0833 20.6859 22.0833 20.0026C22.0833 19.3193 22.65 18.7526 23.3333 18.7526H28.3333C29.0167 18.7526 29.5833 19.3193 29.5833 20.0026C29.5833 20.6859 29.0167 21.2526 28.3333 21.2526ZM28.3333 13.7526H23.3333C22.65 13.7526 22.0833 13.1859 22.0833 12.5026C22.0833 11.8193 22.65 11.2526 23.3333 11.2526H28.3333C29.0167 11.2526 29.5833 11.8193 29.5833 12.5026C29.5833 13.1859 29.0167 13.7526 28.3333 13.7526Z"
        fill="#2271B6" />
</svg>