<svg width="40" height="40" viewBox="0 0 40 40" fill="none" xmlns="http://www.w3.org/2000/svg">
<path d="M25 11.7833C25 10.6667 24.45 9.63332 23.5167 9.01665L16.85 4.56665C15.7333 3.81665 14.2667 3.81665 13.15 4.56665L6.48333 9.01665C5.56667 9.63332 5 10.6667 5 11.7833V21.25C5 21.7167 5.36667 22.0833 5.83333 22.0833H24.1667C24.6333 22.0833 25 21.7167 25 21.25V11.7833ZM15 17.9166C13.4 17.9166 12.0833 16.6 12.0833 15C12.0833 13.4 13.4 12.0833 15 12.0833C16.6 12.0833 17.9167 13.4 17.9167 15C17.9167 16.6 16.6 17.9166 15 17.9166Z" fill="#2271B6"/>
<path d="M36.6663 35.4167H34.5497V30.4167C36.133 29.9 37.283 28.4167 37.283 26.6667V23.3334C37.283 21.15 35.4997 19.3667 33.3163 19.3667C31.133 19.3667 29.3497 21.15 29.3497 23.3334V26.6667C29.3497 28.4 30.483 29.8667 32.033 30.4V35.4167H24.9997V25.4167C24.9997 24.95 24.633 24.5834 24.1663 24.5834H5.83301C5.36634 24.5834 4.99967 24.95 4.99967 25.4167V35.4167H3.33301C2.64967 35.4167 2.08301 35.9834 2.08301 36.6667C2.08301 37.35 2.64967 37.9167 3.33301 37.9167H33.2163C33.2497 37.9167 33.2663 37.9334 33.2997 37.9334C33.333 37.9334 33.3497 37.9167 33.383 37.9167H36.6663C37.3497 37.9167 37.9163 37.35 37.9163 36.6667C37.9163 35.9834 37.3497 35.4167 36.6663 35.4167ZM13.7497 30.4167C13.7497 29.7334 14.3163 29.1667 14.9997 29.1667C15.683 29.1667 16.2497 29.7334 16.2497 30.4167V35.4167H13.7497V30.4167Z" fill="#2271B6"/>
</svg>
