<svg width="40" height="40" viewBox="0 0 40 40" fill="none" xmlns="http://www.w3.org/2000/svg">
<path d="M19.9997 3.33325C10.8163 3.33325 3.33301 10.8166 3.33301 19.9999C3.33301 29.1833 10.8163 36.6666 19.9997 36.6666C29.183 36.6666 36.6663 29.1833 36.6663 19.9999C36.6663 10.8166 29.183 3.33325 19.9997 3.33325ZM27.2497 25.9499C27.0163 26.3499 26.5997 26.5666 26.1663 26.5666C25.9497 26.5666 25.733 26.5166 25.533 26.3833L20.3663 23.2999C19.083 22.5333 18.133 20.8499 18.133 19.3666V12.5333C18.133 11.8499 18.6997 11.2833 19.383 11.2833C20.0663 11.2833 20.633 11.8499 20.633 12.5333V19.3666C20.633 19.9666 21.133 20.8499 21.6497 21.1499L26.8163 24.2333C27.4163 24.5833 27.6163 25.3499 27.2497 25.9499Z" fill="#2271B6"/>
</svg>
