<svg width="40" height="40" viewBox="0 0 40 40" fill="none" xmlns="http://www.w3.org/2000/svg">
    <path
        d="M36.6663 35.4134H34.583V18.3301C34.583 14.2967 32.3663 12.0801 28.333 12.0801H21.2497V10.0301C22.2163 10.2634 23.183 10.3967 24.1663 10.3967C25.733 10.3967 27.2997 10.0967 28.7997 9.49673C29.2663 9.3134 29.583 8.84673 29.583 8.33007V3.33007C29.583 2.9134 29.383 2.53007 29.033 2.29673C28.683 2.0634 28.2497 2.0134 27.8663 2.1634C25.483 3.1134 22.8497 3.1134 20.4663 2.1634C20.083 2.0134 19.6497 2.0634 19.2997 2.29673C18.9497 2.53007 18.7497 2.9134 18.7497 3.33007V8.33007V12.0801H11.6663C7.63301 12.0801 5.41634 14.2967 5.41634 18.3301V35.4134H3.33301C2.64967 35.4134 2.08301 35.9801 2.08301 36.6634C2.08301 37.3467 2.64967 37.9134 3.33301 37.9134H6.66634H33.333H36.6663C37.3497 37.9134 37.9163 37.3467 37.9163 36.6634C37.9163 35.9801 37.3497 35.4134 36.6663 35.4134ZM12.0663 35.4134H7.91634V21.2467H12.0663V35.4134ZM18.733 35.4134H14.5663V21.2467H18.733V35.4134ZM25.3997 35.4134H21.233V21.2467H25.3997V35.4134ZM32.083 35.4134H27.8997V21.2467H32.083V35.4134Z"
        fill="#2271B6" />
</svg>