<svg width="18" height="17" viewBox="0 0 18 17" fill="none" xmlns="http://www.w3.org/2000/svg">
<path d="M15.8256 3.70198C14.6851 3.58865 13.5447 3.50365 12.3972 3.4399V3.43281L12.2414 2.51198C12.1351 1.86031 11.9793 0.882812 10.3218 0.882812H8.46597C6.81555 0.882812 6.65972 1.81781 6.54639 2.5049L6.39764 3.41156C5.73889 3.45406 5.08014 3.49656 4.42139 3.56031L2.97639 3.70198C2.67889 3.73031 2.46639 3.9924 2.49472 4.28281C2.52305 4.57323 2.77805 4.78573 3.07555 4.7574L4.52055 4.61573C8.23222 4.2474 11.9722 4.38906 15.7264 4.76448C15.7476 4.76448 15.7618 4.76448 15.7831 4.76448C16.0522 4.76448 16.286 4.55906 16.3143 4.28281C16.3356 3.9924 16.1231 3.73031 15.8256 3.70198Z" fill="#FD0000"/>
<path d="M14.5219 5.76844C14.3519 5.59135 14.1181 5.49219 13.8773 5.49219H4.92395C4.68312 5.49219 4.44229 5.59135 4.27937 5.76844C4.11645 5.94552 4.02437 6.18635 4.03854 6.43427L4.4777 13.7018C4.55562 14.7784 4.65479 16.1243 7.12687 16.1243H11.6744C14.1465 16.1243 14.2456 14.7855 14.3235 13.7018L14.7627 6.44135C14.7769 6.18635 14.6848 5.94552 14.5219 5.76844ZM10.5765 12.5755H8.2177C7.92729 12.5755 7.68645 12.3347 7.68645 12.0443C7.68645 11.7539 7.92729 11.513 8.2177 11.513H10.5765C10.8669 11.513 11.1077 11.7539 11.1077 12.0443C11.1077 12.3347 10.8669 12.5755 10.5765 12.5755ZM11.1715 9.74219H7.62979C7.33937 9.74219 7.09854 9.50135 7.09854 9.21094C7.09854 8.92052 7.33937 8.67969 7.62979 8.67969H11.1715C11.4619 8.67969 11.7027 8.92052 11.7027 9.21094C11.7027 9.50135 11.4619 9.74219 11.1715 9.74219Z" fill="#FD0000"/>
</svg>
