<svg width="40" height="40" viewBox="0 0 40 40" fill="none" xmlns="http://www.w3.org/2000/svg">
<path d="M32.3908 6.72406C32.6113 7.07059 32.2336 7.47428 31.8331 7.38325C31.0497 7.14992 30.1831 7.03325 29.2997 7.03325H23.6328C23.4756 7.03325 23.3275 6.95931 23.2331 6.83362L21.2164 4.14992C20.9816 3.81732 21.2035 3.33325 21.6106 3.33325H26.1997C28.8014 3.33325 31.0932 4.68447 32.3908 6.72406Z" fill="#2271B6"/>
<path d="M33.5663 10.8999C32.8497 10.3833 32.033 9.99992 31.1497 9.78325C30.5497 9.61659 29.933 9.53325 29.2997 9.53325H23.0997C22.133 9.53325 22.0663 9.44992 21.5497 8.76659L19.2163 5.66659C18.133 4.21659 17.283 3.33325 14.5663 3.33325H10.6997C6.63301 3.33325 3.33301 6.63325 3.33301 10.6999V29.2999C3.33301 33.3666 6.63301 36.6666 10.6997 36.6666H29.2997C33.3663 36.6666 36.6663 33.3666 36.6663 29.2999V16.8999C36.6663 14.4166 35.4497 12.2333 33.5663 10.8999ZM23.983 27.2333H15.9997C15.3497 27.2333 14.8497 26.7166 14.8497 26.0666C14.8497 25.4333 15.3497 24.8999 15.9997 24.8999H23.983C24.633 24.8999 25.1497 25.4333 25.1497 26.0666C25.1497 26.7166 24.633 27.2333 23.983 27.2333Z" fill="#2271B6"/>
</svg>
