<svg width="40" height="40" viewBox="0 0 40 40" fill="none" xmlns="http://www.w3.org/2000/svg">
<path d="M4.06654 22.1031L6.31654 24.7365C6.7332 25.2365 7.0832 26.1698 7.0832 26.8365V29.6698C7.0832 31.4365 8.53321 32.8865 10.2999 32.8865H13.1332C13.7999 32.8865 14.7499 33.2365 15.2499 33.6531L17.8832 35.9031C19.0332 36.8865 20.9165 36.8865 22.0665 35.9031L24.7332 33.6531C25.2332 33.2365 26.1665 32.8865 26.8332 32.8865H29.7165C31.4832 32.8865 32.9332 31.4365 32.9332 29.6698V26.8365C32.9332 26.1865 33.2665 25.2531 33.6832 24.7531L35.9332 22.1031C36.8999 20.9365 36.8999 19.0698 35.9332 17.9365L33.6832 15.2865C33.2665 14.8031 32.9332 13.8531 32.9332 13.2031V10.3531C32.9332 8.58646 31.4832 7.13646 29.7165 7.13646H26.8165C26.1665 7.13646 25.2165 6.78646 24.7165 6.36979L22.0832 4.11979C20.9332 3.13646 19.0499 3.13646 17.8999 4.11979L15.2665 6.36979C14.7665 6.78646 13.8332 7.13646 13.1665 7.13646H10.3332C8.56654 7.13646 7.11654 8.58646 7.11654 10.3531V13.1865C7.11654 13.8531 6.76653 14.7865 6.34987 15.2865L4.09987 17.9198C3.0832 19.0531 3.0832 20.9365 4.06654 22.1031ZM21.2499 26.4531C21.2499 27.1365 20.6832 27.7031 19.9999 27.7031C19.3165 27.7031 18.7499 27.1365 18.7499 26.4531V18.4031C18.7499 17.7198 19.3165 17.1531 19.9999 17.1531C20.6832 17.1531 21.2499 17.7198 21.2499 18.4031V26.4531ZM19.9999 11.8865C20.9165 11.8865 21.6665 12.6365 21.6665 13.5531C21.6665 14.4698 20.9332 15.2198 19.9999 15.2198C19.0832 15.2198 18.3332 14.4698 18.3332 13.5531C18.3332 12.6365 19.0665 11.8865 19.9999 11.8865Z" fill="#2271B6"/>
</svg>
