<svg width="40" height="40" viewBox="0 0 40 40" fill="none" xmlns="http://www.w3.org/2000/svg">
<path d="M32.2838 8.15313L22.5171 3.80313C21.0838 3.16979 18.9171 3.16979 17.4838 3.80313L7.71712 8.15313C5.25046 9.25313 4.88379 10.7531 4.88379 11.5531C4.88379 12.3531 5.25046 13.8531 7.71712 14.9531L17.4838 19.3031C18.2005 19.6198 19.1005 19.7865 20.0005 19.7865C20.9005 19.7865 21.8005 19.6198 22.5171 19.3031L32.2838 14.9531C34.7505 13.8531 35.1171 12.3531 35.1171 11.5531C35.1171 10.7531 34.7671 9.25313 32.2838 8.15313Z" fill="#2271B6"/>
<path d="M19.9995 28.4026C19.3662 28.4026 18.7329 28.2693 18.1495 28.0193L6.91621 23.0193C5.19954 22.2526 3.86621 20.2026 3.86621 18.3193C3.86621 17.6359 4.41621 17.0859 5.09954 17.0859C5.78288 17.0859 6.33288 17.6359 6.33288 18.3193C6.33288 19.2193 7.08288 20.3859 7.91621 20.7526L19.1495 25.7526C19.6829 25.9859 20.2995 25.9859 20.8329 25.7526L32.0662 20.7526C32.8995 20.3859 33.6495 19.2359 33.6495 18.3193C33.6495 17.6359 34.1995 17.0859 34.8829 17.0859C35.5662 17.0859 36.1162 17.6359 36.1162 18.3193C36.1162 20.1859 34.7829 22.2526 33.0662 23.0193L21.8329 28.0193C21.2662 28.2693 20.6329 28.4026 19.9995 28.4026Z" fill="#2271B6"/>
<path d="M19.9995 36.6682C19.3662 36.6682 18.7329 36.5349 18.1495 36.2849L6.91621 31.2849C5.06621 30.4682 3.86621 28.6182 3.86621 26.5849C3.86621 25.9016 4.41621 25.3516 5.09954 25.3516C5.78288 25.3516 6.33288 25.9016 6.33288 26.5849C6.33288 27.6349 6.94954 28.5849 7.91621 29.0182L19.1495 34.0182C19.6829 34.2516 20.2995 34.2516 20.8329 34.0182L32.0662 29.0182C33.0162 28.6016 33.6495 27.6349 33.6495 26.5849C33.6495 25.9016 34.1995 25.3516 34.8829 25.3516C35.5662 25.3516 36.1162 25.9016 36.1162 26.5849C36.1162 28.6182 34.9162 30.4516 33.0662 31.2849L21.8329 36.2849C21.2662 36.5349 20.6329 36.6682 19.9995 36.6682Z" fill="#2271B6"/>
</svg>
