<svg width="40" height="40" viewBox="0 0 40 40" fill="none" xmlns="http://www.w3.org/2000/svg">
<path d="M34.3668 14.0807C32.6168 6.38073 25.9002 2.91406 20.0002 2.91406C20.0002 2.91406 20.0002 2.91406 19.9835 2.91406C14.1002 2.91406 7.36683 6.36406 5.61683 14.0641C3.66683 22.6641 8.93349 29.9474 13.7002 34.5307C15.4668 36.2307 17.7335 37.0807 20.0002 37.0807C22.2668 37.0807 24.5335 36.2307 26.2835 34.5307C31.0502 29.9474 36.3168 22.6807 34.3668 14.0807ZM20.0002 22.4307C17.1002 22.4307 14.7502 20.0807 14.7502 17.1807C14.7502 14.2807 17.1002 11.9307 20.0002 11.9307C22.9002 11.9307 25.2502 14.2807 25.2502 17.1807C25.2502 20.0807 22.9002 22.4307 20.0002 22.4307Z" fill="#2271B6"/>
</svg>
