<svg width="40" height="40" viewBox="0 0 40 40" fill="none" xmlns="http://www.w3.org/2000/svg">
    <path
        d="M18.7512 13.4668V18.2335L17.0678 17.6501C16.2178 17.3501 15.7012 17.0668 15.7012 15.6168C15.7012 14.4335 16.5845 13.4668 17.6678 13.4668H18.7512Z"
        fill="#2271B6" />
    <path
        d="M24.3 24.383C24.3 25.5664 23.4167 26.533 22.3333 26.533H21.25V21.7664L22.9333 22.3497C23.7833 22.6497 24.3 22.933 24.3 24.383Z"
        fill="#2271B6" />
    <path
        d="M26.982 3.33374H13.0154C6.9487 3.33374 3.33203 6.95041 3.33203 13.0171V26.9837C3.33203 33.0504 6.9487 36.6671 13.0154 36.6671H26.982C33.0487 36.6671 36.6654 33.0504 36.6654 26.9837V13.0171C36.6654 6.95041 33.0487 3.33374 26.982 3.33374ZM23.7654 20.0004C25.0654 20.4504 26.7987 21.4004 26.7987 24.3837C26.7987 26.9504 24.7987 29.0337 22.332 29.0337H21.2487V30.0004C21.2487 30.6837 20.682 31.2504 19.9987 31.2504C19.3154 31.2504 18.7487 30.6837 18.7487 30.0004V29.0337H18.1487C15.4154 29.0337 13.1987 26.7171 13.1987 23.8837C13.1987 23.2004 13.7487 22.6337 14.4487 22.6337C15.132 22.6337 15.6987 23.2004 15.6987 23.8837C15.6987 25.3504 16.7987 26.5337 18.1487 26.5337H18.7487V20.8837L16.232 20.0004C14.932 19.5504 13.1987 18.6004 13.1987 15.6171C13.1987 13.0504 15.1987 10.9671 17.6654 10.9671H18.7487V10.0004C18.7487 9.31707 19.3154 8.75041 19.9987 8.75041C20.682 8.75041 21.2487 9.31707 21.2487 10.0004V10.9671H21.8487C24.582 10.9671 26.7987 13.2837 26.7987 16.1171C26.7987 16.8004 26.2487 17.3671 25.5487 17.3671C24.8654 17.3671 24.2987 16.8004 24.2987 16.1171C24.2987 14.6504 23.1987 13.4671 21.8487 13.4671H21.2487V19.1171L23.7654 20.0004Z"
        fill="#2271B6" />
    <g clip-path="url(#clip0_1132_2814)">
        <rect width="22.2727" height="24.5" transform="translate(9 8)" fill="#2271B6" />
        <path
            d="M15.496 28.7884V14.868H15.96L24.3123 27.8604H24.7763V13.9399M12.7119 19.5081H27.5604M12.7119 23.2202H27.5604"
            stroke="white" stroke-width="1.85606" />
    </g>
    <defs>
        <clipPath id="clip0_1132_2814">
            <rect width="22.2727" height="24.5" fill="white" transform="translate(9 8)" />
        </clipPath>
    </defs>
</svg>
    