<svg width="41" height="40" viewBox="0 0 41 40" fill="none" xmlns="http://www.w3.org/2000/svg">
<path d="M27.3337 16.25H14.0003C12.8503 16.25 11.917 17.1833 11.917 18.3333V20.0833C11.967 20.0667 12.0003 20.05 12.0503 20.0333C12.2503 19.9333 12.467 19.8667 12.6837 19.8C12.7837 19.7667 12.8837 19.7333 13.0003 19.7C13.3337 19.6333 13.667 19.5833 14.017 19.5833H27.3503C27.7003 19.5833 28.0337 19.6333 28.367 19.7C28.467 19.7167 28.567 19.7667 28.6837 19.8C28.9003 19.8667 29.117 19.9333 29.317 20.0333C29.367 20.05 29.417 20.0667 29.4503 20.0833V18.3333C29.417 17.1833 28.4837 16.25 27.3337 16.25Z" fill="#2271B6"/>
<path d="M27.3337 22.0835H14.0003C12.8503 22.0835 11.917 23.0168 11.917 24.1668V25.0002H16.5003C17.1837 25.0002 17.7503 25.5668 17.7503 26.2502C17.7503 27.8502 19.067 29.1668 20.667 29.1668C22.267 29.1668 23.5837 27.8502 23.5837 26.2502C23.5837 25.5668 24.1503 25.0002 24.8337 25.0002H29.417V24.1668C29.417 23.0168 28.4837 22.0835 27.3337 22.0835Z" fill="#2271B6"/>
<path d="M27.3337 10.8335H14.0003C12.8503 10.8335 11.917 11.7668 11.917 12.9168V14.2668C12.5503 13.9502 13.2503 13.7502 14.0003 13.7502H27.3337C28.0837 13.7502 28.7837 13.9502 29.417 14.2668V12.9168C29.417 11.7668 28.4837 10.8335 27.3337 10.8335Z" fill="#2271B6"/>
<path d="M27.65 3.3335H13.6833C7.61667 3.3335 4 6.95016 4 13.0168V26.9668C4 33.0502 7.61667 36.6668 13.6833 36.6668H27.6333C33.7 36.6668 37.3167 33.0502 37.3167 26.9835V13.0168C37.3333 6.95016 33.7167 3.3335 27.65 3.3335ZM32.3333 27.5002H30.6667H25.9333C25.3667 29.8835 23.2167 31.6668 20.6667 31.6668C18.1167 31.6668 15.9667 29.8835 15.4 27.5002H10.6667H9C8.31667 27.5002 7.75 26.9335 7.75 26.2502C7.75 25.5668 8.31667 25.0002 9 25.0002H9.41667V24.1668V23.3335V18.3335V12.9168C9.41667 10.3835 11.4667 8.3335 14 8.3335H27.3333C29.8667 8.3335 31.9167 10.3835 31.9167 12.9168V18.3335V23.3335V24.1668V25.0002H32.3333C33.0167 25.0002 33.5833 25.5668 33.5833 26.2502C33.5833 26.9335 33.0167 27.5002 32.3333 27.5002Z" fill="#2271B6"/>
</svg>
