<svg width="40" height="40" viewBox="0 0 40 40" fill="none" xmlns="http://www.w3.org/2000/svg">
<path d="M7.48379 30.2474L17.3838 35.9641C19.0005 36.8974 21.0005 36.8974 22.6338 35.9641L32.5171 30.2474C34.1338 29.3141 35.1338 27.5807 35.1338 25.6974V14.2974C35.1338 12.4307 34.1338 10.6974 32.5171 9.74739L22.6171 4.03073C21.0005 3.09739 19.0005 3.09739 17.3671 4.03073L7.46712 9.74739C5.85045 10.6807 4.85045 12.4141 4.85045 14.2974V25.6974C4.86712 27.5807 5.86712 29.2974 7.48379 30.2474ZM21.2505 27.0807C21.2505 27.7641 20.6838 28.3307 20.0005 28.3307C19.3171 28.3307 18.7505 27.7641 18.7505 27.0807V18.3307C18.7505 17.6474 19.3171 17.0807 20.0005 17.0807C20.6838 17.0807 21.2505 17.6474 21.2505 18.3307V27.0807ZM18.4671 12.2807C18.5505 12.0807 18.6671 11.8974 18.8171 11.7307C19.1338 11.4141 19.5505 11.2474 20.0005 11.2474C20.2171 11.2474 20.4338 11.2974 20.6338 11.3807C20.8505 11.4641 21.0171 11.5807 21.1838 11.7307C21.3338 11.8974 21.4505 12.0807 21.5505 12.2807C21.6338 12.4807 21.6671 12.6974 21.6671 12.9141C21.6671 13.3474 21.5005 13.7807 21.1838 14.0974C21.0171 14.2474 20.8505 14.3641 20.6338 14.4474C20.0171 14.7141 19.2838 14.5641 18.8171 14.0974C18.6671 13.9307 18.5505 13.7641 18.4671 13.5474C18.3838 13.3474 18.3338 13.1307 18.3338 12.9141C18.3338 12.6974 18.3838 12.4807 18.4671 12.2807Z" fill="#2271B6"/>
</svg>
