<svg width="40" height="40" viewBox="0 0 40 40" fill="none" xmlns="http://www.w3.org/2000/svg">
<path d="M26.6667 16.25H13.3333C12.1833 16.25 11.25 17.1833 11.25 18.3333V20.0833C11.3 20.0667 11.3333 20.05 11.3833 20.0333C11.5833 19.9333 11.8 19.8667 12.0167 19.8C12.1167 19.7667 12.2167 19.7333 12.3333 19.7C12.6667 19.6333 13 19.5833 13.35 19.5833H26.6833C27.0333 19.5833 27.3667 19.6333 27.7 19.7C27.8 19.7167 27.9 19.7667 28.0167 19.8C28.2333 19.8667 28.45 19.9333 28.65 20.0333C28.7 20.05 28.75 20.0667 28.7833 20.0833V18.3333C28.75 17.1833 27.8167 16.25 26.6667 16.25Z" fill="#2271B6"/>
<path d="M26.6667 22.0833H13.3333C12.1833 22.0833 11.25 23.0166 11.25 24.1666V24.9999H15.8333C16.5167 24.9999 17.0833 25.5666 17.0833 26.2499C17.0833 27.8499 18.4 29.1666 20 29.1666C21.6 29.1666 22.9167 27.8499 22.9167 26.2499C22.9167 25.5666 23.4833 24.9999 24.1667 24.9999H28.75V24.1666C28.75 23.0166 27.8167 22.0833 26.6667 22.0833Z" fill="#2271B6"/>
<path d="M26.6667 10.8333H13.3333C12.1833 10.8333 11.25 11.7666 11.25 12.9166V14.2666C11.8833 13.9499 12.5833 13.7499 13.3333 13.7499H26.6667C27.4167 13.7499 28.1167 13.9499 28.75 14.2666V12.9166C28.75 11.7666 27.8167 10.8333 26.6667 10.8333Z" fill="#2271B6"/>
<path d="M26.983 3.33325H13.0163C6.94967 3.33325 3.33301 6.94992 3.33301 13.0166V26.9666C3.33301 33.0499 6.94967 36.6666 13.0163 36.6666H26.9663C33.033 36.6666 36.6497 33.0499 36.6497 26.9833V13.0166C36.6663 6.94992 33.0497 3.33325 26.983 3.33325ZM31.6663 27.4999H29.9997H25.2663C24.6997 29.8833 22.5497 31.6666 19.9997 31.6666C17.4497 31.6666 15.2997 29.8833 14.733 27.4999H9.99967H8.33301C7.64967 27.4999 7.08301 26.9333 7.08301 26.2499C7.08301 25.5666 7.64967 24.9999 8.33301 24.9999H8.74967V24.1666V23.3333V18.3333V12.9166C8.74967 10.3833 10.7997 8.33325 13.333 8.33325H26.6663C29.1997 8.33325 31.2497 10.3833 31.2497 12.9166V18.3333V23.3333V24.1666V24.9999H31.6663C32.3497 24.9999 32.9163 25.5666 32.9163 26.2499C32.9163 26.9333 32.3497 27.4999 31.6663 27.4999Z" fill="#2271B6"/>
</svg>
