<svg width="40" height="40" viewBox="0 0 40 40" fill="none" xmlns="http://www.w3.org/2000/svg">
<path d="M36.6663 31.6667V36.6667H3.33301V31.6667C3.33301 30.75 4.08301 30 4.99967 30H34.9997C35.9163 30 36.6663 30.75 36.6663 31.6667Z" fill="#2271B6" stroke="#2271B6" stroke-width="1.5" stroke-miterlimit="10" stroke-linecap="round" stroke-linejoin="round"/>
<path d="M11.6663 18.3333H8.33301V29.9999H11.6663V18.3333Z" fill="#2271B6"/>
<path d="M18.3333 18.3333H15V29.9999H18.3333V18.3333Z" fill="#2271B6"/>
<path d="M25.0003 18.3333H21.667V29.9999H25.0003V18.3333Z" fill="#2271B6"/>
<path d="M31.6663 18.3333H28.333V29.9999H31.6663V18.3333Z" fill="#2271B6"/>
<path d="M38.3337 37.9167H1.66699C0.983659 37.9167 0.416992 37.3501 0.416992 36.6667C0.416992 35.9834 0.983659 35.4167 1.66699 35.4167H38.3337C39.017 35.4167 39.5837 35.9834 39.5837 36.6667C39.5837 37.3501 39.017 37.9167 38.3337 37.9167Z" fill="#2271B6"/>
<path d="M35.6163 9.5834L20.6163 3.5834C20.283 3.45007 19.7163 3.45007 19.383 3.5834L4.38301 9.5834C3.79967 9.81673 3.33301 10.5001 3.33301 11.1334V16.6667C3.33301 17.5834 4.08301 18.3334 4.99967 18.3334H34.9997C35.9163 18.3334 36.6663 17.5834 36.6663 16.6667V11.1334C36.6663 10.5001 36.1997 9.81673 35.6163 9.5834ZM19.9997 14.1667C18.6163 14.1667 17.4997 13.0501 17.4997 11.6667C17.4997 10.2834 18.6163 9.16673 19.9997 9.16673C21.383 9.16673 22.4997 10.2834 22.4997 11.6667C22.4997 13.0501 21.383 14.1667 19.9997 14.1667Z" fill="#2271B6"/>
</svg>
