<svg width="40" height="40" viewBox="0 0 40 40" fill="none" xmlns="http://www.w3.org/2000/svg">
    <path
        d="M17.9165 7.73335L10.5332 4.08335C6.54987 2.13335 3.2832 4.11668 3.2832 8.48335V33.2167C3.2832 35.1167 4.86654 36.6667 6.79987 36.6667H19.1665C20.0832 36.6667 20.8332 35.9167 20.8332 35V12.35C20.8332 10.6 19.5165 8.51668 17.9165 7.73335ZM14.9499 22.9167H9.16654C8.4832 22.9167 7.91654 22.35 7.91654 21.6667C7.91654 20.9833 8.4832 20.4167 9.16654 20.4167H14.9499C15.6332 20.4167 16.1999 20.9833 16.1999 21.6667C16.1999 22.35 15.6499 22.9167 14.9499 22.9167ZM14.9499 16.25H9.16654C8.4832 16.25 7.91654 15.6833 7.91654 15C7.91654 14.3167 8.4832 13.75 9.16654 13.75H14.9499C15.6332 13.75 16.1999 14.3167 16.1999 15C16.1999 15.6833 15.6499 16.25 14.9499 16.25Z"
        fill="#2271B6" />
    <path
        d="M36.6663 30.0667V32.5C36.6663 34.8 34.7997 36.6667 32.4997 36.6667H24.9497C24.0497 36.6667 23.333 35.95 23.333 35.05V31.45C25.1163 31.6667 26.9997 31.15 28.3497 30.0667C29.483 30.9833 30.933 31.5333 32.5163 31.5333C34.0663 31.5333 35.5163 30.9833 36.6663 30.0667Z"
        fill="#2271B6" />
    <path
        d="M36.6663 25.0833V25.1C36.533 27.2833 34.7497 29.0333 32.5163 29.0333C30.1997 29.0333 28.3497 27.15 28.3497 24.8666C28.3497 27.4166 25.9997 29.4666 23.333 28.95V20C23.333 18.9333 24.3163 18.1333 25.3663 18.3666L28.3497 19.0333L29.1497 19.2166L32.5497 19.9833C33.3663 20.15 34.1163 20.4333 34.7663 20.85C34.7663 20.8666 34.783 20.8666 34.783 20.8666C34.9497 20.9833 35.1163 21.1166 35.2663 21.2666C36.033 22.0333 36.533 23.15 36.6497 24.7833C36.6497 24.8833 36.6663 24.9833 36.6663 25.0833Z"
        fill="#2271B6" />
</svg>
    