<svg width="40" height="40" viewBox="0 0 40 40" fill="none" xmlns="http://www.w3.org/2000/svg">
<path d="M34.167 16.9833H29.3503C25.4003 16.9833 22.1837 13.7666 22.1837 9.81659V4.99992C22.1837 4.08325 21.4337 3.33325 20.517 3.33325H13.4503C8.31699 3.33325 4.16699 6.66659 4.16699 12.6166V27.3833C4.16699 33.3333 8.31699 36.6666 13.4503 36.6666H26.5503C31.6837 36.6666 35.8337 33.3333 35.8337 27.3833V18.6499C35.8337 17.7333 35.0837 16.9833 34.167 16.9833Z" fill="#2271B6"/>
<path d="M26.3335 3.6834C25.6501 3.00007 24.4668 3.46674 24.4668 4.41674V10.2334C24.4668 12.6667 26.5335 14.6834 29.0501 14.6834C30.6335 14.7001 32.8335 14.7001 34.7168 14.7001C35.6668 14.7001 36.1668 13.5834 35.5001 12.9167C33.1001 10.5001 28.8001 6.15007 26.3335 3.6834Z" fill="#2271B6"/>
</svg>
