<svg width="40" height="40" viewBox="0 0 40 40" fill="none" xmlns="http://www.w3.org/2000/svg">
<path d="M28.333 6.66675H11.6663C6.66634 6.66675 3.33301 9.16675 3.33301 15.0001V20.9334C3.33301 21.5501 3.96634 21.9334 4.51634 21.6834C6.14967 20.9334 8.03301 20.6501 10.0163 21.0001C14.3997 21.7834 17.6163 25.8501 17.4997 30.3001C17.483 31.0001 17.383 31.6834 17.1997 32.3501C17.0663 32.8667 17.483 33.3501 18.0163 33.3501H28.333C33.333 33.3501 36.6663 30.8501 36.6663 25.0167V15.0001C36.6663 9.16675 33.333 6.66675 28.333 6.66675ZM19.9997 24.1667C17.6997 24.1667 15.833 22.3001 15.833 20.0001C15.833 17.7001 17.6997 15.8334 19.9997 15.8334C22.2997 15.8334 24.1663 17.7001 24.1663 20.0001C24.1663 22.3001 22.2997 24.1667 19.9997 24.1667ZM32.083 23.3334C32.083 24.0167 31.5163 24.5834 30.833 24.5834C30.1497 24.5834 29.583 24.0167 29.583 23.3334V16.6667C29.583 15.9834 30.1497 15.4167 30.833 15.4167C31.5163 15.4167 32.083 15.9834 32.083 16.6667V23.3334Z" fill="#2271B6"/>
<path d="M8.33366 23.3333C4.65033 23.3333 1.66699 26.3166 1.66699 29.9999C1.66699 31.2499 2.01699 32.4333 2.63366 33.4333C3.78366 35.3666 5.90033 36.6666 8.33366 36.6666C10.767 36.6666 12.8837 35.3666 14.0337 33.4333C14.6503 32.4333 15.0003 31.2499 15.0003 29.9999C15.0003 26.3166 12.017 23.3333 8.33366 23.3333ZM11.617 29.4499L8.06699 32.7333C7.83366 32.9499 7.51699 33.0666 7.21699 33.0666C6.90033 33.0666 6.58366 32.9499 6.33366 32.6999L4.68366 31.0499C4.20033 30.5666 4.20033 29.7666 4.68366 29.2833C5.16699 28.7999 5.96699 28.7999 6.45033 29.2833L7.25033 30.0833L9.91699 27.6166C10.417 27.1499 11.217 27.1833 11.6837 27.6833C12.1503 28.1833 12.117 28.9833 11.617 29.4499Z" fill="#2271B6"/>
</svg>
