<svg width="40" height="40" viewBox="0 0 40 40" fill="none" xmlns="http://www.w3.org/2000/svg">
<path d="M18.7502 13.4666V18.2332L17.0669 17.6499C16.2169 17.3499 15.7002 17.0666 15.7002 15.6166C15.7002 14.4332 16.5835 13.4666 17.6669 13.4666H18.7502Z" fill="#2271B6"/>
<path d="M24.3 24.3833C24.3 25.5666 23.4167 26.5333 22.3333 26.5333H21.25V21.7666L22.9333 22.3499C23.7833 22.6499 24.3 22.9333 24.3 24.3833Z" fill="#2271B6"/>
<path d="M26.983 3.3335H13.0163C6.94967 3.3335 3.33301 6.95016 3.33301 13.0168V26.9835C3.33301 33.0502 6.94967 36.6668 13.0163 36.6668H26.983C33.0497 36.6668 36.6663 33.0502 36.6663 26.9835V13.0168C36.6663 6.95016 33.0497 3.3335 26.983 3.3335ZM23.7663 20.0002C25.0663 20.4502 26.7997 21.4002 26.7997 24.3835C26.7997 26.9502 24.7997 29.0335 22.333 29.0335H21.2497V30.0002C21.2497 30.6835 20.683 31.2502 19.9997 31.2502C19.3163 31.2502 18.7497 30.6835 18.7497 30.0002V29.0335H18.1497C15.4163 29.0335 13.1997 26.7168 13.1997 23.8835C13.1997 23.2002 13.7497 22.6335 14.4497 22.6335C15.133 22.6335 15.6997 23.2002 15.6997 23.8835C15.6997 25.3502 16.7997 26.5335 18.1497 26.5335H18.7497V20.8835L16.233 20.0002C14.933 19.5502 13.1997 18.6002 13.1997 15.6168C13.1997 13.0502 15.1997 10.9668 17.6663 10.9668H18.7497V10.0002C18.7497 9.31683 19.3163 8.75016 19.9997 8.75016C20.683 8.75016 21.2497 9.31683 21.2497 10.0002V10.9668H21.8497C24.583 10.9668 26.7997 13.2835 26.7997 16.1168C26.7997 16.8002 26.2497 17.3668 25.5497 17.3668C24.8663 17.3668 24.2997 16.8002 24.2997 16.1168C24.2997 14.6502 23.1997 13.4668 21.8497 13.4668H21.2497V19.1168L23.7663 20.0002Z" fill="#2271B6"/>
<g clip-path="url(#clip0_1132_2832)">
<rect width="21.8182" height="24" transform="translate(9.48633 8)" fill="#2271B6"/>
<path d="M25.8495 26.546C25.8495 26.546 16.3041 26.546 14.9404 26.546C15.1433 26.546 17.6677 25.7278 17.6677 23.2733C17.6677 22.3955 17.6677 21.5047 17.6677 20.0005M25.0474 15.9096C24.5794 15.1257 23.5014 13.4551 21.2286 13.4551C18.9559 13.4551 17.6677 15.0914 17.6677 17.546C17.6677 18.012 17.6677 19.4016 17.6677 20.0005M17.6677 20.0005H14.9404M17.6677 20.0005H22.2132" stroke="white" stroke-width="1.81818"/>
</g>
<defs>
<clipPath id="clip0_1132_2832">
<rect width="21.8182" height="24" fill="white" transform="translate(9.48633 8)"/>
</clipPath>
</defs>
</svg>
