<svg width="40" height="40" viewBox="0 0 40 40" fill="none" xmlns="http://www.w3.org/2000/svg">
<path d="M26.983 3.33325H13.0163C6.94967 3.33325 3.33301 6.94992 3.33301 13.0166V26.9833C3.33301 33.0499 6.94967 36.6666 13.0163 36.6666H26.983C33.0497 36.6666 36.6663 33.0499 36.6663 26.9833V13.0166C36.6663 6.94992 33.0497 3.33325 26.983 3.33325ZM16.6163 24.8333L12.8663 28.5833C12.6163 28.8333 12.2997 28.9499 11.983 28.9499C11.6663 28.9499 11.333 28.8333 11.0997 28.5833L9.84967 27.3333C9.34967 26.8499 9.34967 26.0499 9.84967 25.5666C10.333 25.0833 11.1163 25.0833 11.6163 25.5666L11.983 25.9333L14.8497 23.0666C15.333 22.5833 16.1163 22.5833 16.6163 23.0666C17.0997 23.5499 17.0997 24.3499 16.6163 24.8333ZM16.6163 13.1666L12.8663 16.9166C12.6163 17.1666 12.2997 17.2833 11.983 17.2833C11.6663 17.2833 11.333 17.1666 11.0997 16.9166L9.84967 15.6666C9.34967 15.1833 9.34967 14.3833 9.84967 13.8999C10.333 13.4166 11.1163 13.4166 11.6163 13.8999L11.983 14.2666L14.8497 11.3999C15.333 10.9166 16.1163 10.9166 16.6163 11.3999C17.0997 11.8833 17.0997 12.6833 16.6163 13.1666ZM29.2663 27.6999H20.5163C19.833 27.6999 19.2663 27.1333 19.2663 26.4499C19.2663 25.7666 19.833 25.1999 20.5163 25.1999H29.2663C29.9663 25.1999 30.5163 25.7666 30.5163 26.4499C30.5163 27.1333 29.9663 27.6999 29.2663 27.6999ZM29.2663 16.0333H20.5163C19.833 16.0333 19.2663 15.4666 19.2663 14.7833C19.2663 14.0999 19.833 13.5333 20.5163 13.5333H29.2663C29.9663 13.5333 30.5163 14.0999 30.5163 14.7833C30.5163 15.4666 29.9663 16.0333 29.2663 16.0333Z" fill="#2271B6"/>
</svg>
