<svg width="24" height="25" viewBox="0 0 24 25" fill="none" xmlns="http://www.w3.org/2000/svg">
<path d="M16.19 2.53809H7.81C4.17 2.53809 2 4.70809 2 8.34809V16.7181C2 20.3681 4.17 22.5381 7.81 22.5381H16.18C19.82 22.5381 21.99 20.3681 21.99 16.7281V8.34809C22 4.70809 19.83 2.53809 16.19 2.53809ZM16 13.2881H12.75V16.5381C12.75 16.9481 12.41 17.2881 12 17.2881C11.59 17.2881 11.25 16.9481 11.25 16.5381V13.2881H8C7.59 13.2881 7.25 12.9481 7.25 12.5381C7.25 12.1281 7.59 11.7881 8 11.7881H11.25V8.53809C11.25 8.12809 11.59 7.78809 12 7.78809C12.41 7.78809 12.75 8.12809 12.75 8.53809V11.7881H16C16.41 11.7881 16.75 12.1281 16.75 12.5381C16.75 12.9481 16.41 13.2881 16 13.2881Z" fill="#2271B6"/>
</svg>
