<svg width="40" height="40" viewBox="0 0 40 40" fill="none" xmlns="http://www.w3.org/2000/svg">
<path d="M19.9997 3.33594C15.633 3.33594 12.083 6.88594 12.083 11.2526C12.083 15.5359 15.433 19.0026 19.7997 19.1526C19.933 19.1359 20.0663 19.1359 20.1663 19.1526C20.1997 19.1526 20.2163 19.1526 20.2497 19.1526C20.2663 19.1526 20.2663 19.1526 20.283 19.1526C24.5497 19.0026 27.8997 15.5359 27.9163 11.2526C27.9163 6.88594 24.3663 3.33594 19.9997 3.33594Z" fill="#2271B6"/>
<path d="M28.4666 23.5828C23.8166 20.4828 16.2333 20.4828 11.5499 23.5828C9.43327 24.9995 8.2666 26.9161 8.2666 28.9661C8.2666 31.0161 9.43327 32.9161 11.5333 34.3161C13.8666 35.8828 16.9333 36.6661 19.9999 36.6661C23.0666 36.6661 26.1333 35.8828 28.4666 34.3161C30.5666 32.8995 31.7333 30.9995 31.7333 28.9328C31.7166 26.8828 30.5666 24.9828 28.4666 23.5828ZM23.3333 30.2161H21.2499V32.2995C21.2499 32.9828 20.6833 33.5495 19.9999 33.5495C19.3166 33.5495 18.7499 32.9828 18.7499 32.2995V30.2161H16.6666C15.9833 30.2161 15.4166 29.6495 15.4166 28.9661C15.4166 28.2828 15.9833 27.7161 16.6666 27.7161H18.7499V25.6328C18.7499 24.9495 19.3166 24.3828 19.9999 24.3828C20.6833 24.3828 21.2499 24.9495 21.2499 25.6328V27.7161H23.3333C24.0166 27.7161 24.5833 28.2828 24.5833 28.9661C24.5833 29.6495 24.0166 30.2161 23.3333 30.2161Z" fill="#2271B6"/>
</svg>
