<svg width="40" height="40" viewBox="0 0 40 40" fill="none" xmlns="http://www.w3.org/2000/svg">
<g clip-path="url(#clip0_7186_76248)">
<path d="M20 40C31.0457 40 40 31.0457 40 20C40 8.9543 31.0457 0 20 0C8.9543 0 0 8.9543 0 20C0 31.0457 8.9543 40 20 40Z" fill="#2271B6"/>
<path d="M34.5779 11.9918L33.9708 11.3848L32.6275 12.7281L33.2345 13.3352L31.6834 14.8863L28.9844 12.1874L18.5426 22.6293L7.32348 11.4102L6.71559 12.018L6.11238 11.4148L4.76902 12.7582L5.36746 13.3566L4.83277 13.8913L10.7192 19.7777L10.3332 20.1637L9.7498 19.5802L8.83723 20.4928L7.92465 19.5802L7.01996 20.4849L5.28941 18.7544L4.67316 19.3706L3.99668 18.6941L2.65332 20.0375L3.32941 20.7136L2.80449 21.2385L7.2341 25.6681L6.44465 26.4576L5.97996 25.993L4.6366 27.3363L5.36246 28.0622L4.83848 28.5862L15.8117 39.5593C17.1625 39.8471 18.5633 39.9999 20 39.9999C31.0457 39.9999 40 31.0456 40 19.9999C40 18.5632 39.8472 17.1623 39.5593 15.8115L35.1587 11.4109L34.5779 11.9918Z" fill="#2271B6"/>
<path d="M2.29297 20C2.29297 20.9693 3.08156 21.7578 4.05078 21.7578C4.81461 21.7578 5.46594 21.2679 5.70781 20.5859H12.0239V19.4141H5.70781C5.46594 18.7321 4.81461 18.2422 4.05078 18.2422C3.08148 18.2422 2.29297 19.0307 2.29297 20ZM3.46484 20C3.46484 19.6769 3.72766 19.4141 4.05078 19.4141C4.37391 19.4141 4.63672 19.6769 4.63672 20C4.63672 20.3231 4.37391 20.5859 4.05078 20.5859C3.72766 20.5859 3.46484 20.3231 3.46484 20Z" fill="white"/>
<path d="M4.83973 13.8984C5.3798 14.4385 6.18676 14.5526 6.84004 14.2415L9.04418 16.4456H12.6488V15.2737H9.52957L7.66871 13.4128C7.97988 12.7595 7.86574 11.9526 7.32566 11.4125C6.64027 10.7271 5.52512 10.7271 4.83973 11.4125C4.15434 12.0979 4.15434 13.213 4.83973 13.8984ZM5.66832 12.2412C5.89676 12.0127 6.26848 12.0127 6.49699 12.2412C6.72543 12.4696 6.72543 12.8413 6.49699 13.0698C6.26855 13.2983 5.89684 13.2983 5.66832 13.0698C5.4398 12.8414 5.43988 12.4696 5.66832 12.2412Z" fill="white"/>
<path d="M4.83973 28.5877C5.52512 29.2731 6.64027 29.2731 7.32566 28.5877C7.86574 28.0477 7.97988 27.2407 7.66871 26.5874L9.52957 24.7266H12.6488V23.5547H9.04418L6.84004 25.7588C6.18676 25.4477 5.3798 25.5618 4.83973 26.1019C4.15434 26.7872 4.15434 27.9023 4.83973 28.5877ZM5.66832 26.9305C5.89676 26.702 6.26848 26.702 6.49699 26.9305C6.72543 27.1589 6.72543 27.5306 6.49699 27.7591C6.26855 27.9876 5.89684 27.9876 5.66832 27.7591C5.43988 27.5306 5.43988 27.1589 5.66832 26.9305Z" fill="white"/>
<path d="M35.9492 18.2422C35.1854 18.2422 34.534 18.7321 34.2922 19.4141H27.9761V20.5859H34.2922C34.534 21.2679 35.1854 21.7578 35.9492 21.7578C36.9184 21.7578 37.707 20.9693 37.707 20C37.707 19.0307 36.9185 18.2422 35.9492 18.2422ZM35.9492 20.5859C35.6261 20.5859 35.3633 20.3231 35.3633 20C35.3633 19.6769 35.6261 19.4141 35.9492 19.4141C36.2723 19.4141 36.5351 19.6769 36.5351 20C36.5351 20.3231 36.2723 20.5859 35.9492 20.5859Z" fill="white"/>
<path d="M35.1601 11.4125C34.4747 10.7271 33.3596 10.7271 32.6742 11.4125C32.1341 11.9526 32.02 12.7595 32.3312 13.4128L30.4703 15.2737H27.3511V16.4455H30.9557L33.1598 14.2414C33.8131 14.5526 34.6201 14.4384 35.1601 13.8983C35.8455 13.213 35.8455 12.0979 35.1601 11.4125ZM34.3315 13.0697C34.1031 13.2982 33.7314 13.2982 33.5029 13.0697C33.2744 12.8413 33.2744 12.4696 33.5029 12.2411C33.7313 12.0126 34.103 12.0126 34.3315 12.2411C34.56 12.4696 34.56 12.8413 34.3315 13.0697Z" fill="white"/>
<path d="M35.1601 26.1019C34.6201 25.5618 33.8131 25.4477 33.1598 25.7588L30.9557 23.5547H27.3511V24.7266H30.4703L32.3312 26.5874C32.02 27.2407 32.1341 28.0477 32.6742 28.5877C33.3596 29.2731 34.4747 29.2731 35.1601 28.5877C35.8455 27.9024 35.8455 26.7873 35.1601 26.1019ZM34.3315 27.7591C34.1031 27.9876 33.7314 27.9876 33.5029 27.7591C33.2744 27.5307 33.2744 27.159 33.5029 26.9305C33.7313 26.702 34.103 26.702 34.3315 26.9305C34.5601 27.1589 34.56 27.5307 34.3315 27.7591Z" fill="white"/>
<path d="M11.0156 12.1875V27.8125H20L21.5155 20.0063L20 12.1875H11.0156Z" fill="white"/>
<path d="M20 12.1875H28.9844V27.8125H20V12.1875Z" fill="white"/>
<path d="M23.1584 14.8828H24.3303V24.9604H23.1584V14.8828Z" fill="#2271B6"/>
<path d="M17.8002 14.9453H16.6177L12.9214 24.6509L14.0165 25.068L14.9142 22.711H19.4783L20 24.0934L20.2908 22.7208L20 20.7742L17.8002 14.9453ZM15.3605 21.5392L17.2067 16.6916L19.0362 21.5392H15.3605Z" fill="#2271B6"/>
<path d="M21.4638 24.6534L20 20.7744V24.0936L20.3674 25.0671L21.4638 24.6534Z" fill="#2271B6"/>
</g>
<defs>
<clipPath id="clip0_7186_76248">
<rect width="40" height="40" fill="white"/>
</clipPath>
</defs>
</svg>
