<svg width="14" height="14" viewBox="0 0 14 14" fill="none" xmlns="http://www.w3.org/2000/svg">
<path d="M0.00168471 10.2667C0.00168471 10.7821 0.419561 11.2 0.935012 11.2C1.05192 11.1996 1.16768 11.1769 1.27614 11.1333C1.82774 11.5556 2.60615 11.7759 3.56281 11.7759C3.707 11.7759 3.85682 11.7691 4.0087 11.7593C4.6863 13.1439 5.66397 14 6.76834 14C7.8727 14 8.85037 13.1439 9.5282 11.76C9.68034 11.7698 9.8299 11.7766 9.97409 11.7766C10.9307 11.7766 11.7092 11.5563 12.2608 11.134C12.3692 11.1773 12.4849 11.1997 12.6017 11.2C13.0136 11.1988 13.3761 10.9277 13.4936 10.5328C13.611 10.138 13.4558 9.71282 13.1115 9.48663C13.1441 8.73529 12.8536 7.88268 12.2624 6.99999C12.8536 6.11753 13.1442 5.26492 13.1115 4.51335C13.5149 4.25303 13.6542 3.72869 13.4333 3.30243C13.2125 2.87618 12.7037 2.68771 12.2584 2.86717C11.6244 2.38208 10.6883 2.16718 9.52841 2.24278C8.85133 0.857041 7.8732 0 6.76836 0C5.66351 0 4.68538 0.857041 4.00755 2.24281C2.84812 2.16767 1.91245 2.38279 1.27754 2.8672C0.832546 2.68918 0.325087 2.87792 0.104564 3.30347C-0.11596 3.72901 0.0224442 4.25246 0.424476 4.51337C0.39228 5.26448 0.683005 6.11707 1.27428 7.00001C0.683005 7.8827 0.39228 8.73531 0.425187 9.48665C0.161285 9.6584 0.00198324 9.95181 0.00168471 10.2667ZM0.46836 10.2667C0.46836 10.0089 0.677287 9.79999 0.935035 9.79999C1.19278 9.79999 1.40171 10.0089 1.40171 10.2667C1.40171 10.5244 1.19278 10.7333 0.935035 10.7333C0.811259 10.7333 0.692558 10.6842 0.605042 10.5967C0.517526 10.5091 0.46836 10.3904 0.46836 10.2667ZM4.29713 2.73467C4.91831 2.80905 5.5303 2.94642 6.12367 3.14465C5.70602 3.33105 5.29815 3.53867 4.9017 3.76672C4.50385 3.99634 4.11847 4.2469 3.74716 4.51735C3.86949 3.906 4.05378 3.30868 4.29713 2.73467ZM9.78932 4.51735C9.41813 4.24688 9.03282 3.99629 8.63501 3.76672C8.23914 3.53894 7.83198 3.33132 7.41514 3.14465C8.00791 2.94652 8.61926 2.80917 9.23982 2.73467C9.48303 3.3087 9.66713 3.906 9.78932 4.51735ZM9.23959 11.2654C8.61841 11.191 8.00642 11.0536 7.41305 10.8554C7.8307 10.669 8.23856 10.4614 8.63501 10.2333C9.03286 10.0037 9.41825 9.75312 9.78955 9.48268C9.66722 10.094 9.48296 10.6913 9.23959 11.2654ZM8.4017 4.17107C8.9279 4.4739 9.43092 4.81526 9.90669 5.19237C9.99251 5.79109 10.0354 6.39518 10.035 7.00001C10.0355 7.60484 9.99265 8.20893 9.90692 8.80765C9.43106 9.18474 8.92794 9.52612 8.4017 9.82895C7.87713 10.1324 7.33125 10.3973 6.76836 10.6218C6.20544 10.3972 5.65956 10.1321 5.13502 9.82847C4.60882 9.52564 4.10579 9.18428 3.63002 8.80717C3.45922 7.60812 3.45922 6.39094 3.63002 5.19189C4.10582 4.81496 4.60887 4.47376 5.13502 4.17105C5.66002 3.86742 6.20638 3.60228 6.76976 3.37771C7.33219 3.60239 7.87761 3.86753 8.4017 4.17107ZM10.4317 5.63338C10.8971 6.04537 11.3198 6.50323 11.6933 7.00001C11.3203 7.4967 10.8981 7.95456 10.4333 8.36665C10.4792 7.91256 10.502 7.45642 10.5017 7.00001C10.5019 6.5436 10.4789 6.08747 10.4329 5.63338H10.4317ZM3.10502 8.36665C2.63952 7.95476 2.21682 7.49688 1.84338 7.00001C2.21643 6.50332 2.63855 6.04547 3.10337 5.63338C3.01158 6.54215 3.01158 7.45787 3.10337 8.36665H3.10502ZM4.90308 10.2333C5.29896 10.4611 5.70611 10.6687 6.12295 10.8554C5.53018 11.0535 4.91884 11.1909 4.29828 11.2654C4.055 10.6913 3.8708 10.094 3.74854 9.48268C4.11937 9.75312 4.50429 10.0037 4.90168 10.2333H4.90308ZM6.76836 13.5333C5.89196 13.5333 5.09559 12.8382 4.50828 11.7108C5.2816 11.6012 6.03987 11.4035 6.76836 11.1218C7.49712 11.4037 8.25572 11.6013 9.02935 11.7108C8.4409 12.8382 7.64476 13.5333 6.76836 13.5333ZM12.6017 10.7333C12.344 10.7333 12.135 10.5244 12.135 10.2667C12.135 10.0089 12.344 9.79999 12.6017 9.79999C12.8595 9.79999 13.0684 10.0089 13.0684 10.2667C13.0684 10.5244 12.8594 10.7333 12.6017 10.7333ZM12.6507 9.33823C12.6341 9.33823 12.6185 9.33334 12.6017 9.33334C12.0862 9.33334 11.6684 9.75122 11.6684 10.2667C11.6692 10.4753 11.7407 10.6775 11.8711 10.8404C11.3629 11.1757 10.6211 11.3351 9.73263 11.3017C10.0219 10.579 10.227 9.82532 10.3437 9.05566C10.9472 8.56969 11.4934 8.01654 11.9717 7.40693C12.3657 7.97892 12.6001 8.64557 12.6507 9.33823ZM13.0684 3.73333C13.0684 3.99106 12.8594 4.20001 12.6017 4.20001C12.3439 4.20001 12.135 3.99108 12.135 3.73333C12.135 3.47558 12.3439 3.26666 12.6017 3.26666C12.8594 3.26666 13.0684 3.47561 13.0684 3.73333ZM11.8711 3.15958C11.7407 3.32246 11.6692 3.52468 11.6684 3.73333C11.6684 4.24881 12.0862 4.66666 12.6017 4.66666C12.6185 4.66666 12.6341 4.66269 12.6507 4.66177C12.6001 5.35445 12.3657 6.02112 11.9717 6.59307C11.4933 5.98344 10.9471 5.43028 10.3435 4.94434C10.2266 4.17463 10.0213 3.42095 9.73168 2.69827C10.6209 2.66468 11.3632 2.82334 11.8711 3.15958ZM6.76836 0.466675C7.64476 0.466675 8.44113 1.16177 9.02843 2.28924C8.25551 2.39896 7.49763 2.59654 6.76953 2.87817C6.04077 2.59634 5.28217 2.39875 4.50854 2.28924C5.09582 1.16177 5.89196 0.466675 6.76836 0.466675ZM0.935012 3.26668C1.19274 3.26668 1.40169 3.47561 1.40169 3.73335C1.40169 3.9911 1.19276 4.20003 0.935012 4.20003C0.677264 4.20003 0.468337 3.9911 0.468337 3.73335C0.468337 3.47561 0.677287 3.26668 0.935012 3.26668ZM0.88603 4.66177C0.902587 4.66177 0.918225 4.66666 0.935035 4.66666C1.45051 4.66666 1.86836 4.24878 1.86836 3.73333C1.86749 3.52468 1.79603 3.32244 1.66559 3.15958C2.17355 2.82428 2.91532 2.66514 3.80409 2.69827C3.51481 3.421 3.30975 4.17468 3.193 4.94434C2.58955 5.43028 2.04337 5.98335 1.56503 6.59284C1.17092 6.02101 0.936527 5.35441 0.88603 4.66177ZM1.56503 7.40716C2.0436 8.01661 2.58991 8.56967 3.19346 9.05566C3.31034 9.82544 3.51555 10.5792 3.80503 11.302C2.91697 11.3356 2.17473 11.1757 1.66653 10.8404C1.79662 10.6774 1.86774 10.4752 1.86836 10.2667C1.86836 9.75119 1.45049 9.33334 0.935035 9.33334C0.918225 9.33334 0.90261 9.33754 0.88603 9.33823C0.936619 8.64561 1.17099 7.97904 1.56503 7.40716Z" fill="white"/>
</svg>
