<svg width="40" height="40" viewBox="0 0 40 40" fill="none" xmlns="http://www.w3.org/2000/svg">
<path d="M20 40C31.0457 40 40 31.0457 40 20C40 8.9543 31.0457 0 20 0C8.9543 0 0 8.9543 0 20C0 31.0457 8.9543 40 20 40Z" fill="#2271B6"/>
<path d="M34.5779 11.9918L33.9708 11.3848L32.6275 12.7281L33.2345 13.3352L31.6834 14.8863L28.9844 12.1874L18.5426 22.6293L7.32348 11.4102L6.71559 12.018L6.11238 11.4148L4.76902 12.7582L5.36746 13.3566L4.83277 13.8913L10.7192 19.7777L10.3332 20.1637L9.7498 19.5802L8.83723 20.4928L7.92465 19.5802L7.01996 20.4849L5.28941 18.7544L4.67316 19.3706L3.99668 18.6941L2.65332 20.0375L3.32941 20.7136L2.80449 21.2385L7.2341 25.6681L6.44465 26.4576L5.97996 25.993L4.6366 27.3363L5.36246 28.0622L4.83848 28.5862L15.8117 39.5593C17.1625 39.8471 18.5633 39.9999 20 39.9999C31.0457 39.9999 40 31.0456 40 19.9999C40 18.5632 39.8472 17.1623 39.5593 15.8115L35.1587 11.4109L34.5779 11.9918Z" fill="#2271B6"/>
<path d="M2.29297 20C2.29297 20.9693 3.08156 21.7578 4.05078 21.7578C4.81461 21.7578 5.46594 21.2679 5.70781 20.5859H12.0239V19.4141H5.70781C5.46594 18.7321 4.81461 18.2422 4.05078 18.2422C3.08148 18.2422 2.29297 19.0307 2.29297 20ZM3.46484 20C3.46484 19.6769 3.72766 19.4141 4.05078 19.4141C4.37391 19.4141 4.63672 19.6769 4.63672 20C4.63672 20.3231 4.37391 20.5859 4.05078 20.5859C3.72766 20.5859 3.46484 20.3231 3.46484 20Z" fill="white"/>
<path d="M4.84021 13.8984C5.38029 14.4385 6.18725 14.5526 6.84053 14.2415L9.04467 16.4456H12.6493V15.2737H9.53006L7.6692 13.4128C7.98037 12.7595 7.86623 11.9526 7.32615 11.4125C6.64076 10.7271 5.52561 10.7271 4.84021 11.4125C4.15482 12.0979 4.15482 13.213 4.84021 13.8984ZM5.66881 12.2412C5.89725 12.0127 6.26897 12.0127 6.49748 12.2412C6.72592 12.4696 6.72592 12.8413 6.49748 13.0698C6.26904 13.2983 5.89732 13.2983 5.66881 13.0698C5.44029 12.8414 5.44037 12.4696 5.66881 12.2412Z" fill="white"/>
<path d="M4.84021 28.5875C5.52561 29.2729 6.64076 29.2729 7.32615 28.5875C7.86623 28.0474 7.98037 27.2405 7.6692 26.5872L9.53006 24.7263H12.6493V23.5544H9.04467L6.84053 25.7586C6.18725 25.4474 5.38029 25.5616 4.84021 26.1016C4.15482 26.7869 4.15482 27.9021 4.84021 28.5875ZM5.66881 26.9302C5.89725 26.7018 6.26897 26.7018 6.49748 26.9302C6.72592 27.1587 6.72592 27.5304 6.49748 27.7589C6.26904 27.9873 5.89732 27.9873 5.66881 27.7589C5.44037 27.5304 5.44037 27.1587 5.66881 26.9302Z" fill="white"/>
<path d="M35.9497 18.2422C35.1859 18.2422 34.5345 18.7321 34.2927 19.4141H27.9766V20.5859H34.2927C34.5345 21.2679 35.1859 21.7578 35.9497 21.7578C36.9189 21.7578 37.7075 20.9693 37.7075 20C37.7075 19.0307 36.919 18.2422 35.9497 18.2422ZM35.9497 20.5859C35.6266 20.5859 35.3638 20.3231 35.3638 20C35.3638 19.6769 35.6266 19.4141 35.9497 19.4141C36.2728 19.4141 36.5356 19.6769 36.5356 20C36.5356 20.3231 36.2728 20.5859 35.9497 20.5859Z" fill="white"/>
<path d="M35.1606 11.4125C34.4752 10.7271 33.3601 10.7271 32.6747 11.4125C32.1346 11.9526 32.0205 12.7595 32.3316 13.4128L30.4708 15.2737H27.3516V16.4455H30.9562L33.1603 14.2414C33.8136 14.5526 34.6205 14.4384 35.1606 13.8983C35.846 13.213 35.846 12.0979 35.1606 11.4125ZM34.332 13.0697C34.1036 13.2982 33.7319 13.2982 33.5034 13.0697C33.2749 12.8413 33.2749 12.4696 33.5034 12.2411C33.7318 12.0126 34.1035 12.0126 34.332 12.2411C34.5605 12.4696 34.5605 12.8413 34.332 13.0697Z" fill="white"/>
<path d="M35.1606 26.1016C34.6205 25.5616 33.8136 25.4474 33.1603 25.7586L30.9562 23.5544H27.3516V24.7263H30.4708L32.3316 26.5872C32.0205 27.2405 32.1346 28.0474 32.6747 28.5875C33.3601 29.2729 34.4752 29.2729 35.1606 28.5875C35.846 27.9022 35.846 26.787 35.1606 26.1016ZM34.332 27.7589C34.1036 27.9873 33.7319 27.9873 33.5034 27.7589C33.2749 27.5305 33.2749 27.1587 33.5034 26.9302C33.7318 26.7018 34.1035 26.7018 34.332 26.9302C34.5605 27.1587 34.5605 27.5305 34.332 27.7589Z" fill="white"/>
<path d="M11.0156 12.1875V27.8125H20L21.5155 20.0063L20 12.1875H11.0156Z" fill="white"/>
<path d="M20 12.1875H28.9844V27.8125H20V12.1875Z" fill="white"/>
<path d="M23.1582 14.8831H24.3301V24.9606H23.1582V14.8831Z" fill="#2271B6"/>
<path d="M17.8007 14.9456H16.6182L12.9219 24.6512L14.017 25.0682L14.9147 22.7113H19.4788L20.0005 24.0936L20.2913 22.721L20.0005 20.7745L17.8007 14.9456ZM15.361 21.5395L17.2072 16.6918L19.0366 21.5395H15.361Z" fill="#2271B6"/>
<path d="M21.4638 24.6534L20 20.7744V24.0936L20.3674 25.0671L21.4638 24.6534Z" fill="#2271B6"/>
</svg>
