<svg width="13" height="13" viewBox="0 0 13 13" fill="none" xmlns="http://www.w3.org/2000/svg">
<path d="M6.30469 3.78906V5.41233" stroke="white" stroke-width="0.731201" stroke-miterlimit="10" stroke-linecap="round"/>
<path d="M6.31567 1.625C4.52179 1.625 3.06914 3.07765 3.06914 4.87153V5.89521C3.06914 6.22669 2.93265 6.72391 2.76203 7.00664L2.14295 8.04007C1.76273 8.67865 2.02596 9.39036 2.72791 9.62434C5.05801 10.3994 7.57821 10.3994 9.90831 9.62434C10.5664 9.40498 10.8491 8.63478 10.4933 8.04007L9.87418 7.00664C9.70357 6.72391 9.56708 6.22182 9.56708 5.89521V4.87153C9.56221 3.0874 8.0998 1.625 6.31567 1.625Z" stroke="white" stroke-width="0.731201" stroke-miterlimit="10" stroke-linecap="round"/>
<path d="M7.92622 9.82031C7.92622 10.7124 7.19502 11.4436 6.30295 11.4436C5.85936 11.4436 5.44989 11.2583 5.15741 10.9659C4.86492 10.6734 4.67969 10.2639 4.67969 9.82031" stroke="white" stroke-width="0.731201" stroke-miterlimit="10"/>
</svg>
