<svg width="16" height="16" viewBox="0 0 16 16" fill="none" xmlns="http://www.w3.org/2000/svg">
<path d="M8.0129 1.94043C5.80624 1.94043 4.0129 3.73376 4.0129 5.94043V7.8671C4.0129 8.27376 3.83957 8.89376 3.6329 9.24043L2.86624 10.5138C2.3929 11.3004 2.71957 12.1738 3.58624 12.4671C6.45957 13.4271 9.55957 13.4271 12.4329 12.4671C13.2396 12.2004 13.5929 11.2471 13.1529 10.5138L12.3862 9.24043C12.1862 8.89376 12.0129 8.27376 12.0129 7.8671V5.94043C12.0129 3.74043 10.2129 1.94043 8.0129 1.94043Z" stroke="#292D32" stroke-miterlimit="10" stroke-linecap="round"/>
<path d="M9.24645 2.13395C9.03978 2.07395 8.82645 2.02728 8.60645 2.00061C7.96645 1.92061 7.35312 1.96728 6.77979 2.13395C6.97312 1.64061 7.45312 1.29395 8.01312 1.29395C8.57312 1.29395 9.05312 1.64061 9.24645 2.13395Z" stroke="#292D32" stroke-miterlimit="10" stroke-linecap="round" stroke-linejoin="round"/>
<path d="M10.0132 12.7061C10.0132 13.8061 9.11318 14.7061 8.01318 14.7061C7.46652 14.7061 6.95985 14.4794 6.59985 14.1194C6.23985 13.7594 6.01318 13.2527 6.01318 12.7061" stroke="#292D32" stroke-miterlimit="10"/>
</svg>
