<svg width="90" height="90" viewBox="0 0 90 90" fill="none" xmlns="http://www.w3.org/2000/svg">
<circle cx="45" cy="45" r="45" fill="#2271B6"/>
<path d="M57.2252 35.3979C56.7286 35.0188 56.0025 35.094 55.6034 35.5657L40.2542 53.7115C40.0459 53.9232 39.7643 54.0458 39.4584 54.0575C39.1436 54.0695 38.8454 53.9627 38.6208 53.7599L30.0768 45.9804C29.6168 45.5617 28.8867 45.5764 28.4458 46.0132C28.0049 46.4501 28.0204 47.1438 28.4803 47.5626L37.0277 55.3452C37.6772 55.9316 38.5175 56.25 39.408 56.25C39.4556 56.25 39.5034 56.2491 39.5512 56.2472C40.4944 56.2112 41.3607 55.8235 41.9903 55.1555C42.004 55.141 42.0173 55.1261 42.0302 55.1109L57.4019 36.9384C57.8009 36.4667 57.7218 35.777 57.2252 35.3979Z" fill="white"/>
</svg>
