<svg width="90" height="90" viewBox="0 0 90 90" fill="none" xmlns="http://www.w3.org/2000/svg">
<circle cx="44.9993" cy="44.9993" r="44.9993" fill="#2BC700"/>
<path d="M44.9979 59.3931C46.1507 59.3931 47.0851 58.4587 47.0851 57.3059C47.0851 56.1532 46.1507 55.2188 44.9979 55.2188H44.9968C43.8441 55.2188 42.9102 56.1532 42.9102 57.3059C42.9102 58.4587 43.8451 59.3931 44.9979 59.3931Z" fill="white"/>
<path d="M47.0846 49.9986V34.6575C47.0846 33.5047 46.1501 32.5703 44.9974 32.5703C43.8446 32.5703 42.9102 33.5047 42.9102 34.6575V49.9986C42.9102 51.1513 43.8446 52.0858 44.9974 52.0858C46.1501 52.0858 47.0846 51.1513 47.0846 49.9986Z" fill="white"/>
</svg>
