<svg width="41" height="40" viewBox="0 0 41 40" fill="none" xmlns="http://www.w3.org/2000/svg">
<path d="M35.7501 30.7834L33.0001 31.4334C32.3834 31.5834 31.9001 32.05 31.7667 32.6667L31.1834 35.1167C30.8667 36.45 29.1667 36.8667 28.2834 35.8167L23.3001 30.0834C22.9001 29.6167 23.1167 28.8834 23.7167 28.7334C26.6667 28.0167 29.3167 26.3667 31.2667 24.0167C31.5834 23.6334 32.1501 23.5834 32.5001 23.9334L36.2001 27.6334C37.4667 28.9 37.0167 30.4834 35.7501 30.7834Z" fill="#2271B6"/>
<path d="M4.83328 30.7834L7.58328 31.4334C8.19995 31.5834 8.68328 32.05 8.81661 32.6667L9.39995 35.1167C9.71661 36.45 11.4166 36.8667 12.2999 35.8167L17.2833 30.0834C17.6833 29.6167 17.4666 28.8834 16.8666 28.7334C13.9166 28.0167 11.2666 26.3667 9.31661 24.0167C8.99995 23.6334 8.43328 23.5834 8.08328 23.9334L4.38328 27.6334C3.11661 28.9 3.56661 30.4834 4.83328 30.7834Z" fill="#2271B6"/>
<path d="M20.3327 3.3335C13.8827 3.3335 8.66602 8.55016 8.66602 15.0002C8.66602 17.4168 9.38268 19.6335 10.616 21.4835C12.416 24.1502 15.266 26.0335 18.5827 26.5168C19.1493 26.6168 19.7327 26.6668 20.3327 26.6668C20.9327 26.6668 21.516 26.6168 22.0827 26.5168C25.3993 26.0335 28.2493 24.1502 30.0494 21.4835C31.2827 19.6335 31.9993 17.4168 31.9993 15.0002C31.9993 8.55016 26.7827 3.3335 20.3327 3.3335ZM25.4327 14.6335L24.0493 16.0168C23.816 16.2502 23.6827 16.7002 23.766 17.0335L24.166 18.7502C24.4827 20.1002 23.766 20.6335 22.566 19.9168L20.8994 18.9335C20.5993 18.7502 20.0993 18.7502 19.7993 18.9335L18.1327 19.9168C16.9327 20.6168 16.216 20.1002 16.5327 18.7502L16.9327 17.0335C16.9993 16.7168 16.8827 16.2502 16.6493 16.0168L15.2327 14.6335C14.416 13.8168 14.6827 13.0002 15.816 12.8168L17.5993 12.5168C17.8993 12.4668 18.2493 12.2002 18.3827 11.9335L19.366 9.96683C19.8993 8.90016 20.766 8.90016 21.2993 9.96683L22.2827 11.9335C22.416 12.2002 22.766 12.4668 23.0827 12.5168L24.866 12.8168C25.9827 13.0002 26.2493 13.8168 25.4327 14.6335Z" fill="#2271B6"/>
</svg>
