<svg width="16" height="16" viewBox="0 0 16 16" fill="none" xmlns="http://www.w3.org/2000/svg">
<path fill-rule="evenodd" clip-rule="evenodd" d="M4.23423 5.83798C4.38425 5.688 4.5877 5.60375 4.79983 5.60375C5.01196 5.60375 5.21541 5.688 5.36543 5.83798L7.99983 8.47238L10.6342 5.83798C10.708 5.76157 10.7963 5.70063 10.8939 5.6587C10.9915 5.61677 11.0965 5.5947 11.2027 5.59378C11.3089 5.59286 11.4143 5.6131 11.5126 5.65332C11.6109 5.69355 11.7002 5.75295 11.7753 5.82806C11.8505 5.90318 11.9099 5.9925 11.9501 6.09082C11.9903 6.18913 12.0106 6.29448 12.0096 6.4007C12.0087 6.50693 11.9866 6.6119 11.9447 6.7095C11.9028 6.80711 11.8418 6.89538 11.7654 6.96918L8.56543 10.1692C8.41541 10.3192 8.21196 10.4034 7.99983 10.4034C7.7877 10.4034 7.58425 10.3192 7.43423 10.1692L4.23423 6.96918C4.08425 6.81916 4 6.61571 4 6.40358C4 6.19145 4.08425 5.988 4.23423 5.83798Z" fill="#2271B6"/>
</svg>
