<svg width="16" height="16" viewBox="0 0 16 16" fill="none" xmlns="http://www.w3.org/2000/svg">
<path d="M6.40008 13.3337H9.60008C12.2667 13.3337 13.3334 12.267 13.3334 9.60033V6.40033C13.3334 3.73366 12.2667 2.66699 9.60008 2.66699H6.40008C3.73341 2.66699 2.66675 3.73366 2.66675 6.40033V9.60033C2.66675 12.267 3.73341 13.3337 6.40008 13.3337Z" stroke="#2271B6" stroke-linecap="round" stroke-linejoin="round"/>
<path d="M7.00008 11.3337H9.00008C10.6667 11.3337 11.3334 10.667 11.3334 9.00033V7.00033C11.3334 5.33366 10.6667 4.66699 9.00008 4.66699H7.00008C5.33341 4.66699 4.66675 5.33366 4.66675 7.00033V9.00033C4.66675 10.667 5.33341 11.3337 7.00008 11.3337Z" stroke="#2271B6" stroke-linecap="round" stroke-linejoin="round"/>
<path d="M5.34009 2.66634V1.33301" stroke="#2271B6" stroke-linecap="round" stroke-linejoin="round"/>
<path d="M8 2.66634V1.33301" stroke="#2271B6" stroke-linecap="round" stroke-linejoin="round"/>
<path d="M10.6667 2.66634V1.33301" stroke="#2271B6" stroke-linecap="round" stroke-linejoin="round"/>
<path d="M13.3333 5.33301H14.6666" stroke="#2271B6" stroke-linecap="round" stroke-linejoin="round"/>
<path d="M13.3333 8H14.6666" stroke="#2271B6" stroke-linecap="round" stroke-linejoin="round"/>
<path d="M13.3333 10.667H14.6666" stroke="#2271B6" stroke-linecap="round" stroke-linejoin="round"/>
<path d="M10.6667 13.333V14.6663" stroke="#2271B6" stroke-linecap="round" stroke-linejoin="round"/>
<path d="M8.00659 13.333V14.6663" stroke="#2271B6" stroke-linecap="round" stroke-linejoin="round"/>
<path d="M5.34009 13.333V14.6663" stroke="#2271B6" stroke-linecap="round" stroke-linejoin="round"/>
<path d="M1.33325 5.33301H2.66659" stroke="#2271B6" stroke-linecap="round" stroke-linejoin="round"/>
<path d="M1.33325 8H2.66659" stroke="#2271B6" stroke-linecap="round" stroke-linejoin="round"/>
<path d="M1.33325 10.667H2.66659" stroke="#2271B6" stroke-linecap="round" stroke-linejoin="round"/>
</svg>
