<svg width="24" height="25" viewBox="0 0 24 25" fill="none" xmlns="http://www.w3.org/2000/svg">
<path d="M12.1989 12.3022L10.7889 13.7122C10.0089 14.4922 10.0089 15.7622 10.7889 16.5422C11.5689 17.3222 12.8389 17.3222 13.6189 16.5422L15.8389 14.3222C17.3989 12.7622 17.3989 10.2322 15.8389 8.66219C14.2789 7.10219 11.7489 7.10219 10.1789 8.66219L7.75891 11.0822C6.41891 12.4222 6.41891 14.5922 7.75891 15.9322" stroke="#292D32" stroke-width="1.5" stroke-linecap="round" stroke-linejoin="round"/>
<path d="M9 22.5H15C20 22.5 22 20.5 22 15.5V9.5C22 4.5 20 2.5 15 2.5H9C4 2.5 2 4.5 2 9.5V15.5C2 20.5 4 22.5 9 22.5Z" stroke="#292D32" stroke-width="1.5" stroke-linecap="round" stroke-linejoin="round"/>
</svg>
