<svg width="40" height="40" viewBox="0 0 40 40" fill="none" xmlns="http://www.w3.org/2000/svg">
<path d="M19.9003 3.6837L15.8837 13.0337H11.867C11.2003 13.0337 10.5503 13.0837 9.91699 13.217L11.5837 9.21704L11.6503 9.06704L11.7503 8.80037C11.8003 8.6837 11.8337 8.5837 11.8837 8.50037C13.817 4.01704 15.9837 2.61704 19.9003 3.6837Z" fill="#2271B6"/>
<path d="M31.2169 13.4826L31.1835 13.4659C30.1835 13.1826 29.1669 13.0326 28.1335 13.0326H17.7002L21.4502 4.31589L21.5002 4.19922C21.7335 4.28255 21.9835 4.39922 22.2335 4.48255L25.9169 6.03255C27.9669 6.88255 29.4002 7.76589 30.2835 8.83255C30.4335 9.03255 30.5669 9.21589 30.7002 9.43255C30.8502 9.66589 30.9669 9.89922 31.0335 10.1492C31.1002 10.2992 31.1502 10.4326 31.1835 10.5826C31.4335 11.4326 31.4502 12.3992 31.2169 13.4826Z" fill="#2271B6"/>
<path d="M20.8662 29.4354H21.2829C21.7829 29.4354 22.1995 28.9854 22.1995 28.4354C22.1995 27.7354 21.9995 27.6354 21.5662 27.4687L20.8662 27.2188V29.4354Z" fill="#2271B6"/>
<path d="M30.4834 15.8646C29.7334 15.6479 28.9501 15.5312 28.1334 15.5312H11.8667C10.7334 15.5312 9.66673 15.7479 8.66673 16.1813C5.76673 17.4313 3.7334 20.3146 3.7334 23.6646V26.9146C3.7334 27.3146 3.76673 27.6979 3.81673 28.0979C4.1834 33.3979 7.01673 36.2313 12.3167 36.5813C12.7001 36.6313 13.0834 36.6646 13.5001 36.6646H26.5001C32.6667 36.6646 35.9167 33.7312 36.2334 27.8979C36.2501 27.5813 36.2667 27.2479 36.2667 26.9146V23.6646C36.2667 19.9812 33.8167 16.8813 30.4834 15.8646ZM22.1334 25.8313C22.9001 26.0979 23.9334 26.6646 23.9334 28.4312C23.9334 29.9479 22.7501 31.1646 21.2834 31.1646H20.8667V31.5312C20.8667 32.0146 20.4834 32.3979 20.0001 32.3979C19.5167 32.3979 19.1334 32.0146 19.1334 31.5312V31.1646H18.9834C17.3834 31.1646 16.0667 29.8146 16.0667 28.1479C16.0667 27.6646 16.4501 27.2813 16.9334 27.2813C17.4167 27.2813 17.8001 27.6646 17.8001 28.1479C17.8001 28.8479 18.3334 29.4312 18.9834 29.4312H19.1334V26.6146L17.8667 26.1646C17.1001 25.8979 16.0667 25.3313 16.0667 23.5646C16.0667 22.0479 17.2501 20.8313 18.7167 20.8313H19.1334V20.4646C19.1334 19.9812 19.5167 19.5979 20.0001 19.5979C20.4834 19.5979 20.8667 19.9812 20.8667 20.4646V20.8313H21.0167C22.6167 20.8313 23.9334 22.1813 23.9334 23.8479C23.9334 24.3313 23.5501 24.7146 23.0667 24.7146C22.5834 24.7146 22.2001 24.3313 22.2001 23.8479C22.2001 23.1479 21.6667 22.5646 21.0167 22.5646H20.8667V25.3812L22.1334 25.8313Z" fill="#2271B6"/>
<path d="M17.7998 23.5664C17.7998 24.2664 17.9998 24.3664 18.4331 24.5331L19.1331 24.7831V22.5664H18.7165C18.1998 22.5664 17.7998 23.0164 17.7998 23.5664Z" fill="#2271B6"/>
<g clip-path="url(#clip0_1804_12501)">
<rect width="15.4545" height="17" transform="translate(11 18)" fill="#2271B6"/>
<path d="M22.5906 31.1399C22.5906 31.1399 15.8292 31.1399 14.8633 31.1399C15.007 31.1399 16.7951 30.5604 16.7951 28.8217C16.7951 28.2 16.7951 27.569 16.7951 26.5036M22.0224 23.6058C21.6909 23.0506 20.9273 21.8672 19.3174 21.8672C17.7076 21.8672 16.7951 23.0263 16.7951 24.7649C16.7951 25.095 16.7951 26.0793 16.7951 26.5036M16.7951 26.5036H14.8633M16.7951 26.5036H20.0148" stroke="white" stroke-width="1.28788"/>
</g>
<defs>
<clipPath id="clip0_1804_12501">
<rect width="15.4545" height="17" fill="white" transform="translate(11 18)"/>
</clipPath>
</defs>
</svg>
