<svg width="16" height="16" viewBox="0 0 16 16" fill="none" xmlns="http://www.w3.org/2000/svg">
<path d="M8.0026 1.33398C4.32927 1.33398 1.33594 4.32732 1.33594 8.00065C1.33594 11.674 4.32927 14.6673 8.0026 14.6673C11.6759 14.6673 14.6693 11.674 14.6693 8.00065C14.6693 4.32732 11.6759 1.33398 8.0026 1.33398ZM10.2426 9.53398C10.4359 9.72732 10.4359 10.0473 10.2426 10.2407C10.1426 10.3407 10.0159 10.3873 9.88927 10.3873C9.7626 10.3873 9.63594 10.3407 9.53594 10.2407L8.0026 8.70732L6.46927 10.2407C6.36927 10.3407 6.2426 10.3873 6.11594 10.3873C5.98927 10.3873 5.8626 10.3407 5.7626 10.2407C5.56927 10.0473 5.56927 9.72732 5.7626 9.53398L7.29594 8.00065L5.7626 6.46732C5.56927 6.27398 5.56927 5.95398 5.7626 5.76065C5.95594 5.56732 6.27594 5.56732 6.46927 5.76065L8.0026 7.29398L9.53594 5.76065C9.72927 5.56732 10.0493 5.56732 10.2426 5.76065C10.4359 5.95398 10.4359 6.27398 10.2426 6.46732L8.70927 8.00065L10.2426 9.53398Z" fill="#FD0000"/>
</svg>
