<svg width="20" height="21" viewBox="0 0 20 21" fill="none" xmlns="http://www.w3.org/2000/svg">
<path fill-rule="evenodd" clip-rule="evenodd" d="M7.29279 15.2074C7.10532 15.0199 7 14.7656 7 14.5004C7 14.2352 7.10532 13.9809 7.29279 13.7934L10.5858 10.5004L7.29279 7.20741C7.11063 7.0188 7.00983 6.7662 7.01211 6.50401C7.01439 6.24181 7.11956 5.991 7.30497 5.80559C7.49038 5.62018 7.74119 5.51501 8.00339 5.51273C8.26558 5.51045 8.51818 5.61125 8.70679 5.79341L12.7068 9.79341C12.8943 9.98094 12.9996 10.2352 12.9996 10.5004C12.9996 10.7656 12.8943 11.0199 12.7068 11.2074L8.70679 15.2074C8.51926 15.3949 8.26495 15.5002 7.99979 15.5002C7.73462 15.5002 7.48031 15.3949 7.29279 15.2074Z" fill="#6B7280"/>
</svg>
