<svg width="20" height="21" viewBox="0 0 20 21" fill="none" xmlns="http://www.w3.org/2000/svg">
<path fill-rule="evenodd" clip-rule="evenodd" d="M12.7068 5.79279C12.8943 5.98031 12.9996 6.23462 12.9996 6.49979C12.9996 6.76495 12.8943 7.01926 12.7068 7.20679L9.41379 10.4998L12.7068 13.7928C12.8889 13.9814 12.9897 14.234 12.9875 14.4962C12.9852 14.7584 12.88 15.0092 12.6946 15.1946C12.5092 15.38 12.2584 15.4852 11.9962 15.4875C11.734 15.4897 11.4814 15.3889 11.2928 15.2068L7.29279 11.2068C7.10532 11.0193 7 10.765 7 10.4998C7 10.2346 7.10532 9.98031 7.29279 9.79279L11.2928 5.79279C11.4803 5.60532 11.7346 5.5 11.9998 5.5C12.265 5.5 12.5193 5.60532 12.7068 5.79279Z" fill="#6B7280"/>
</svg>
