<svg width="32" height="37" viewBox="0 0 32 37" fill="none" xmlns="http://www.w3.org/2000/svg">
<path d="M7.6663 25.1665C6.02466 25.1684 4.44006 24.5644 3.21608 23.4704C1.99211 22.3764 1.21483 20.8692 1.03315 19.2377C0.851478 17.6061 1.27819 15.9649 2.23153 14.6284C3.18487 13.2919 4.5978 12.3542 6.19964 11.9949C5.73617 9.83337 6.15034 7.57627 7.35105 5.72013C8.55175 3.86399 10.4406 2.56085 12.6021 2.09738C14.7637 1.63392 17.0207 2.04809 18.8769 3.24879C20.733 4.4495 22.0362 6.33837 22.4996 8.49988H22.6663C24.7329 8.49781 26.7265 9.26368 28.2602 10.6488C29.7939 12.034 30.7581 13.9396 30.9658 15.9957C31.1735 18.0518 30.6098 20.1118 29.3841 21.7757C28.1584 23.4395 26.3582 24.5886 24.333 24.9999M20.9996 20.1665L15.9996 15.1665M15.9996 15.1665L10.9996 20.1665M15.9996 15.1665V35.1665" stroke="#9CA3AF" stroke-width="2" stroke-linecap="round" stroke-linejoin="round"/>
</svg>
