<svg width="40" height="40" viewBox="0 0 40 40" fill="none" xmlns="http://www.w3.org/2000/svg">
<path d="M29.684 9.1526V10.3859L23.784 6.96927C21.5507 5.68594 18.434 5.68594 16.2174 6.96927L10.3174 10.4026V9.1526C10.3174 5.4026 12.3674 3.33594 16.1174 3.33594H23.884C27.634 3.33594 29.684 5.4026 29.684 9.1526Z" fill="#2271B6"/>
<path d="M29.733 13.2818L29.4997 13.1651L27.233 11.8651L22.533 9.14844C21.0997 8.3151 18.8997 8.3151 17.4663 9.14844L12.7663 11.8484L10.4997 13.1818L10.1997 13.3318C7.28301 15.2984 7.08301 15.6651 7.08301 18.8151V26.3484C7.08301 29.4984 7.28301 29.8651 10.2663 31.8818L17.4663 36.0318C18.183 36.4651 19.083 36.6484 19.9997 36.6484C20.8997 36.6484 21.8163 36.4484 22.533 36.0318L29.7997 31.8318C32.733 29.8651 32.9163 29.5151 32.9163 26.3484V18.8151C32.9163 15.6651 32.7163 15.2984 29.733 13.2818ZM24.6497 22.4984L23.633 23.7484C23.4663 23.9318 23.3497 24.2818 23.3663 24.5318L23.4663 26.1318C23.533 27.1151 22.833 27.6151 21.9163 27.2651L20.433 26.6651C20.1997 26.5818 19.8163 26.5818 19.583 26.6651L18.0997 27.2484C17.183 27.6151 16.483 27.0984 16.5497 26.1151L16.6497 24.5151C16.6663 24.2651 16.5497 23.9151 16.383 23.7318L15.3497 22.4984C14.7163 21.7484 14.9997 20.9151 15.9497 20.6651L17.4997 20.2651C17.7497 20.1984 18.033 19.9651 18.1663 19.7651L19.033 18.4318C19.5663 17.5984 20.4163 17.5984 20.9663 18.4318L21.833 19.7651C21.9663 19.9818 22.2663 20.1984 22.4997 20.2651L24.0497 20.6651C24.9997 20.9151 25.283 21.7484 24.6497 22.4984Z" fill="#2271B6"/>
</svg>
