<svg width="23" height="28" viewBox="0 0 23 28" fill="none" xmlns="http://www.w3.org/2000/svg">
<path d="M5.99965 17.4842H16.9667M2.31073 1.00674C1.9601 1.01536 1.62673 1.16073 1.38183 1.4118C1.13693 1.66288 0.999894 1.99975 1 2.35049V25.9383C0.99989 26.2889 1.13683 26.6257 1.38159 26.8767C1.62635 27.1278 1.95954 27.2732 2.31006 27.282H20.6562C21.0126 27.282 21.3544 27.1404 21.6064 26.8884C21.8584 26.6364 22 26.2946 22 25.9383V7.72011H16.6243C16.2736 7.71149 15.9401 7.56602 15.6952 7.3148C15.4503 7.06358 15.3133 6.72654 15.3136 6.37568V1L2.31073 1.00674ZM15.2529 1.00674L21.9663 7.72011L15.2529 1.00674ZM5.99965 13.4186H16.9667H5.99965ZM5.99965 21.5498H16.9667H5.99965Z" stroke="#202020" stroke-linecap="round" stroke-linejoin="round"/>
</svg>
