<svg width="16" height="16" viewBox="0 0 16 16" fill="none" xmlns="http://www.w3.org/2000/svg">
<path d="M9.56521 1.33398H6.43187C5.73854 1.33398 5.17188 1.89398 5.17188 2.58732V3.21398C5.17188 3.90732 5.73188 4.46732 6.42521 4.46732H9.56521C10.2585 4.46732 10.8185 3.90732 10.8185 3.21398V2.58732C10.8252 1.89398 10.2585 1.33398 9.56521 1.33398Z" fill="#2271B6"/>
<path d="M11.4953 3.21234C11.4953 4.27234 10.6286 5.13901 9.56865 5.13901H6.43531C5.37531 5.13901 4.50865 4.27234 4.50865 3.21234C4.50865 2.83901 4.10865 2.60568 3.77531 2.77901C2.83531 3.27901 2.19531 4.27234 2.19531 5.41234V11.6857C2.19531 13.3257 3.53531 14.6657 5.17531 14.6657H10.8286C12.4686 14.6657 13.8086 13.3257 13.8086 11.6857V5.41234C13.8086 4.27234 13.1686 3.27901 12.2286 2.77901C11.8953 2.60568 11.4953 2.83901 11.4953 3.21234ZM8.25531 11.299H5.33531C5.06198 11.299 4.83531 11.0723 4.83531 10.799C4.83531 10.5257 5.06198 10.299 5.33531 10.299H8.25531C8.52865 10.299 8.75531 10.5257 8.75531 10.799C8.75531 11.0723 8.52865 11.299 8.25531 11.299ZM10.002 8.63234H5.33531C5.06198 8.63234 4.83531 8.40568 4.83531 8.13234C4.83531 7.85901 5.06198 7.63234 5.33531 7.63234H10.002C10.2753 7.63234 10.502 7.85901 10.502 8.13234C10.502 8.40568 10.2753 8.63234 10.002 8.63234Z" fill="#2271B6"/>
</svg>
