<svg width="16" height="16" viewBox="0 0 16 16" fill="none" xmlns="http://www.w3.org/2000/svg">
<path d="M9.56521 1.33301H6.43187C5.73854 1.33301 5.17188 1.89301 5.17188 2.58634V3.21301C5.17188 3.90634 5.73188 4.46634 6.42521 4.46634H9.56521C10.2585 4.46634 10.8185 3.90634 10.8185 3.21301V2.58634C10.8252 1.89301 10.2585 1.33301 9.56521 1.33301Z" fill="#B6B000"/>
<path d="M11.4953 3.21332C11.4953 4.27332 10.6286 5.13999 9.56865 5.13999H6.43531C5.37531 5.13999 4.50865 4.27332 4.50865 3.21332C4.50865 2.83999 4.10865 2.60665 3.77531 2.77999C2.83531 3.27999 2.19531 4.27332 2.19531 5.41332V11.6867C2.19531 13.3267 3.53531 14.6667 5.17531 14.6667H10.8286C12.4686 14.6667 13.8086 13.3267 13.8086 11.6867V5.41332C13.8086 4.27332 13.1686 3.27999 12.2286 2.77999C11.8953 2.60665 11.4953 2.83999 11.4953 3.21332ZM8.25531 11.3H5.33531C5.06198 11.3 4.83531 11.0733 4.83531 10.8C4.83531 10.5267 5.06198 10.3 5.33531 10.3H8.25531C8.52865 10.3 8.75531 10.5267 8.75531 10.8C8.75531 11.0733 8.52865 11.3 8.25531 11.3ZM10.002 8.63332H5.33531C5.06198 8.63332 4.83531 8.40665 4.83531 8.13332C4.83531 7.85999 5.06198 7.63332 5.33531 7.63332H10.002C10.2753 7.63332 10.502 7.85999 10.502 8.13332C10.502 8.40665 10.2753 8.63332 10.002 8.63332Z" fill="#B6B000"/>
</svg>
