<svg width="17" height="18" viewBox="0 0 17 18" fill="none" xmlns="http://www.w3.org/2000/svg">
<path d="M14.875 16.0859H2.125C1.83458 16.0859 1.59375 15.8451 1.59375 15.5547C1.59375 15.2643 1.83458 15.0234 2.125 15.0234H14.875C15.1654 15.0234 15.4062 15.2643 15.4062 15.5547C15.4062 15.8451 15.1654 16.0859 14.875 16.0859Z" fill="white"/>
<path d="M13.4727 2.96582C12.0985 1.59166 10.7527 1.55624 9.34307 2.96582L8.48599 3.82291C8.41515 3.89374 8.38682 4.00707 8.41515 4.10624C8.95349 5.98332 10.4552 7.48499 12.3322 8.02332C12.3606 8.03041 12.3889 8.03749 12.4172 8.03749C12.4952 8.03749 12.566 8.00916 12.6227 7.95249L13.4727 7.09541C14.1739 6.40124 14.5139 5.72832 14.5139 5.04832C14.521 4.34707 14.181 3.66707 13.4727 2.96582Z" fill="white"/>
<path d="M11.0569 8.67073C10.8515 8.57156 10.6532 8.4724 10.4619 8.35906C10.3061 8.26698 10.1573 8.16781 10.0086 8.06156C9.88815 7.98365 9.74649 7.87031 9.6119 7.75698C9.59774 7.7499 9.54815 7.7074 9.49149 7.65073C9.25774 7.4524 8.99565 7.1974 8.7619 6.91406C8.74065 6.8999 8.70524 6.85031 8.65565 6.78656C8.58482 6.70156 8.4644 6.5599 8.35815 6.39698C8.27315 6.29073 8.17399 6.1349 8.0819 5.97906C7.96857 5.78781 7.8694 5.59656 7.77024 5.39823C7.64022 5.11961 7.27454 5.03685 7.05713 5.25425L3.07399 9.2374C2.9819 9.32948 2.8969 9.50656 2.87565 9.62698L2.49315 12.3399C2.42232 12.8216 2.5569 13.2749 2.8544 13.5795C3.1094 13.8274 3.46357 13.962 3.84607 13.962C3.93107 13.962 4.01607 13.9549 4.10107 13.9407L6.82107 13.5582C6.94857 13.537 7.12565 13.452 7.21065 13.3599L11.2004 9.37018C11.4134 9.15712 11.3334 8.79053 11.0569 8.67073Z" fill="white"/>
</svg>
