<svg width="40" height="40" viewBox="0 0 40 40" fill="none" xmlns="http://www.w3.org/2000/svg">
<path d="M19.9997 3.33594C15.633 3.33594 12.083 6.88594 12.083 11.2526C12.083 15.5359 15.433 19.0026 19.7997 19.1526C19.933 19.1359 20.0663 19.1359 20.1663 19.1526C20.1997 19.1526 20.2163 19.1526 20.2497 19.1526C20.2663 19.1526 20.2663 19.1526 20.283 19.1526C24.5497 19.0026 27.8997 15.5359 27.9163 11.2526C27.9163 6.88594 24.3663 3.33594 19.9997 3.33594Z" fill="#2271B6"/>
<path d="M28.4666 23.5984C23.8166 20.4984 16.2333 20.4984 11.5499 23.5984C9.43327 24.9984 8.2666 26.9151 8.2666 28.9651C8.2666 31.0151 9.43327 32.9151 11.5333 34.3151C13.8666 35.8818 16.9333 36.6651 19.9999 36.6651C23.0666 36.6651 26.1333 35.8818 28.4666 34.3151C30.5666 32.8984 31.7333 30.9984 31.7333 28.9318C31.7166 26.8984 30.5666 24.9818 28.4666 23.5984ZM23.8833 27.5984L19.6833 31.7984C19.4833 31.9984 19.2166 32.0984 18.9499 32.0984C18.6833 32.0984 18.4166 31.9818 18.2166 31.7984L16.1166 29.6984C15.7166 29.2984 15.7166 28.6318 16.1166 28.2318C16.5166 27.8318 17.1833 27.8318 17.5833 28.2318L18.9499 29.5984L22.4166 26.1318C22.8166 25.7318 23.4833 25.7318 23.8833 26.1318C24.2999 26.5318 24.2999 27.1984 23.8833 27.5984Z" fill="#2271B6"/>
</svg>
