<svg width="40" height="40" viewBox="0 0 40 40" fill="none" xmlns="http://www.w3.org/2000/svg">
<path d="M23.9169 3.33594H16.0836C14.3503 3.33594 12.9336 4.73594 12.9336 6.46927V8.03594C12.9336 9.76927 14.3336 11.1693 16.0669 11.1693H23.9169C25.6503 11.1693 27.0503 9.76927 27.0503 8.03594V6.46927C27.0669 4.73594 25.6503 3.33594 23.9169 3.33594Z" fill="#2271B6"/>
<path d="M28.7334 8.03379C28.7334 10.6838 26.5667 12.8505 23.9167 12.8505H16.0834C13.4334 12.8505 11.2667 10.6838 11.2667 8.03379C11.2667 7.10045 10.2667 6.51712 9.4334 6.95045C7.0834 8.20045 5.4834 10.6838 5.4834 13.5338V29.2171C5.4834 33.3171 8.8334 36.6671 12.9334 36.6671H27.0667C31.1667 36.6671 34.5167 33.3171 34.5167 29.2171V13.5338C34.5167 10.6838 32.9167 8.20045 30.5667 6.95045C29.7334 6.51712 28.7334 7.10045 28.7334 8.03379ZM20.6334 28.2505H13.3334C12.6501 28.2505 12.0834 27.6838 12.0834 27.0005C12.0834 26.3171 12.6501 25.7505 13.3334 25.7505H20.6334C21.3167 25.7505 21.8834 26.3171 21.8834 27.0005C21.8834 27.6838 21.3167 28.2505 20.6334 28.2505ZM25.0001 21.5838H13.3334C12.6501 21.5838 12.0834 21.0171 12.0834 20.3338C12.0834 19.6505 12.6501 19.0838 13.3334 19.0838H25.0001C25.6834 19.0838 26.2501 19.6505 26.2501 20.3338C26.2501 21.0171 25.6834 21.5838 25.0001 21.5838Z" fill="#2271B6"/>
</svg>
