<svg width="40" height="40" viewBox="0 0 40 40" fill="none" xmlns="http://www.w3.org/2000/svg">
<path d="M30 3.33594H10C7.23333 3.33594 5 5.5526 5 8.28594V26.4693C5 29.2026 7.23333 31.4359 10 31.4359H11.2667C12.5833 31.4359 13.8667 31.9526 14.8 32.8859L17.65 35.7026C18.95 36.9859 21.05 36.9859 22.35 35.7026L25.2 32.8859C26.1333 31.9526 27.4167 31.4359 28.7333 31.4359H30C32.7667 31.4359 35 29.2026 35 26.4693V8.28594C35 5.5526 32.7667 3.33594 30 3.33594ZM20 9.2526C21.8 9.2526 23.25 10.7193 23.25 12.5026C23.25 14.2693 21.85 15.6859 20.1167 15.7526C20.05 15.7526 19.95 15.7526 19.8667 15.7526C18.1167 15.6859 16.7333 14.2693 16.7333 12.5026C16.75 10.7193 18.2 9.2526 20 9.2526ZM24.5833 24.4859C22.0667 26.1693 17.9333 26.1693 15.4167 24.4859C13.2 23.0193 13.2 20.5859 15.4167 19.1026C17.95 17.4193 22.0833 17.4193 24.5833 19.1026C26.8 20.5859 26.8 23.0026 24.5833 24.4859Z" fill="#2271B6"/>
</svg>
