                      <svg width="40" height="40" viewBox="0 0 40 40" fill="none" xmlns="http://www.w3.org/2000/svg">
<path d="M36.6663 17.9167C37.3497 17.9167 37.9163 17.35 37.9163 16.6667V15C37.9163 7.65001 35.683 5.41667 28.333 5.41667H17.9163V9.16667C17.9163 9.85001 17.3497 10.4167 16.6663 10.4167C15.983 10.4167 15.4163 9.85001 15.4163 9.16667V5.41667H11.6663C4.31634 5.41667 2.08301 7.65001 2.08301 15V15.8333C2.08301 16.5167 2.64967 17.0833 3.33301 17.0833C4.93301 17.0833 6.24967 18.4 6.24967 20C6.24967 21.6 4.93301 22.9167 3.33301 22.9167C2.64967 22.9167 2.08301 23.4833 2.08301 24.1667V25C2.08301 32.35 4.31634 34.5833 11.6663 34.5833H15.4163V30.8333C15.4163 30.15 15.983 29.5833 16.6663 29.5833C17.3497 29.5833 17.9163 30.15 17.9163 30.8333V34.5833H28.333C35.683 34.5833 37.9163 32.35 37.9163 25C37.9163 24.3167 37.3497 23.75 36.6663 23.75C35.0663 23.75 33.7497 22.4333 33.7497 20.8333C33.7497 19.2333 35.0663 17.9167 36.6663 17.9167ZM17.9163 23.6167C17.9163 24.3 17.3497 24.8667 16.6663 24.8667C15.983 24.8667 15.4163 24.3 15.4163 23.6167V16.3833C15.4163 15.7 15.983 15.1333 16.6663 15.1333C17.3497 15.1333 17.9163 15.7 17.9163 16.3833V23.6167Z" fill="#2271B6"/>
</svg>
