<svg width="40" height="40" viewBox="0 0 40 40" fill="none" xmlns="http://www.w3.org/2000/svg">
<path d="M36.6666 36.6665H3.33325C2.64992 36.6665 2.08325 36.0998 2.08325 35.4165C2.08325 34.7332 2.64992 34.1665 3.33325 34.1665H36.6666C37.3499 34.1665 37.9166 34.7332 37.9166 35.4165C37.9166 36.0998 37.3499 36.6665 36.6666 36.6665Z" fill="#2271B6"/>
<path d="M16.25 6.66683V36.6668H23.75V6.66683C23.75 4.8335 23 3.3335 20.75 3.3335H19.25C17 3.3335 16.25 4.8335 16.25 6.66683Z" fill="#2271B6"/>
<path d="M5 16.6668V36.6668H11.6667V16.6668C11.6667 14.8335 11 13.3335 9 13.3335H7.66667C5.66667 13.3335 5 14.8335 5 16.6668Z" fill="#2271B6"/>
<path d="M28.3333 24.9998V36.6665H34.9999V24.9998C34.9999 23.1665 34.3333 21.6665 32.3333 21.6665H30.9999C28.9999 21.6665 28.3333 23.1665 28.3333 24.9998Z" fill="#2271B6"/>
</svg>
