<svg width="16" height="16" viewBox="0 0 16 16" fill="none" xmlns="http://www.w3.org/2000/svg">
<path d="M7.97917 1.33301C4.29917 1.33301 1.3125 4.31967 1.3125 7.99967C1.3125 11.6797 4.29917 14.6663 7.97917 14.6663C11.6592 14.6663 14.6458 11.6797 14.6458 7.99967C14.6458 4.31967 11.6658 1.33301 7.97917 1.33301ZM7.14583 10.0197C7.14583 10.3397 7.0125 10.4663 6.6725 10.4663H5.80583C5.46583 10.4663 5.3325 10.3397 5.3325 10.0197V5.97967C5.3325 5.65967 5.46583 5.53301 5.80583 5.53301H6.66583C7.00583 5.53301 7.13917 5.65967 7.13917 5.97967V10.0197H7.14583ZM10.6658 10.0197C10.6658 10.3397 10.5325 10.4663 10.1925 10.4663H9.3325C8.9925 10.4663 8.85917 10.3397 8.85917 10.0197V5.97967C8.85917 5.65967 8.9925 5.53301 9.3325 5.53301H10.1925C10.5325 5.53301 10.6658 5.65967 10.6658 5.97967V10.0197Z" fill="#FD0000"/>
</svg>
