<svg width="17" height="18" viewBox="0 0 17 18" fill="none" xmlns="http://www.w3.org/2000/svg">
<path d="M8.50065 16.0859C12.4036 16.0859 15.584 12.9055 15.584 9.0026C15.584 5.09969 12.4036 1.91927 8.50065 1.91927C4.59773 1.91927 1.41732 5.09969 1.41732 9.0026C1.41732 12.9055 4.59773 16.0859 8.50065 16.0859ZM9.0319 11.8359C9.0319 12.1264 8.79107 12.3672 8.50065 12.3672C8.21023 12.3672 7.9694 12.1264 7.9694 11.8359V8.29427C7.9694 8.00385 8.21023 7.76302 8.50065 7.76302C8.79107 7.76302 9.0319 8.00385 9.0319 8.29427V11.8359ZM7.84898 5.9001C7.8844 5.80802 7.93398 5.73719 7.99773 5.66635C8.06857 5.6026 8.14648 5.55302 8.23148 5.5176C8.31648 5.48219 8.40857 5.46094 8.50065 5.46094C8.59273 5.46094 8.68482 5.48219 8.76982 5.5176C8.85482 5.55302 8.93273 5.6026 9.00357 5.66635C9.06732 5.73719 9.1169 5.80802 9.15232 5.9001C9.18773 5.9851 9.20898 6.07719 9.20898 6.16927C9.20898 6.26135 9.18773 6.35344 9.15232 6.43844C9.1169 6.52344 9.06732 6.60135 9.00357 6.67219C8.93273 6.73594 8.85482 6.78552 8.76982 6.82094C8.59982 6.89177 8.40148 6.89177 8.23148 6.82094C8.14648 6.78552 8.06857 6.73594 7.99773 6.67219C7.93398 6.60135 7.8844 6.52344 7.84898 6.43844C7.81357 6.35344 7.79232 6.26135 7.79232 6.16927C7.79232 6.07719 7.81357 5.9851 7.84898 5.9001Z" fill="white"/>
</svg>
