<svg width="24" height="24" viewBox="0 0 24 24" fill="none" xmlns="http://www.w3.org/2000/svg">
<path d="M2.44012 13.26L3.79012 14.84C4.04012 15.14 4.25012 15.7 4.25012 16.1V17.8C4.25012 18.86 5.12012 19.73 6.18012 19.73H7.88012C8.28012 19.73 8.85012 19.94 9.15012 20.19L10.7301 21.54C11.4201 22.13 12.5501 22.13 13.2401 21.54L14.8401 20.19C15.1401 19.94 15.7001 19.73 16.1001 19.73H17.8301C18.8901 19.73 19.7601 18.86 19.7601 17.8V16.1C19.7601 15.71 19.9601 15.15 20.2101 14.85L21.5601 13.26C22.1401 12.56 22.1401 11.44 21.5601 10.76L20.2101 9.17004C19.9601 8.88004 19.7601 8.31004 19.7601 7.92004V6.21004C19.7601 5.15004 18.8901 4.28004 17.8301 4.28004H16.0901C15.7001 4.28004 15.1301 4.07004 14.8301 3.82004L13.2501 2.47004C12.5601 1.88004 11.4301 1.88004 10.7401 2.47004L9.16012 3.82004C8.86012 4.07004 8.30012 4.28004 7.90012 4.28004H6.20012C5.14012 4.28004 4.27012 5.15004 4.27012 6.21004V7.91004C4.27012 8.31004 4.06012 8.87004 3.81012 9.17004L2.46012 10.75C1.85011 11.43 1.85012 12.56 2.44012 13.26ZM12.7501 15.87C12.7501 16.28 12.4101 16.62 12.0001 16.62C11.5901 16.62 11.2501 16.28 11.2501 15.87V11.04C11.2501 10.63 11.5901 10.29 12.0001 10.29C12.4101 10.29 12.7501 10.63 12.7501 11.04V15.87ZM12.0001 7.13004C12.5501 7.13004 13.0001 7.58004 13.0001 8.13004C13.0001 8.68004 12.5601 9.13004 12.0001 9.13004C11.4501 9.13004 11.0001 8.68004 11.0001 8.13004C11.0001 7.58004 11.4401 7.13004 12.0001 7.13004Z" fill="#292D32"/>
</svg>
