<svg width="45" height="45" viewBox="0 0 45 45" fill="none" xmlns="http://www.w3.org/2000/svg">
<path d="M36.5809 10.9688L25.4434 4.5375C23.6246 3.4875 21.3746 3.4875 19.5371 4.5375L8.41836 10.9688C6.59961 12.0188 5.47461 13.9688 5.47461 16.0875V28.9125C5.47461 31.0125 6.59961 32.9625 8.41836 34.0312L19.5559 40.4625C21.3746 41.5125 23.6246 41.5125 25.4621 40.4625L36.5996 34.0312C38.4184 32.9812 39.5434 31.0312 39.5434 28.9125V16.0875C39.5246 13.9688 38.3996 12.0375 36.5809 10.9688ZM21.0934 14.5312C21.0934 13.7625 21.7309 13.125 22.4996 13.125C23.2684 13.125 23.9059 13.7625 23.9059 14.5312V24.375C23.9059 25.1437 23.2684 25.7812 22.4996 25.7812C21.7309 25.7812 21.0934 25.1437 21.0934 24.375V14.5312ZM24.2246 31.1812C24.1309 31.4062 23.9996 31.6125 23.8309 31.8C23.4746 32.1562 23.0059 32.3438 22.4996 32.3438C22.2559 32.3438 22.0121 32.2875 21.7871 32.1938C21.5434 32.1 21.3559 31.9687 21.1684 31.8C20.9996 31.6125 20.8684 31.4062 20.7559 31.1812C20.6621 30.9562 20.6246 30.7125 20.6246 30.4688C20.6246 29.9813 20.8121 29.4937 21.1684 29.1375C21.3559 28.9688 21.5434 28.8375 21.7871 28.7437C22.4809 28.4438 23.3059 28.6125 23.8309 29.1375C23.9996 29.325 24.1309 29.5125 24.2246 29.7563C24.3184 29.9812 24.3746 30.225 24.3746 30.4688C24.3746 30.7125 24.3184 30.9562 24.2246 31.1812Z" fill="#2271B6"/>
</svg>
