<svg width="17" height="17" viewBox="0 0 17 17" fill="none" xmlns="http://www.w3.org/2000/svg">
<path d="M8.50065 15.583C12.4036 15.583 15.584 12.4026 15.584 8.49967C15.584 4.59676 12.4036 1.41634 8.50065 1.41634C4.59773 1.41634 1.41732 4.59676 1.41732 8.49967C1.41732 12.4026 4.59773 15.583 8.50065 15.583ZM9.0319 11.333C9.0319 11.6234 8.79107 11.8643 8.50065 11.8643C8.21023 11.8643 7.9694 11.6234 7.9694 11.333V7.79134C7.9694 7.50092 8.21023 7.26009 8.50065 7.26009C8.79107 7.26009 9.0319 7.50092 9.0319 7.79134V11.333ZM7.84898 5.39717C7.8844 5.30509 7.93398 5.23426 7.99773 5.16342C8.06857 5.09967 8.14648 5.05009 8.23148 5.01467C8.31648 4.97926 8.40857 4.95801 8.50065 4.95801C8.59273 4.95801 8.68482 4.97926 8.76982 5.01467C8.85482 5.05009 8.93273 5.09967 9.00357 5.16342C9.06732 5.23426 9.1169 5.30509 9.15232 5.39717C9.18773 5.48217 9.20898 5.57426 9.20898 5.66634C9.20898 5.75842 9.18773 5.85051 9.15232 5.93551C9.1169 6.02051 9.06732 6.09842 9.00357 6.16926C8.93273 6.23301 8.85482 6.28259 8.76982 6.31801C8.59982 6.38884 8.40148 6.38884 8.23148 6.31801C8.14648 6.28259 8.06857 6.23301 7.99773 6.16926C7.93398 6.09842 7.8844 6.02051 7.84898 5.93551C7.81357 5.85051 7.79232 5.75842 7.79232 5.66634C7.79232 5.57426 7.81357 5.48217 7.84898 5.39717Z" fill="#989898"/>
</svg>
