<svg width="17" height="17" viewBox="0 0 17 17" fill="none" xmlns="http://www.w3.org/2000/svg">
<path d="M8.50065 15.5859C12.4036 15.5859 15.584 12.4055 15.584 8.5026C15.584 4.59969 12.4036 1.41927 8.50065 1.41927C4.59773 1.41927 1.41732 4.59969 1.41732 8.5026C1.41732 12.4055 4.59773 15.5859 8.50065 15.5859ZM9.0319 11.3359C9.0319 11.6264 8.79107 11.8672 8.50065 11.8672C8.21023 11.8672 7.9694 11.6264 7.9694 11.3359V7.79427C7.9694 7.50385 8.21023 7.26302 8.50065 7.26302C8.79107 7.26302 9.0319 7.50385 9.0319 7.79427V11.3359ZM7.84898 5.4001C7.8844 5.30802 7.93398 5.23719 7.99773 5.16635C8.06857 5.1026 8.14648 5.05302 8.23148 5.0176C8.31648 4.98219 8.40857 4.96094 8.50065 4.96094C8.59273 4.96094 8.68482 4.98219 8.76982 5.0176C8.85482 5.05302 8.93273 5.1026 9.00357 5.16635C9.06732 5.23719 9.1169 5.30802 9.15232 5.4001C9.18773 5.4851 9.20898 5.57719 9.20898 5.66927C9.20898 5.76135 9.18773 5.85344 9.15232 5.93844C9.1169 6.02344 9.06732 6.10135 9.00357 6.17219C8.93273 6.23594 8.85482 6.28552 8.76982 6.32094C8.59982 6.39177 8.40148 6.39177 8.23148 6.32094C8.14648 6.28552 8.06857 6.23594 7.99773 6.17219C7.93398 6.10135 7.8844 6.02344 7.84898 5.93844C7.81357 5.85344 7.79232 5.76135 7.79232 5.66927C7.79232 5.57719 7.81357 5.4851 7.84898 5.4001Z" fill="#989898"/>
</svg>
