<svg width="15" height="16" viewBox="0 0 20 21" fill="none" xmlns="http://www.w3.org/2000/svg">
<path d="M13.491 2.16797H6.50768C3.47435 2.16797 1.66602 3.9763 1.66602 7.00964V13.9846C1.66602 17.0263 3.47435 18.8346 6.50768 18.8346H13.4827C16.516 18.8346 18.3243 17.0263 18.3243 13.993V7.00964C18.3327 3.9763 16.5243 2.16797 13.491 2.16797ZM9.99935 15.7096C8.50768 15.7096 7.34102 14.968 6.54935 14.2346V14.8263C6.54935 15.168 6.26602 15.4513 5.92435 15.4513C5.58268 15.4513 5.29935 15.168 5.29935 14.8263V12.5346C5.29935 12.193 5.58268 11.9096 5.92435 11.9096H7.99102C8.33268 11.9096 8.61602 12.193 8.61602 12.5346C8.61602 12.8763 8.33268 13.1596 7.99102 13.1596H7.24101C7.85768 13.7763 8.81602 14.4596 9.99935 14.4596C12.1827 14.4596 13.9577 12.6846 13.9577 10.5013C13.9577 10.1596 14.241 9.8763 14.5827 9.8763C14.9243 9.8763 15.2077 10.1596 15.2077 10.5013C15.2077 13.3763 12.8743 15.7096 9.99935 15.7096ZM15.2077 8.4513C15.2077 8.4763 15.2077 8.5013 15.2077 8.51797C15.1993 8.60964 15.1743 8.69297 15.1327 8.76797C15.091 8.84297 15.0327 8.90964 14.9577 8.96797C14.8993 9.00964 14.8327 9.04297 14.7577 9.06797C14.6993 9.08464 14.641 9.09297 14.5827 9.09297H12.5577C12.216 9.09297 11.9327 8.80964 11.9327 8.46797C11.9327 8.1263 12.216 7.84297 12.5577 7.84297H13.2493C12.5827 7.2263 11.5077 6.54297 10.016 6.54297C7.83268 6.54297 6.05768 8.31797 6.05768 10.5013C6.05768 10.843 5.77435 11.1263 5.43268 11.1263C5.09102 11.1263 4.79102 10.843 4.79102 10.5013C4.79102 7.6263 7.12435 5.29297 9.99935 5.29297C11.791 5.29297 13.1077 6.06797 13.9577 6.80964V6.1763C13.9577 5.83464 14.241 5.5513 14.5827 5.5513C14.9243 5.5513 15.2077 5.83464 15.2077 6.1763V8.4513Z" fill="#2271B6"/>
</svg>
