<svg width="40" height="40" viewBox="0 0 40 40" fill="none" xmlns="http://www.w3.org/2000/svg">
<path d="M27.9184 5.93203V3.33203C27.9184 2.6487 27.3517 2.08203 26.6684 2.08203C25.985 2.08203 25.4184 2.6487 25.4184 3.33203V5.83203H14.585V3.33203C14.585 2.6487 14.0184 2.08203 13.335 2.08203C12.6517 2.08203 12.085 2.6487 12.085 3.33203V5.93203C7.58502 6.3487 5.40168 9.03203 5.06835 13.0154C5.03502 13.4987 5.43502 13.8987 5.90168 13.8987H34.1017C34.585 13.8987 34.985 13.482 34.935 13.0154C34.6017 9.03203 32.4184 6.3487 27.9184 5.93203Z" fill="#2271B6"/>
<path d="M31.6667 25C27.9833 25 25 27.9833 25 31.6667C25 32.9167 25.35 34.1 25.9667 35.1C27.1167 37.0333 29.2333 38.3333 31.6667 38.3333C34.1 38.3333 36.2167 37.0333 37.3667 35.1C37.9833 34.1 38.3333 32.9167 38.3333 31.6667C38.3333 27.9833 35.35 25 31.6667 25ZM35.1167 30.95L31.5667 34.2333C31.3333 34.45 31.0167 34.5667 30.7167 34.5667C30.4 34.5667 30.0833 34.45 29.8333 34.2L28.1833 32.55C27.7 32.0667 27.7 31.2667 28.1833 30.7833C28.6667 30.3 29.4667 30.3 29.95 30.7833L30.75 31.5833L33.4167 29.1167C33.9167 28.65 34.7167 28.6833 35.1833 29.1833C35.65 29.6833 35.6167 30.4667 35.1167 30.95Z" fill="#2271B6"/>
<path d="M33.3333 16.3984H6.66667C5.75 16.3984 5 17.1484 5 18.0651V28.3318C5 33.3318 7.5 36.6651 13.3333 36.6651H21.55C22.7 36.6651 23.5 35.5484 23.1333 34.4651C22.8 33.4984 22.5167 32.4318 22.5167 31.6651C22.5167 26.6151 26.6333 22.4984 31.6833 22.4984C32.1667 22.4984 32.65 22.5318 33.1167 22.6151C34.1167 22.7651 35.0167 21.9818 35.0167 20.9818V18.0818C35 17.1484 34.25 16.3984 33.3333 16.3984ZM15.35 30.3484C15.0333 30.6484 14.6 30.8318 14.1667 30.8318C13.7333 30.8318 13.3 30.6484 12.9833 30.3484C12.6833 30.0318 12.5 29.5984 12.5 29.1651C12.5 28.7318 12.6833 28.2984 12.9833 27.9818C13.15 27.8318 13.3167 27.7151 13.5333 27.6318C14.15 27.3651 14.8833 27.5151 15.35 27.9818C15.65 28.2984 15.8333 28.7318 15.8333 29.1651C15.8333 29.5984 15.65 30.0318 15.35 30.3484ZM15.35 24.5151C15.2667 24.5818 15.1833 24.6484 15.1 24.7151C15 24.7818 14.9 24.8318 14.8 24.8651C14.7 24.9151 14.6 24.9484 14.5 24.9651C14.3833 24.9818 14.2667 24.9984 14.1667 24.9984C13.7333 24.9984 13.3 24.8151 12.9833 24.5151C12.6833 24.1984 12.5 23.7651 12.5 23.3318C12.5 22.8984 12.6833 22.4651 12.9833 22.1484C13.3667 21.7651 13.95 21.5818 14.5 21.6984C14.6 21.7151 14.7 21.7484 14.8 21.7984C14.9 21.8318 15 21.8818 15.1 21.9484C15.1833 22.0151 15.2667 22.0818 15.35 22.1484C15.65 22.4651 15.8333 22.8984 15.8333 23.3318C15.8333 23.7651 15.65 24.1984 15.35 24.5151ZM21.1833 24.5151C20.8667 24.8151 20.4333 24.9984 20 24.9984C19.5667 24.9984 19.1333 24.8151 18.8167 24.5151C18.5167 24.1984 18.3333 23.7651 18.3333 23.3318C18.3333 22.8984 18.5167 22.4651 18.8167 22.1484C19.45 21.5318 20.5667 21.5318 21.1833 22.1484C21.4833 22.4651 21.6667 22.8984 21.6667 23.3318C21.6667 23.7651 21.4833 24.1984 21.1833 24.5151Z" fill="#2271B6"/>
</svg>
