<svg width="24" height="20" viewBox="0 0 24 20" fill="none" xmlns="http://www.w3.org/2000/svg">
<path d="M0.28125 19.471C0.206658 19.471 0.135121 19.4414 0.0823762 19.3886C0.0296316 19.3359 0 19.2643 0 19.1898V0.28125C1.11151e-09 0.206658 0.0296316 0.135121 0.0823762 0.0823762C0.135121 0.0296316 0.206658 0 0.28125 0C0.355842 0 0.427379 0.0296316 0.480124 0.0823762C0.532868 0.135121 0.5625 0.206658 0.5625 0.28125V19.1898C0.5625 19.2643 0.532868 19.3359 0.480124 19.3886C0.427379 19.4414 0.355842 19.471 0.28125 19.471Z" fill="black"/>
<path d="M23.25 19.4707H0.28125C0.206658 19.4707 0.135121 19.4411 0.0823762 19.3883C0.0296316 19.3356 0 19.264 0 19.1895C0 19.1149 0.0296316 19.0433 0.0823762 18.9906C0.135121 18.9378 0.206658 18.9082 0.28125 18.9082H23.25C23.3246 18.9082 23.3962 18.9378 23.4489 18.9906C23.5016 19.0433 23.5313 19.1149 23.5313 19.1895C23.5313 19.264 23.5016 19.3356 23.4489 19.3883C23.3962 19.4411 23.3246 19.4707 23.25 19.4707Z" fill="black"/>
<path d="M3.42956 14.788C3.38382 14.7879 3.33879 14.7767 3.29836 14.7554C3.25793 14.734 3.22331 14.7031 3.19751 14.6653C3.17171 14.6276 3.1555 14.5841 3.15028 14.5387C3.14506 14.4932 3.15099 14.4472 3.16756 14.4046L4.79178 10.2341C4.80496 10.1994 4.82489 10.1677 4.85041 10.1407C4.87593 10.1137 4.90654 10.0921 4.94047 10.077C4.97441 10.0619 5.01099 10.0537 5.04811 10.0528C5.08523 10.0519 5.12216 10.0584 5.15676 10.0719C5.19136 10.0854 5.22296 10.1056 5.24971 10.1313C5.27647 10.1571 5.29786 10.1879 5.31266 10.2219C5.32746 10.256 5.33536 10.2926 5.33592 10.3298C5.33648 10.3669 5.32968 10.4038 5.31591 10.4382L3.69169 14.6087C3.67114 14.6615 3.63511 14.7069 3.58834 14.7389C3.54156 14.7709 3.48622 14.788 3.42956 14.788Z" fill="black"/>
<path d="M9.08576 12.5556C9.03303 12.5555 8.98138 12.5407 8.93669 12.5127C8.89201 12.4847 8.85608 12.4447 8.83302 12.3973C8.80996 12.3499 8.80069 12.297 8.80627 12.2446C8.81184 12.1921 8.83204 12.1423 8.86456 12.1008L12.5312 7.42222C12.5539 7.39315 12.5822 7.36885 12.6144 7.35071C12.6466 7.33257 12.682 7.32095 12.7187 7.3165C12.7553 7.31205 12.7925 7.31487 12.8281 7.32479C12.8637 7.33472 12.897 7.35155 12.926 7.37434C12.9551 7.39712 12.9794 7.42541 12.9975 7.45758C13.0157 7.48975 13.0273 7.52519 13.0317 7.56185C13.0362 7.59852 13.0334 7.6357 13.0235 7.67128C13.0135 7.70686 12.9967 7.74013 12.9739 7.7692L9.30731 12.4478C9.281 12.4814 9.24738 12.5086 9.20899 12.5273C9.17059 12.546 9.12845 12.5556 9.08576 12.5556Z" fill="black"/>
<path d="M17.1404 10.5119C17.0883 10.5119 17.0372 10.4974 16.9929 10.47C16.9486 10.4426 16.9127 10.4035 16.8893 10.357C16.8659 10.3104 16.8559 10.2583 16.8604 10.2064C16.8649 10.1545 16.8837 10.1049 16.9148 10.063L19.7127 6.29333C19.7572 6.23343 19.8236 6.19364 19.8974 6.18272C19.9712 6.1718 20.0463 6.19064 20.1062 6.2351C20.1661 6.27956 20.2059 6.34599 20.2168 6.41979C20.2278 6.49358 20.2089 6.56869 20.1645 6.62859L17.3665 10.3983C17.3403 10.4336 17.3062 10.4623 17.267 10.482C17.2277 10.5017 17.1843 10.512 17.1404 10.5119Z" fill="black"/>
<path d="M15.8587 10.2313C15.8101 10.2314 15.7623 10.2188 15.72 10.1949C15.6777 10.171 15.6423 10.1365 15.6173 10.0948L14.2191 7.76655C14.1811 7.70263 14.1701 7.62629 14.1882 7.55422C14.2064 7.48215 14.2524 7.42021 14.3161 7.38194C14.3799 7.34367 14.4561 7.33218 14.5283 7.34998C14.6005 7.36779 14.6626 7.41343 14.7013 7.47694L16.0995 9.80523C16.1251 9.84789 16.139 9.89657 16.1396 9.94632C16.1403 9.99607 16.1277 10.0451 16.1032 10.0884C16.0788 10.1317 16.0432 10.1678 16.0003 10.1929C15.9573 10.218 15.9085 10.2312 15.8587 10.2313Z" fill="black"/>
<path d="M7.35766 12.8684C7.31121 12.8684 7.26547 12.8569 7.22454 12.835C7.18361 12.813 7.14875 12.7813 7.1231 12.7425L5.46 10.4544C5.43828 10.4246 5.42266 10.3907 5.41403 10.3548C5.4054 10.3189 5.40393 10.2816 5.4097 10.2451C5.41547 10.2086 5.42837 10.1737 5.44767 10.1422C5.46696 10.1107 5.49226 10.0833 5.52214 10.0616C5.55202 10.0398 5.58588 10.0242 5.62179 10.0156C5.65771 10.007 5.69497 10.0055 5.73145 10.0113C5.76793 10.017 5.80292 10.0299 5.83441 10.0492C5.86591 10.0685 5.8933 10.0938 5.91501 10.1237L7.58517 12.4215C7.61567 12.4635 7.63397 12.5131 7.63804 12.5648C7.64212 12.6165 7.63182 12.6684 7.60828 12.7146C7.58474 12.7609 7.54887 12.7997 7.50464 12.8268C7.46042 12.854 7.40954 12.8683 7.35766 12.8684Z" fill="black"/>
<path d="M2.78906 16.7109C3.44922 16.7109 3.98438 16.1758 3.98438 15.5156C3.98438 14.8555 3.44922 14.3203 2.78906 14.3203C2.12891 14.3203 1.59375 14.8555 1.59375 15.5156C1.59375 16.1758 2.12891 16.7109 2.78906 16.7109Z" fill="black"/>
<path d="M5.28906 10.3594C5.94922 10.3594 6.48438 9.82422 6.48438 9.16406C6.48438 8.50391 5.94922 7.96875 5.28906 7.96875C4.62891 7.96875 4.09375 8.50391 4.09375 9.16406C4.09375 9.82422 4.62891 10.3594 5.28906 10.3594Z" fill="black"/>
<path d="M8.36719 14.4258C9.02734 14.4258 9.5625 13.8906 9.5625 13.2305C9.5625 12.5703 9.02734 12.0352 8.36719 12.0352C7.70703 12.0352 7.17188 12.5703 7.17188 13.2305C7.17188 13.8906 7.70703 14.4258 8.36719 14.4258Z" fill="black"/>
<path d="M13.6172 7.96875C14.2773 7.96875 14.8125 7.43359 14.8125 6.77344C14.8125 6.11328 14.2773 5.57812 13.6172 5.57812C12.957 5.57812 12.4219 6.11328 12.4219 6.77344C12.4219 7.43359 12.957 7.96875 13.6172 7.96875Z" fill="black"/>
<path d="M20.7422 6.77344C21.4023 6.77344 21.9375 6.23828 21.9375 5.57812C21.9375 4.91797 21.4023 4.38281 20.7422 4.38281C20.082 4.38281 19.5469 4.91797 19.5469 5.57812C19.5469 6.23828 20.082 6.77344 20.7422 6.77344Z" fill="black"/>
<path d="M16.2812 12.2617C16.9414 12.2617 17.4766 11.7266 17.4766 11.0664C17.4766 10.4063 16.9414 9.87109 16.2812 9.87109C15.6211 9.87109 15.0859 10.4063 15.0859 11.0664C15.0859 11.7266 15.6211 12.2617 16.2812 12.2617Z" fill="black"/>
</svg>
