<svg width="33" height="16" viewBox="0 0 33 16" fill="none" xmlns="http://www.w3.org/2000/svg">
<path fill-rule="evenodd" clip-rule="evenodd" d="M12.7305 14.2896H20.1151V1.71045H12.7305V14.2896Z" fill="#FF5F00"/>
<path fill-rule="evenodd" clip-rule="evenodd" d="M13.3724 8C13.3724 5.448 14.5654 3.17533 16.4231 1.71044C15.0643 0.639111 13.3502 0 11.4869 0C7.07589 0 3.5 3.58178 3.5 8C3.5 12.4182 7.07589 16 11.4869 16C13.3502 16 15.0643 15.3609 16.4231 14.2896C14.5654 12.8247 13.3724 10.5518 13.3724 8Z" fill="#EB001B"/>
<path fill-rule="evenodd" clip-rule="evenodd" d="M29.345 8C29.345 12.4182 25.769 16 21.3581 16C19.4948 16 17.7804 15.3609 16.4219 14.2896C18.2796 12.8247 19.4724 10.5518 19.4724 8C19.4724 5.448 18.2796 3.17533 16.4219 1.71044C17.7804 0.639111 19.4948 0 21.3581 0C25.769 0 29.345 3.58178 29.345 8Z" fill="#F79E1B"/>
</svg>
