<svg width="25" height="24" viewBox="0 0 25 24" fill="none" xmlns="http://www.w3.org/2000/svg">
<path d="M12.0908 2C6.58082 2 2.09082 6.49 2.09082 12C2.09082 17.51 6.58082 22 12.0908 22C17.6008 22 22.0908 17.51 22.0908 12C22.0908 6.49 17.6008 2 12.0908 2ZM8.09082 13C7.53082 13 7.09082 12.55 7.09082 12C7.09082 11.45 7.54082 11 8.09082 11C8.64082 11 9.09082 11.45 9.09082 12C9.09082 12.55 8.65082 13 8.09082 13ZM12.0908 13C11.5308 13 11.0908 12.55 11.0908 12C11.0908 11.45 11.5408 11 12.0908 11C12.6408 11 13.0908 11.45 13.0908 12C13.0908 12.55 12.6508 13 12.0908 13ZM16.0908 13C15.5308 13 15.0908 12.55 15.0908 12C15.0908 11.45 15.5408 11 16.0908 11C16.6408 11 17.0908 11.45 17.0908 12C17.0908 12.55 16.6508 13 16.0908 13Z" fill="#2271B6"/>
</svg>
