<svg width="40" height="40" viewBox="0 0 40 40" fill="none" xmlns="http://www.w3.org/2000/svg">
<path d="M26.982 3.33203H13.0154C6.9487 3.33203 3.33203 6.9487 3.33203 13.0154V26.982C3.33203 33.0487 6.9487 36.6654 13.0154 36.6654H26.982C33.0487 36.6654 36.6654 33.0487 36.6654 26.982V13.0154C36.6654 6.9487 33.0487 3.33203 26.982 3.33203ZM16.6154 24.832L12.8654 28.582C12.6154 28.832 12.2987 28.9487 11.982 28.9487C11.6654 28.9487 11.332 28.832 11.0987 28.582L9.8487 27.332C9.3487 26.8487 9.3487 26.0487 9.8487 25.5654C10.332 25.082 11.1154 25.082 11.6154 25.5654L11.982 25.932L14.8487 23.0654C15.332 22.582 16.1154 22.582 16.6154 23.0654C17.0987 23.5487 17.0987 24.3487 16.6154 24.832ZM16.6154 13.1654L12.8654 16.9154C12.6154 17.1654 12.2987 17.282 11.982 17.282C11.6654 17.282 11.332 17.1654 11.0987 16.9154L9.8487 15.6654C9.3487 15.182 9.3487 14.382 9.8487 13.8987C10.332 13.4154 11.1154 13.4154 11.6154 13.8987L11.982 14.2654L14.8487 11.3987C15.332 10.9154 16.1154 10.9154 16.6154 11.3987C17.0987 11.882 17.0987 12.682 16.6154 13.1654ZM29.2654 27.6987H20.5154C19.832 27.6987 19.2654 27.132 19.2654 26.4487C19.2654 25.7654 19.832 25.1987 20.5154 25.1987H29.2654C29.9654 25.1987 30.5154 25.7654 30.5154 26.4487C30.5154 27.132 29.9654 27.6987 29.2654 27.6987ZM29.2654 16.032H20.5154C19.832 16.032 19.2654 15.4654 19.2654 14.782C19.2654 14.0987 19.832 13.532 20.5154 13.532H29.2654C29.9654 13.532 30.5154 14.0987 30.5154 14.782C30.5154 15.4654 29.9654 16.032 29.2654 16.032Z" fill="#2271B6"/>
</svg>
