<svg width="16" height="16" viewBox="0 0 16 16" fill="none" xmlns="http://www.w3.org/2000/svg">
<path d="M13.0226 3.68732L3.68927 13.0207C3.67594 13.034 3.66927 13.0407 3.65594 13.0473C3.4026 12.834 3.16927 12.6007 2.95594 12.3473C1.9426 11.1807 1.33594 9.66065 1.33594 8.00065C1.33594 4.32065 4.3226 1.33398 8.0026 1.33398C9.6626 1.33398 11.1826 1.94065 12.3493 2.95398C12.6026 3.16732 12.8359 3.40065 13.0493 3.65398C13.0426 3.66732 13.0359 3.67398 13.0226 3.68732Z" fill="#FD0000"/>
<path d="M14.6646 7.99991C14.6646 11.6599 11.658 14.6666 7.99795 14.6666C6.99795 14.6666 6.05129 14.4466 5.19795 14.0466C4.78462 13.8532 4.70462 13.2999 5.02462 12.9732L12.9713 5.02657C13.2913 4.70657 13.8513 4.78657 14.0446 5.19991C14.4446 6.04657 14.6646 6.99991 14.6646 7.99991Z" fill="#FD0000"/>
<path d="M14.5126 1.48594C14.3126 1.28594 13.9859 1.28594 13.7859 1.48594L1.48594 13.7926C1.28594 13.9926 1.28594 14.3193 1.48594 14.5193C1.58594 14.6126 1.7126 14.6659 1.84594 14.6659C1.97927 14.6659 2.10594 14.6126 2.20594 14.5126L14.5126 2.20594C14.7193 2.00594 14.7193 1.68594 14.5126 1.48594Z" fill="#FD0000"/>
</svg>
