<svg width="17" height="18" viewBox="0 0 17 18" fill="none" xmlns="http://www.w3.org/2000/svg">
<path d="M8.50029 13.1734C9.13795 13.1734 9.65487 12.6565 9.65487 12.0188C9.65487 11.3812 9.13795 10.8643 8.50029 10.8643C7.86263 10.8643 7.3457 11.3812 7.3457 12.0188C7.3457 12.6565 7.86263 13.1734 8.50029 13.1734Z" fill="#292D32"/>
<path d="M12.9482 7.63453V6.74911C12.9482 4.83661 12.4878 2.30078 8.49984 2.30078C4.51192 2.30078 4.0515 4.83661 4.0515 6.74911V7.63453C2.06817 7.88245 1.4165 8.88828 1.4165 11.3604V12.6779C1.4165 15.582 2.30192 16.4674 5.20609 16.4674H11.7936C14.6978 16.4674 15.5832 15.582 15.5832 12.6779V11.3604C15.5832 8.88828 14.9315 7.88245 12.9482 7.63453ZM8.49984 14.1583C7.31692 14.1583 6.36067 13.1949 6.36067 12.0191C6.36067 10.8362 7.324 9.87995 8.49984 9.87995C9.67567 9.87995 10.639 10.8433 10.639 12.0191C10.639 13.202 9.68275 14.1583 8.49984 14.1583ZM5.20609 7.57078C5.14942 7.57078 5.09984 7.57078 5.04317 7.57078V6.74911C5.04317 4.6737 5.63109 3.29245 8.49984 3.29245C11.3686 3.29245 11.9565 4.6737 11.9565 6.74911V7.57786C11.8998 7.57786 11.8503 7.57786 11.7936 7.57786H5.20609V7.57078Z" fill="#292D32"/>
</svg>
