<svg width="16" height="16" viewBox="0 0 16 16" fill="none" xmlns="http://www.w3.org/2000/svg">
<path d="M8.0026 1.33398C4.32927 1.33398 1.33594 4.32732 1.33594 8.00065C1.33594 11.674 4.32927 14.6673 8.0026 14.6673C11.6759 14.6673 14.6693 11.674 14.6693 8.00065C14.6693 4.32732 11.6759 1.33398 8.0026 1.33398ZM11.1893 6.46732L7.40927 10.2473C7.31594 10.3407 7.18927 10.394 7.05594 10.394C6.9226 10.394 6.79594 10.3407 6.7026 10.2473L4.81594 8.36065C4.6226 8.16732 4.6226 7.84732 4.81594 7.65398C5.00927 7.46065 5.32927 7.46065 5.5226 7.65398L7.05594 9.18732L10.4826 5.76065C10.6759 5.56732 10.9959 5.56732 11.1893 5.76065C11.3826 5.95398 11.3826 6.26732 11.1893 6.46732Z" fill="#202020"/>
</svg>
