<svg width="16" height="16" viewBox="0 0 16 16" fill="none" xmlns="http://www.w3.org/2000/svg">
<path d="M8.0026 1.33398C4.32927 1.33398 1.33594 4.32732 1.33594 8.00065C1.33594 11.674 4.32927 14.6673 8.0026 14.6673C11.6759 14.6673 14.6693 11.674 14.6693 8.00065C14.6693 4.32732 11.6759 1.33398 8.0026 1.33398ZM10.9026 10.3807C10.8093 10.5407 10.6426 10.6273 10.4693 10.6273C10.3826 10.6273 10.2959 10.6073 10.2159 10.554L8.14927 9.32065C7.63594 9.01398 7.25594 8.34065 7.25594 7.74732V5.01398C7.25594 4.74065 7.4826 4.51398 7.75594 4.51398C8.02927 4.51398 8.25594 4.74065 8.25594 5.01398V7.74732C8.25594 7.98732 8.45594 8.34065 8.6626 8.46065L10.7293 9.69398C10.9693 9.83398 11.0493 10.1407 10.9026 10.3807Z" fill="#B6B000"/>
</svg>
