<svg width="25" height="24" viewBox="0 0 25 24" fill="none" xmlns="http://www.w3.org/2000/svg">
<path d="M17.6209 7.77C17.5509 7.76 17.4809 7.76 17.4109 7.77C15.8609 7.72 14.6309 6.45 14.6309 4.89C14.6309 3.3 15.9209 2 17.5209 2C19.1109 2 20.4109 3.29 20.4109 4.89C20.4009 6.45 19.1709 7.72 17.6209 7.77Z" fill="#2271B6"/>
<path d="M20.8809 14.6999C19.7609 15.4499 18.1909 15.7299 16.7409 15.5399C17.1209 14.7199 17.3209 13.8099 17.3309 12.8499C17.3309 11.8499 17.1109 10.8999 16.6909 10.0699C18.1709 9.86991 19.7409 10.1499 20.8709 10.8999C22.4509 11.9399 22.4509 13.6499 20.8809 14.6999Z" fill="#2271B6"/>
<path d="M6.53073 7.77C6.60073 7.76 6.67073 7.76 6.74073 7.77C8.29073 7.72 9.52073 6.45 9.52073 4.89C9.52073 3.29 8.23073 2 6.63073 2C5.04073 2 3.75073 3.29 3.75073 4.89C3.75073 6.45 4.98073 7.72 6.53073 7.77Z" fill="#2271B6"/>
<path d="M6.64094 12.8501C6.64094 13.8201 6.85094 14.7401 7.23094 15.5701C5.82094 15.7201 4.35094 15.4201 3.27094 14.7101C1.69094 13.6601 1.69094 11.9501 3.27094 10.9001C4.34094 10.1801 5.85094 9.8901 7.27094 10.0501C6.86094 10.8901 6.64094 11.8401 6.64094 12.8501Z" fill="#2271B6"/>
<path d="M12.2109 15.87C12.1309 15.86 12.0409 15.86 11.9509 15.87C10.1109 15.81 8.64087 14.3 8.64087 12.44C8.65087 10.54 10.1809 9 12.0909 9C13.9909 9 15.5309 10.54 15.5309 12.44C15.5209 14.3 14.0609 15.81 12.2109 15.87Z" fill="#2271B6"/>
<path d="M8.96087 17.9399C7.45087 18.9499 7.45087 20.6099 8.96087 21.6099C10.6809 22.7599 13.5009 22.7599 15.2209 21.6099C16.7309 20.5999 16.7309 18.9399 15.2209 17.9399C13.5109 16.7899 10.6909 16.7899 8.96087 17.9399Z" fill="#2271B6"/>
</svg>
