<svg width="15" height="15" viewBox="0 0 15 15" fill="none" xmlns="http://www.w3.org/2000/svg">
<path d="M10.2212 0.416992H4.28534C1.70701 0.416992 0.169922 1.95408 0.169922 4.53241V10.4612C0.169922 13.0466 1.70701 14.5837 4.28534 14.5837H10.2141C12.7924 14.5837 14.3295 13.0466 14.3295 10.4682V4.53241C14.3366 1.95408 12.7995 0.416992 10.2212 0.416992ZM7.25326 11.9274C5.98534 11.9274 4.99367 11.297 4.32076 10.6737V11.1766C4.32076 11.467 4.07992 11.7078 3.78951 11.7078C3.49909 11.7078 3.25826 11.467 3.25826 11.1766V9.22866C3.25826 8.93824 3.49909 8.69741 3.78951 8.69741H5.54617C5.83659 8.69741 6.07742 8.93824 6.07742 9.22866C6.07742 9.51908 5.83659 9.75991 5.54617 9.75991H4.90867C5.43284 10.2841 6.24742 10.8649 7.25326 10.8649C9.10909 10.8649 10.6178 9.35616 10.6178 7.50033C10.6178 7.20991 10.8587 6.96908 11.1491 6.96908C11.4395 6.96908 11.6803 7.20991 11.6803 7.50033C11.6803 9.94408 9.69701 11.9274 7.25326 11.9274ZM11.6803 5.75783C11.6803 5.77908 11.6803 5.80033 11.6803 5.81449C11.6733 5.89241 11.652 5.96324 11.6166 6.02699C11.5812 6.09074 11.5316 6.14741 11.4678 6.19699C11.4183 6.23241 11.3616 6.26074 11.2978 6.28199C11.2483 6.29616 11.1987 6.30324 11.1491 6.30324H9.42784C9.13742 6.30324 8.89659 6.06241 8.89659 5.77199C8.89659 5.48158 9.13742 5.24074 9.42784 5.24074H10.0158C9.44909 4.71658 8.53534 4.13574 7.26742 4.13574C5.41159 4.13574 3.90284 5.64449 3.90284 7.50033C3.90284 7.79074 3.66201 8.03158 3.37159 8.03158C3.08117 8.03158 2.82617 7.79074 2.82617 7.50033C2.82617 5.05658 4.80951 3.07324 7.25326 3.07324C8.77617 3.07324 9.89534 3.73199 10.6178 4.36241V3.82408C10.6178 3.53366 10.8587 3.29283 11.1491 3.29283C11.4395 3.29283 11.6803 3.53366 11.6803 3.82408V5.75783Z" fill="#2271B6"/>
</svg>
