<svg width="20" height="20" viewBox="0 0 20 20" fill="none" xmlns="http://www.w3.org/2000/svg">
<path d="M16.0841 6.59632V10.888C16.0841 13.4547 14.6174 14.5546 12.4174 14.5546H5.09244C4.71744 14.5546 4.35911 14.5214 4.02578 14.4464C3.81744 14.413 3.61745 14.3547 3.43412 14.288C2.18412 13.8214 1.42578 12.738 1.42578 10.888V6.59632C1.42578 4.02966 2.89244 2.92969 5.09244 2.92969H12.4174C14.2841 2.92969 15.6258 3.72135 15.9841 5.52968C16.0424 5.86302 16.0841 6.20466 16.0841 6.59632Z" stroke="white" stroke-miterlimit="10" stroke-linecap="round" stroke-linejoin="round"/>
<path d="M18.5857 9.09789V13.3896C18.5857 15.9562 17.119 17.0562 14.919 17.0562H7.59401C6.97734 17.0562 6.41902 16.9729 5.93568 16.7896C4.94402 16.4229 4.26901 15.6646 4.02734 14.4479C4.36068 14.5229 4.71901 14.5562 5.09401 14.5562H12.419C14.619 14.5562 16.0857 13.4562 16.0857 10.8896V6.59789C16.0857 6.20622 16.0523 5.85625 15.9857 5.53125C17.569 5.86458 18.5857 6.98122 18.5857 9.09789Z" stroke="white" stroke-miterlimit="10" stroke-linecap="round" stroke-linejoin="round"/>
<path d="M8.74884 10.9469C9.96387 10.9469 10.9489 9.96191 10.9489 8.74689C10.9489 7.53186 9.96387 6.54688 8.74884 6.54688C7.53381 6.54688 6.54883 7.53186 6.54883 8.74689C6.54883 9.96191 7.53381 10.9469 8.74884 10.9469Z" stroke="white" stroke-miterlimit="10" stroke-linecap="round" stroke-linejoin="round"/>
<path d="M3.98438 6.91406V10.5807" stroke="white" stroke-miterlimit="10" stroke-linecap="round" stroke-linejoin="round"/>
<path d="M13.5195 6.91406V10.5807" stroke="white" stroke-miterlimit="10" stroke-linecap="round" stroke-linejoin="round"/>
</svg>
