<svg width="40" height="40" viewBox="0 0 40 40" fill="none" xmlns="http://www.w3.org/2000/svg">
<path d="M26.6667 16.25H13.3333C12.1833 16.25 11.25 17.1833 11.25 18.3333V20.0833C11.3 20.0667 11.3333 20.05 11.3833 20.0333C11.5833 19.9333 11.8 19.8667 12.0167 19.8C12.1167 19.7667 12.2167 19.7333 12.3333 19.7C12.6667 19.6333 13 19.5833 13.35 19.5833H26.6833C27.0333 19.5833 27.3667 19.6333 27.7 19.7C27.8 19.7167 27.9 19.7667 28.0167 19.8C28.2333 19.8667 28.45 19.9333 28.65 20.0333C28.7 20.05 28.75 20.0667 28.7833 20.0833V18.3333C28.75 17.1833 27.8167 16.25 26.6667 16.25Z" fill="#2271B6"/>
<path d="M26.6667 22.0835H13.3333C12.1833 22.0835 11.25 23.0168 11.25 24.1668V25.0002H15.8333C16.5167 25.0002 17.0833 25.5668 17.0833 26.2502C17.0833 27.8502 18.4 29.1668 20 29.1668C21.6 29.1668 22.9167 27.8502 22.9167 26.2502C22.9167 25.5668 23.4833 25.0002 24.1667 25.0002H28.75V24.1668C28.75 23.0168 27.8167 22.0835 26.6667 22.0835Z" fill="#2271B6"/>
<path d="M26.6667 10.8335H13.3333C12.1833 10.8335 11.25 11.7668 11.25 12.9168V14.2668C11.8833 13.9502 12.5833 13.7502 13.3333 13.7502H26.6667C27.4167 13.7502 28.1167 13.9502 28.75 14.2668V12.9168C28.75 11.7668 27.8167 10.8335 26.6667 10.8335Z" fill="#2271B6"/>
<path d="M26.983 3.3335H13.0163C6.94967 3.3335 3.33301 6.95016 3.33301 13.0168V26.9668C3.33301 33.0502 6.94967 36.6668 13.0163 36.6668H26.9663C33.033 36.6668 36.6497 33.0502 36.6497 26.9835V13.0168C36.6663 6.95016 33.0497 3.3335 26.983 3.3335ZM31.6663 27.5002H29.9997H25.2663C24.6997 29.8835 22.5497 31.6668 19.9997 31.6668C17.4497 31.6668 15.2997 29.8835 14.733 27.5002H9.99967H8.33301C7.64967 27.5002 7.08301 26.9335 7.08301 26.2502C7.08301 25.5668 7.64967 25.0002 8.33301 25.0002H8.74967V24.1668V23.3335V18.3335V12.9168C8.74967 10.3835 10.7997 8.3335 13.333 8.3335H26.6663C29.1997 8.3335 31.2497 10.3835 31.2497 12.9168V18.3335V23.3335V24.1668V25.0002H31.6663C32.3497 25.0002 32.9163 25.5668 32.9163 26.2502C32.9163 26.9335 32.3497 27.5002 31.6663 27.5002Z" fill="#2271B6"/>
</svg>
