<svg width="16" height="16" viewBox="0 0 16 16" fill="none" xmlns="http://www.w3.org/2000/svg">
<path fill-rule="evenodd" clip-rule="evenodd" d="M6.39961 3.19827C5.55092 3.19827 4.73698 3.53541 4.13687 4.13553C3.53675 4.73564 3.19961 5.54958 3.19961 6.39827C3.19961 7.24696 3.53675 8.0609 4.13687 8.66101C4.73698 9.26113 5.55092 9.59827 6.39961 9.59827C7.2483 9.59827 8.06223 9.26113 8.66235 8.66101C9.26247 8.0609 9.59961 7.24696 9.59961 6.39827C9.59961 5.54958 9.26247 4.73564 8.66235 4.13553C8.06223 3.53541 7.2483 3.19827 6.39961 3.19827ZM1.59961 6.39827C1.59951 5.64283 1.77772 4.89804 2.11975 4.22446C2.46177 3.55089 2.95795 2.96755 3.56793 2.52189C4.1779 2.07623 4.88446 1.78084 5.63013 1.65974C6.37579 1.53863 7.13952 1.59524 7.85918 1.82495C8.57885 2.05466 9.23413 2.45099 9.77174 2.98171C10.3094 3.51242 10.7141 4.16254 10.9531 4.87918C11.1921 5.59581 11.2585 6.35874 11.1471 7.10591C11.0356 7.85308 10.7494 8.56339 10.3116 9.17907L14.1652 13.0327C14.3109 13.1836 14.3916 13.3856 14.3897 13.5954C14.3879 13.8051 14.3038 14.0058 14.1555 14.1541C14.0071 14.3025 13.8065 14.3866 13.5967 14.3884C13.387 14.3902 13.1849 14.3096 13.034 14.1639L9.18121 10.3111C8.4631 10.8217 7.61829 11.1248 6.73935 11.1872C5.86041 11.2495 4.98127 11.0688 4.19825 10.6646C3.41523 10.2605 2.75856 9.64869 2.30019 8.89615C1.84182 8.14361 1.59944 7.27942 1.59961 6.39827Z" fill="white"/>
</svg>
