<svg width="16" height="16" viewBox="0 0 16 16" fill="none" xmlns="http://www.w3.org/2000/svg">
<path d="M10.7581 1.97336L4.73813 3.97336C0.691458 5.3267 0.691458 7.53336 4.73813 8.88003L6.52479 9.47336L7.11812 11.26C8.46479 15.3067 10.6781 15.3067 12.0248 11.26L14.0315 5.2467C14.9248 2.5467 13.4581 1.07336 10.7581 1.97336ZM10.9715 5.56003L8.43812 8.1067C8.33812 8.2067 8.21146 8.25336 8.08479 8.25336C7.95812 8.25336 7.83146 8.2067 7.73146 8.1067C7.53813 7.91336 7.53813 7.59336 7.73146 7.40003L10.2648 4.85336C10.4581 4.66003 10.7781 4.66003 10.9715 4.85336C11.1648 5.0467 11.1648 5.3667 10.9715 5.56003Z" fill="#2271B6"/>
</svg>
