<svg width="25" height="24" viewBox="0 0 25 24" fill="none" xmlns="http://www.w3.org/2000/svg">
<path d="M18.5712 8.50867L10.0112 4.22867C4.26124 1.34867 1.90124 3.70867 4.78124 9.45867L5.65124 11.1987C5.90124 11.7087 5.90124 12.2987 5.65124 12.8087L4.78124 14.5387C1.90124 20.2887 4.25124 22.6487 10.0112 19.7687L18.5712 15.4887C22.4112 13.5687 22.4112 10.4287 18.5712 8.50867ZM15.3412 12.7487H9.94124C9.53124 12.7487 9.19124 12.4087 9.19124 11.9987C9.19124 11.5887 9.53124 11.2487 9.94124 11.2487H15.3412C15.7512 11.2487 16.0912 11.5887 16.0912 11.9987C16.0912 12.4087 15.7512 12.7487 15.3412 12.7487Z" fill="white"/>
</svg>
