<svg width="21" height="20" viewBox="0 0 21 20" fill="none" xmlns="http://www.w3.org/2000/svg">
<path d="M6.31348 0.5H14.6943C16.4147 0.500085 17.7272 1.01135 18.6084 1.89355C19.4345 2.72074 19.9341 3.92613 19.9893 5.49121L19.9941 5.80859V14.1904C19.9941 15.9107 19.4831 17.2239 18.6006 18.1064C17.718 18.9891 16.4042 19.5 14.6836 19.5H6.31348C4.59313 19.4999 3.27995 18.9891 2.39746 18.1055C1.51488 17.2217 1.00391 15.9056 1.00391 14.1797V5.80957C1.00399 4.08922 1.51491 2.77611 2.39746 1.89355C3.28001 1.011 4.59312 0.500085 6.31348 0.5ZM15.6377 6.28613C15.1828 5.83124 14.454 5.80311 13.9648 6.20117L13.8701 6.28613L9.08398 11.0723L7.1377 9.12598C6.65246 8.64087 5.85535 8.64087 5.37012 9.12598C4.91521 9.58088 4.88717 10.3097 5.28516 10.7988L5.37012 10.8936L8.2002 13.7236C8.43289 13.9563 8.74987 14.0898 9.08398 14.0898C9.37629 14.0898 9.65492 13.9871 9.87598 13.8057L9.96777 13.7236L15.6436 8.04785C16.1177 7.5574 16.1262 6.77464 15.6377 6.28613Z" stroke="#C5C5C5"/>
<rect width="14" height="13" transform="translate(3.50391 3)" fill="white"/>
</svg>
