<svg width="13" height="13" viewBox="0 0 13 13" fill="none" xmlns="http://www.w3.org/2000/svg">
<path d="M5.50329 0.486544C5.80797 -0.162187 6.7307 -0.162187 7.03539 0.486543L8.29645 3.17161C8.41641 3.42703 8.65579 3.60586 8.93475 3.64846L11.8214 4.08923C12.5025 4.19323 12.7806 5.02407 12.2992 5.51708L10.1584 7.70995C9.97065 7.90225 9.88541 8.17227 9.9287 8.4375L10.4268 11.4891C10.5406 12.1863 9.80057 12.7078 9.18224 12.3662L6.67859 10.9831C6.4239 10.8424 6.11478 10.8424 5.86008 10.9831L3.35644 12.3662C2.7381 12.7078 1.99811 12.1863 2.11191 11.4891L2.60998 8.4375C2.65327 8.17227 2.56802 7.90225 2.38029 7.70995L0.239443 5.51708C-0.241876 5.02407 0.036167 4.19323 0.717282 4.08923L3.60392 3.64846C3.88288 3.60586 4.12226 3.42703 4.24222 3.17161L5.50329 0.486544Z" fill="#B5BCC1"/>
</svg>
