<svg width="90" height="90" viewBox="0 0 90 90" fill="none" xmlns="http://www.w3.org/2000/svg">
<circle cx="44.9993" cy="44.9993" r="44.9993" fill="#2BC700"/>
<path d="M44.994 59.3931C46.1468 59.3931 47.0812 58.4587 47.0812 57.3059C47.0812 56.1532 46.1468 55.2188 44.994 55.2188H44.9929C43.8402 55.2188 42.9062 56.1532 42.9062 57.3059C42.9062 58.4587 43.8412 59.3931 44.994 59.3931Z" fill="white"/>
<path d="M47.0807 49.9986V34.6575C47.0807 33.5047 46.1462 32.5703 44.9935 32.5703C43.8407 32.5703 42.9062 33.5047 42.9062 34.6575V49.9986C42.9062 51.1513 43.8407 52.0858 44.9935 52.0858C46.1462 52.0858 47.0807 51.1513 47.0807 49.9986Z" fill="white"/>
</svg>
