<svg width="126" height="125" viewBox="0 0 126 125" fill="none" xmlns="http://www.w3.org/2000/svg">
<path d="M118.853 72.8521L118.817 72.8702C114.532 76.1561 112.717 81.7476 114.242 86.9219L114.26 86.9583C116.693 95.1824 110.665 103.479 102.096 103.697H102.06C96.6498 103.842 91.8932 107.291 90.0958 112.393V112.411C87.2272 120.508 77.4603 123.685 70.3981 118.801C66.0128 115.807 60.2157 115.65 55.6019 118.801H55.5839C48.5219 123.667 38.7545 120.508 35.9042 112.393C34.0907 107.278 29.3412 103.842 23.9403 103.697H23.9039C15.3351 103.479 9.3075 95.1822 11.7404 86.9581L11.7584 86.9217C13.2831 81.7474 11.4677 76.1558 7.18347 72.8699L7.14709 72.8519C0.338989 67.6231 0.338989 57.3841 7.14709 52.1556L7.18347 52.1375C11.4677 48.8516 13.2831 43.2598 11.7404 38.0858V38.0494C9.28918 29.8255 15.3348 21.5286 23.9039 21.3108H23.9403C29.3322 21.1656 34.1068 17.7161 35.9042 12.6148V12.5967C38.7543 4.49981 48.5219 1.32281 55.5839 6.2066H55.6019C60.0497 9.27471 65.9318 9.27471 70.3981 6.2066C77.5314 1.28057 87.244 4.5484 90.0958 12.5967V12.6148C91.8932 17.6981 96.6495 21.1658 102.06 21.3108H102.096C110.665 21.5286 116.693 29.8255 114.26 38.0494L114.242 38.0858C112.717 43.2598 114.532 48.8516 118.817 52.1375L118.853 52.1556C125.661 57.3841 125.661 67.6233 118.853 72.8521Z" fill="#2271B6"/>
<path d="M63.0002 96.3169C81.6772 96.3169 96.8179 81.1762 96.8179 62.4993C96.8179 43.8223 81.6772 28.6816 63.0002 28.6816C44.3233 28.6816 29.1826 43.8223 29.1826 62.4993C29.1826 81.1762 44.3233 96.3169 63.0002 96.3169Z" fill="#C7A930"/>
<path opacity="0.1" d="M88.9656 40.8516C83.1162 36.0395 75.6326 33.1472 67.4744 33.1472C48.7976 33.1472 33.6487 48.2961 33.6487 66.9729C33.6487 75.1311 36.541 82.6147 41.3528 88.4641C33.9209 82.2646 29.187 72.9392 29.187 62.4983C29.187 43.8213 44.323 28.6855 62.9998 28.6855C73.4407 28.6855 82.7661 33.4194 88.9656 40.8516Z" fill="black"/>
<path d="M54.9548 75.7387L47.4765 67.7827C45.518 65.6987 45.6191 62.4221 47.7023 60.4636C49.7856 58.5027 53.0637 58.6079 55.0205 60.6904L58.5903 64.4868L73.7643 47.1435C75.6452 44.9912 78.9167 44.7729 81.0707 46.6565C83.2231 48.54 83.4404 51.8105 81.5578 53.9629L62.6235 75.6023C60.6064 77.9052 57.0466 77.9656 54.9548 75.7387Z" fill="white"/>
</svg>
