<svg width="40" height="40" viewBox="0 0 40 40" fill="none" xmlns="http://www.w3.org/2000/svg">
<path d="M12.918 5.83594V3.33594C12.918 2.6526 12.3513 2.08594 11.668 2.08594C10.9846 2.08594 10.418 2.6526 10.418 3.33594V5.93594C10.8346 5.88594 11.218 5.83594 11.668 5.83594H12.918Z" fill="#2271B6"/>
<path d="M26.25 5.93594V3.33594C26.25 2.6526 25.6833 2.08594 25 2.08594C24.3167 2.08594 23.75 2.6526 23.75 3.33594V5.83594H25C25.45 5.83594 25.8333 5.88594 26.25 5.93594Z" fill="#2271B6"/>
<path d="M35.482 24.9526C34.1987 23.9359 32.582 23.3359 30.832 23.3359C29.082 23.3359 27.432 23.9526 26.1487 24.9859C24.4154 26.3526 23.332 28.4859 23.332 30.8359C23.332 32.2359 23.732 33.5859 24.4154 34.6859C24.9487 35.5526 25.632 36.3193 26.4487 36.9026C27.682 37.8026 29.182 38.3359 30.832 38.3359C32.732 38.3359 34.4487 37.6359 35.7654 36.4693C36.3487 35.9859 36.8487 35.3859 37.2487 34.7026C37.932 33.5859 38.332 32.2359 38.332 30.8359C38.332 28.4526 37.2154 26.3193 35.482 24.9526ZM30.832 34.4026C30.832 32.4359 29.232 30.8359 27.2654 30.8359C29.232 30.8359 30.832 29.2359 30.832 27.2693C30.832 29.2359 32.432 30.8359 34.3987 30.8359C32.432 30.8359 30.832 32.4359 30.832 34.4026Z" fill="#2271B6"/>
<path d="M26.2487 5.93594V8.33594C26.2487 9.01927 25.682 9.58594 24.9987 9.58594C24.3154 9.58594 23.7487 9.01927 23.7487 8.33594V5.83594H12.9154V8.33594C12.9154 9.01927 12.3487 9.58594 11.6654 9.58594C10.982 9.58594 10.4154 9.01927 10.4154 8.33594V5.93594C5.4987 6.38594 3.33203 9.5526 3.33203 14.1693V28.3359C3.33203 33.3359 5.83203 36.6693 11.6654 36.6693H18.5487C19.8154 36.6693 20.6654 35.2526 20.3487 34.0193C20.1154 33.1193 19.9987 32.1859 19.9987 31.2526C19.9987 27.7859 21.5487 24.5859 24.232 22.4693C26.182 20.8859 28.682 20.0026 31.2487 20.0026H31.3154C32.3654 20.0026 33.332 19.2359 33.332 18.1859V14.1693C33.332 9.5526 31.1654 6.38594 26.2487 5.93594ZM14.9987 27.9193H11.6654C10.982 27.9193 10.4154 27.3526 10.4154 26.6693C10.4154 25.9859 10.982 25.4193 11.6654 25.4193H14.9987C15.682 25.4193 16.2487 25.9859 16.2487 26.6693C16.2487 27.3526 15.682 27.9193 14.9987 27.9193ZM19.9987 19.5859H11.6654C10.982 19.5859 10.4154 19.0193 10.4154 18.3359C10.4154 17.6526 10.982 17.0859 11.6654 17.0859H19.9987C20.682 17.0859 21.2487 17.6526 21.2487 18.3359C21.2487 19.0193 20.682 19.5859 19.9987 19.5859Z" fill="#2271B6"/>
</svg>
