<svg width="17" height="17" viewBox="0 0 17 17" fill="none" xmlns="http://www.w3.org/2000/svg">
<path d="M14.9252 3.70198C13.7847 3.58865 12.6443 3.50365 11.4968 3.4399V3.43281L11.341 2.51198C11.2347 1.86031 11.0789 0.882812 9.42141 0.882812H7.56558C5.91516 0.882812 5.75933 1.81781 5.646 2.5049L5.49725 3.41156C4.8385 3.45406 4.17975 3.49656 3.521 3.56031L2.076 3.70198C1.7785 3.73031 1.566 3.9924 1.59433 4.28281C1.62266 4.57323 1.87766 4.78573 2.17516 4.7574L3.62016 4.61573C7.33183 4.2474 11.0718 4.38906 14.826 4.76448C14.8472 4.76448 14.8614 4.76448 14.8827 4.76448C15.1518 4.76448 15.3856 4.55906 15.4139 4.28281C15.4352 3.9924 15.2227 3.73031 14.9252 3.70198Z" fill="#FD0000"/>
<path d="M13.6215 5.76844C13.4515 5.59135 13.2177 5.49219 12.9769 5.49219H4.02356C3.78273 5.49219 3.5419 5.59135 3.37898 5.76844C3.21606 5.94552 3.12398 6.18635 3.13815 6.43427L3.57731 13.7018C3.65523 14.7784 3.7544 16.1243 6.22648 16.1243H10.774C13.2461 16.1243 13.3452 14.7855 13.4231 13.7018L13.8623 6.44135C13.8765 6.18635 13.7844 5.94552 13.6215 5.76844ZM9.67606 12.5755H7.31731C7.0269 12.5755 6.78606 12.3347 6.78606 12.0443C6.78606 11.7539 7.0269 11.513 7.31731 11.513H9.67606C9.96648 11.513 10.2073 11.7539 10.2073 12.0443C10.2073 12.3347 9.96648 12.5755 9.67606 12.5755ZM10.2711 9.74219H6.7294C6.43898 9.74219 6.19815 9.50135 6.19815 9.21094C6.19815 8.92052 6.43898 8.67969 6.7294 8.67969H10.2711C10.5615 8.67969 10.8023 8.92052 10.8023 9.21094C10.8023 9.50135 10.5615 9.74219 10.2711 9.74219Z" fill="#FD0000"/>
</svg>
