<svg width="40" height="40" viewBox="0 0 40 40" fill="none" xmlns="http://www.w3.org/2000/svg">
<path d="M34.166 16.9859H29.3493C25.3993 16.9859 22.1827 13.7693 22.1827 9.81927V5.0026C22.1827 4.08594 21.4327 3.33594 20.516 3.33594H13.4493C8.31602 3.33594 4.16602 6.66927 4.16602 12.6193V27.3859C4.16602 33.3359 8.31602 36.6693 13.4493 36.6693H26.5493C31.6827 36.6693 35.8327 33.3359 35.8327 27.3859V18.6526C35.8327 17.7359 35.0827 16.9859 34.166 16.9859ZM19.216 22.5526C18.966 22.8026 18.6493 22.9193 18.3327 22.9193C18.016 22.9193 17.6993 22.8026 17.4493 22.5526L16.2493 21.3526V28.3359C16.2493 29.0193 15.6827 29.5859 14.9993 29.5859C14.316 29.5859 13.7493 29.0193 13.7493 28.3359V21.3526L12.5493 22.5526C12.066 23.0359 11.266 23.0359 10.7827 22.5526C10.2993 22.0693 10.2993 21.2693 10.7827 20.7859L14.116 17.4526C14.2327 17.3526 14.3493 17.2693 14.4827 17.2026C14.516 17.1859 14.566 17.1693 14.5993 17.1526C14.6993 17.1193 14.7993 17.1026 14.916 17.0859C14.966 17.0859 14.9993 17.0859 15.0493 17.0859C15.1827 17.0859 15.316 17.1193 15.4493 17.1693C15.466 17.1693 15.466 17.1693 15.4827 17.1693C15.616 17.2193 15.7493 17.3193 15.8493 17.4193C15.866 17.4359 15.8827 17.4359 15.8827 17.4526L19.216 20.7859C19.6993 21.2693 19.6993 22.0693 19.216 22.5526Z" fill="#2271B6"/>
<path d="M29.0501 14.6841C30.6335 14.7008 32.8335 14.7008 34.7168 14.7008C35.6668 14.7008 36.1668 13.5841 35.5001 12.9175C33.1001 10.5008 28.8001 6.1508 26.3335 3.68414C25.6501 3.0008 24.4668 3.46747 24.4668 4.41747V10.2341C24.4668 12.6675 26.5335 14.6841 29.0501 14.6841Z" fill="#2271B6"/>
</svg>
