<svg width="40" height="40" viewBox="0 0 40 40" fill="none" xmlns="http://www.w3.org/2000/svg">
<path d="M13.8164 10.4859C13.1164 10.4859 12.5664 9.91927 12.5664 9.23594V4.58594C12.5664 3.9026 13.1164 3.33594 13.8164 3.33594C14.5164 3.33594 15.0664 3.9026 15.0664 4.58594V9.21927C15.0664 9.91927 14.5164 10.4859 13.8164 10.4859Z" fill="#2271B6"/>
<path d="M26.1836 10.4859C25.4836 10.4859 24.9336 9.91927 24.9336 9.23594V4.58594C24.9336 3.88594 25.5003 3.33594 26.1836 3.33594C26.8836 3.33594 27.4336 3.9026 27.4336 4.58594V9.21927C27.4336 9.91927 26.8836 10.4859 26.1836 10.4859Z" fill="#2271B6"/>
<path d="M35.8334 26.3635C35.8334 26.6135 35.7501 26.8635 35.5334 27.0802C33.1167 29.5135 28.8167 33.8469 26.3501 36.3302C26.1334 36.5635 25.8501 36.6635 25.5667 36.6635C25.0167 36.6635 24.4834 36.2302 24.4834 35.5969V29.7635C24.4834 27.3302 26.5501 25.3135 29.0834 25.3135C30.6667 25.2969 32.8667 25.2969 34.7501 25.2969C35.4001 25.2969 35.8334 25.8135 35.8334 26.3635Z" fill="#2271B6"/>
<path d="M35.8334 26.3635C35.8334 26.6135 35.7501 26.8635 35.5334 27.0802C33.1167 29.5135 28.8167 33.8469 26.3501 36.3302C26.1334 36.5635 25.8501 36.6635 25.5667 36.6635C25.0167 36.6635 24.4834 36.2302 24.4834 35.5969V29.7635C24.4834 27.3302 26.5501 25.3135 29.0834 25.3135C30.6667 25.2969 32.8667 25.2969 34.7501 25.2969C35.4001 25.2969 35.8334 25.8135 35.8334 26.3635Z" fill="#2271B6"/>
<path d="M32.617 7.5026C31.517 6.68594 29.9337 7.46927 29.9337 8.8526V9.01927C29.9337 10.9693 28.5337 12.7693 26.5837 12.9693C24.3337 13.2026 22.4337 11.4359 22.4337 9.23594V7.5026C22.4337 6.58594 21.6837 5.83594 20.767 5.83594H19.2337C18.317 5.83594 17.567 6.58594 17.567 7.5026V9.01927C17.567 10.4859 16.7837 11.8526 15.567 12.5193C15.5003 12.5693 15.4337 12.6026 15.367 12.6359C15.3503 12.6359 15.3503 12.6526 15.3337 12.6526C15.217 12.7026 15.1003 12.7526 14.967 12.8026C14.9337 12.8193 14.9003 12.8193 14.867 12.8359C14.667 12.9026 14.4503 12.9526 14.217 12.9693H14.2003C13.9503 13.0026 13.6837 13.0026 13.4337 12.9693H13.417C13.1837 12.9526 12.967 12.9026 12.767 12.8359C12.6003 12.7859 12.4337 12.7193 12.267 12.6359C10.967 12.0526 10.067 10.7526 10.067 9.23594V8.8526C10.067 7.56927 8.70033 6.8026 7.61699 7.3526C7.60033 7.36927 7.58366 7.36927 7.56699 7.38594H7.55033C7.43366 7.46927 7.33366 7.5526 7.21699 7.63594C7.03366 7.78594 6.85033 7.93594 6.68366 8.1026C6.56699 8.21927 6.45033 8.33594 6.35033 8.4526C6.21699 8.58594 6.10033 8.71927 5.98366 8.86927C5.90033 8.96927 5.80033 9.06927 5.73366 9.18594C5.65033 9.28594 5.58366 9.4026 5.51699 9.5026C5.50033 9.51927 5.48366 9.53594 5.46699 9.56927C5.31699 9.78594 5.18366 10.0359 5.06699 10.2693C5.03366 10.3026 5.01699 10.3193 5.01699 10.3526C4.91699 10.5526 4.81699 10.7526 4.75033 10.9693C4.70033 11.0526 4.68366 11.1193 4.65033 11.2026C4.61699 11.2693 4.60033 11.3526 4.56699 11.4193C4.51699 11.5859 4.46699 11.7693 4.41699 11.9526C4.35033 12.1859 4.30033 12.4359 4.26699 12.6859C4.23366 12.8693 4.21699 13.0526 4.20033 13.2526C4.18366 13.4859 4.16699 13.7193 4.16699 13.9526V28.5526C4.16699 33.0359 7.80033 36.6693 12.2837 36.6693H20.317C21.2337 36.6693 21.9837 35.9193 21.9837 35.0026V29.7693C21.9837 25.9359 25.167 22.8193 29.0837 22.8193C29.967 22.8026 32.117 22.8026 34.167 22.8026C35.0837 22.8026 35.8337 22.0526 35.8337 21.1359V13.9526C35.8337 11.3026 34.567 8.98594 32.617 7.5026ZM18.5503 26.5193C18.4003 27.0193 17.9337 27.3693 17.3837 27.3693H11.317C11.2337 27.3693 11.167 27.3693 11.1003 27.3359C10.5003 27.2526 10.067 26.7359 10.067 26.1193C10.067 25.4193 10.617 24.8526 11.317 24.8526H17.3837C18.067 24.8526 18.6337 25.4193 18.6337 26.1193C18.6337 26.2526 18.617 26.4026 18.5503 26.5193ZM23.1837 20.3359C23.0337 20.8359 22.567 21.1859 22.017 21.1859H11.317C11.2337 21.1859 11.167 21.1859 11.1003 21.1526C10.5003 21.0693 10.067 20.5526 10.067 19.9359C10.067 19.2359 10.617 18.6693 11.317 18.6693H22.017C22.717 18.6693 23.267 19.2359 23.267 19.9359C23.267 20.0693 23.2503 20.2193 23.1837 20.3359Z" fill="#2271B6"/>
</svg>
