<svg width="25" height="24" viewBox="0 0 25 24" fill="none" xmlns="http://www.w3.org/2000/svg">
<path d="M22.0608 2.33C21.3408 1.51 20.2708 1 19.0908 1C17.9708 1 16.9508 1.46 16.2208 2.21C15.8008 2.64 15.4808 3.16 15.2908 3.74C15.1608 4.14 15.0908 4.56 15.0908 5C15.0908 5.75 15.3008 6.46 15.6708 7.06C15.8708 7.4 16.1308 7.71 16.4308 7.97C17.1308 8.61 18.0608 9 19.0908 9C19.5308 9 19.9508 8.93 20.3408 8.79C21.2608 8.5 22.0308 7.87 22.5108 7.06C22.7208 6.72 22.8808 6.33 22.9708 5.93C23.0508 5.63 23.0908 5.32 23.0908 5C23.0908 3.98 22.7008 3.04 22.0608 2.33ZM20.5808 5.73H19.8408V6.51C19.8408 6.92 19.5008 7.26 19.0908 7.26C18.6808 7.26 18.3408 6.92 18.3408 6.51V5.73H17.6008C17.1908 5.73 16.8508 5.39 16.8508 4.98C16.8508 4.57 17.1908 4.23 17.6008 4.23H18.3408V3.52C18.3408 3.11 18.6808 2.77 19.0908 2.77C19.5008 2.77 19.8408 3.11 19.8408 3.52V4.23H20.5808C20.9908 4.23 21.3308 4.57 21.3308 4.98C21.3308 5.39 21.0008 5.73 20.5808 5.73Z" fill="#2271B6"/>
<path d="M22.0908 12C22.0908 10.69 21.8408 9.43 21.3708 8.28C21.0608 8.5 20.7108 8.67 20.3408 8.79C20.2308 8.83 20.1208 8.86 20.0008 8.89C20.3808 9.85 20.5908 10.9 20.5908 12C20.5908 14.32 19.6508 16.43 18.1308 17.97C17.8408 17.6 17.4708 17.26 17.0308 16.97C14.3208 15.15 9.88082 15.15 7.15082 16.97C6.71082 17.26 6.35082 17.6 6.05082 17.97C4.53082 16.43 3.59082 14.32 3.59082 12C3.59082 7.31 7.40082 3.5 12.0908 3.5C13.1808 3.5 14.2308 3.71 15.1908 4.09C15.2208 3.97 15.2508 3.86 15.2908 3.74C15.4108 3.37 15.5808 3.03 15.8108 2.72C14.6608 2.25 13.4008 2 12.0908 2C6.58082 2 2.09082 6.49 2.09082 12C2.09082 14.9 3.34082 17.51 5.32082 19.34C5.32082 19.35 5.32082 19.35 5.31082 19.36C5.41082 19.46 5.53082 19.54 5.63082 19.63C5.69082 19.68 5.74082 19.73 5.80082 19.77C5.98082 19.92 6.18082 20.06 6.37082 20.2C6.44082 20.25 6.50082 20.29 6.57082 20.34C6.76082 20.47 6.96082 20.59 7.17082 20.7C7.24082 20.74 7.32082 20.79 7.39082 20.83C7.59082 20.94 7.80082 21.04 8.02082 21.13C8.10082 21.17 8.18082 21.21 8.26082 21.24C8.48082 21.33 8.70082 21.41 8.92082 21.48C9.00082 21.51 9.08082 21.54 9.16082 21.56C9.40082 21.63 9.64082 21.69 9.88082 21.75C9.95082 21.77 10.0208 21.79 10.1008 21.8C10.3808 21.86 10.6608 21.9 10.9508 21.93C10.9908 21.93 11.0308 21.94 11.0708 21.95C11.4108 21.98 11.7508 22 12.0908 22C12.4308 22 12.7708 21.98 13.1008 21.95C13.1408 21.95 13.1808 21.94 13.2208 21.93C13.5108 21.9 13.7908 21.86 14.0708 21.8C14.1408 21.79 14.2108 21.76 14.2908 21.75C14.5308 21.69 14.7808 21.64 15.0108 21.56C15.0908 21.53 15.1708 21.5 15.2508 21.48C15.4708 21.4 15.7008 21.33 15.9108 21.24C15.9908 21.21 16.0708 21.17 16.1508 21.13C16.3608 21.04 16.5708 20.94 16.7808 20.83C16.8608 20.79 16.9308 20.74 17.0008 20.7C17.2008 20.58 17.4008 20.47 17.6008 20.34C17.6708 20.3 17.7308 20.25 17.8008 20.2C18.0008 20.06 18.1908 19.92 18.3708 19.77C18.4308 19.72 18.4808 19.67 18.5408 19.63C18.6508 19.54 18.7608 19.45 18.8608 19.36C18.8608 19.35 18.8608 19.35 18.8508 19.34C20.8408 17.51 22.0908 14.9 22.0908 12Z" fill="#2271B6"/>
<path d="M12.0908 6.92993C10.0208 6.92993 8.34082 8.60993 8.34082 10.6799C8.34082 12.7099 9.93082 14.3599 12.0408 14.4199C12.0708 14.4199 12.1108 14.4199 12.1308 14.4199C12.1508 14.4199 12.1808 14.4199 12.2008 14.4199C12.2108 14.4199 12.2208 14.4199 12.2208 14.4199C14.2408 14.3499 15.8308 12.7099 15.8408 10.6799C15.8408 8.60993 14.1608 6.92993 12.0908 6.92993Z" fill="#2271B6"/>
</svg>
