<svg width="40" height="40" viewBox="0 0 40 40" fill="none" xmlns="http://www.w3.org/2000/svg">
<path d="M36.6167 3.88073C35.4167 2.51406 33.6333 1.66406 31.6667 1.66406C29.8 1.66406 28.1 2.43073 26.8833 3.68073C26.1833 4.3974 25.65 5.26406 25.3333 6.23073C25.1167 6.8974 25 7.5974 25 8.33073C25 9.58073 25.35 10.7641 25.9667 11.7641C26.3 12.3307 26.7333 12.8474 27.2333 13.2807C28.4 14.3474 29.95 14.9974 31.6667 14.9974C32.4 14.9974 33.1 14.8807 33.75 14.6474C35.2833 14.1641 36.5667 13.1141 37.3667 11.7641C37.7167 11.1974 37.9833 10.5474 38.1333 9.88073C38.2667 9.38073 38.3333 8.86406 38.3333 8.33073C38.3333 6.63073 37.6833 5.06406 36.6167 3.88073ZM34.15 9.5474H32.9167V10.8474C32.9167 11.5307 32.35 12.0974 31.6667 12.0974C30.9833 12.0974 30.4167 11.5307 30.4167 10.8474V9.5474H29.1833C28.5 9.5474 27.9333 8.98073 27.9333 8.2974C27.9333 7.61406 28.5 7.0474 29.1833 7.0474H30.4167V5.86406C30.4167 5.18073 30.9833 4.61406 31.6667 4.61406C32.35 4.61406 32.9167 5.18073 32.9167 5.86406V7.0474H34.15C34.8333 7.0474 35.4 7.61406 35.4 8.2974C35.4 8.98073 34.85 9.5474 34.15 9.5474Z" fill="#2271B6"/>
<path d="M36.6663 20.0026C36.6663 17.8193 36.2497 15.7193 35.4663 13.8026C34.9497 14.1693 34.3663 14.4526 33.7497 14.6526C33.5663 14.7193 33.383 14.7693 33.183 14.8193C33.8163 16.4193 34.1663 18.1693 34.1663 20.0026C34.1663 23.8693 32.5997 27.3859 30.0663 29.9526C29.583 29.3359 28.9663 28.7693 28.233 28.2859C23.7163 25.2526 16.3163 25.2526 11.7663 28.2859C11.033 28.7693 10.433 29.3359 9.93301 29.9526C7.39967 27.3859 5.83301 23.8693 5.83301 20.0026C5.83301 12.1859 12.183 5.83594 19.9997 5.83594C21.8163 5.83594 23.5663 6.18594 25.1663 6.81927C25.2163 6.61927 25.2663 6.43594 25.333 6.23594C25.533 5.61927 25.8163 5.0526 26.1997 4.53594C24.283 3.7526 22.183 3.33594 19.9997 3.33594C10.8163 3.33594 3.33301 10.8193 3.33301 20.0026C3.33301 24.8359 5.41634 29.1859 8.71634 32.2359C8.71634 32.2526 8.71634 32.2526 8.69967 32.2693C8.86634 32.4359 9.06634 32.5693 9.23301 32.7193C9.33301 32.8026 9.41634 32.8859 9.51634 32.9526C9.81634 33.2026 10.1497 33.4359 10.4663 33.6693C10.583 33.7526 10.683 33.8193 10.7997 33.9026C11.1163 34.1193 11.4497 34.3193 11.7997 34.5026C11.9163 34.5693 12.0497 34.6526 12.1663 34.7193C12.4997 34.9026 12.8497 35.0693 13.2163 35.2193C13.3497 35.2859 13.483 35.3526 13.6163 35.4026C13.983 35.5526 14.3497 35.6859 14.7163 35.8026C14.8497 35.8526 14.983 35.9026 15.1163 35.9359C15.5163 36.0526 15.9163 36.1526 16.3163 36.2526C16.433 36.2859 16.5497 36.3193 16.683 36.3359C17.1497 36.4359 17.6163 36.5026 18.0997 36.5526C18.1663 36.5526 18.233 36.5693 18.2997 36.5859C18.8663 36.6359 19.433 36.6693 19.9997 36.6693C20.5663 36.6693 21.133 36.6359 21.683 36.5859C21.7497 36.5859 21.8163 36.5693 21.883 36.5526C22.3663 36.5026 22.833 36.4359 23.2997 36.3359C23.4163 36.3193 23.533 36.2693 23.6663 36.2526C24.0663 36.1526 24.483 36.0693 24.8663 35.9359C24.9997 35.8859 25.133 35.8359 25.2663 35.8026C25.633 35.6693 26.0163 35.5526 26.3663 35.4026C26.4997 35.3526 26.633 35.2859 26.7663 35.2193C27.1163 35.0693 27.4663 34.9026 27.8163 34.7193C27.9497 34.6526 28.0663 34.5693 28.183 34.5026C28.5163 34.3026 28.8497 34.1193 29.183 33.9026C29.2997 33.8359 29.3997 33.7526 29.5163 33.6693C29.8497 33.4359 30.1663 33.2026 30.4663 32.9526C30.5663 32.8693 30.6497 32.7859 30.7497 32.7193C30.933 32.5693 31.1163 32.4193 31.283 32.2693C31.283 32.2526 31.283 32.2526 31.2663 32.2359C34.583 29.1859 36.6663 24.8359 36.6663 20.0026Z" fill="#2271B6"/>
<path d="M20 11.5469C16.55 11.5469 13.75 14.3469 13.75 17.7969C13.75 21.1802 16.4 23.9302 19.9167 24.0302C19.9667 24.0302 20.0333 24.0302 20.0667 24.0302C20.1 24.0302 20.15 24.0302 20.1833 24.0302C20.2 24.0302 20.2167 24.0302 20.2167 24.0302C23.5833 23.9135 26.2333 21.1802 26.25 17.7969C26.25 14.3469 23.45 11.5469 20 11.5469Z" fill="#2271B6"/>
</svg>
