<svg width="25" height="25" viewBox="0 0 25 25" fill="none" xmlns="http://www.w3.org/2000/svg">
<path d="M21.9629 9.64969C19.6529 6.01969 16.2729 3.92969 12.7129 3.92969C10.9329 3.92969 9.20289 4.44969 7.62289 5.41969C6.04289 6.39969 4.62289 7.82969 3.46289 9.64969C2.46289 11.2197 2.46289 13.7697 3.46289 15.3397C5.77289 18.9797 9.15289 21.0597 12.7129 21.0597C14.4929 21.0597 16.2229 20.5397 17.8029 19.5697C19.3829 18.5897 20.8029 17.1597 21.9629 15.3397C22.9629 13.7797 22.9629 11.2197 21.9629 9.64969ZM12.7129 16.5397C10.4729 16.5397 8.67289 14.7297 8.67289 12.4997C8.67289 10.2697 10.4729 8.45969 12.7129 8.45969C14.9529 8.45969 16.7529 10.2697 16.7529 12.4997C16.7529 14.7297 14.9529 16.5397 12.7129 16.5397Z" fill="#2271B6"/>
<path d="M12.7133 9.64062C11.1433 9.64062 9.86328 10.9206 9.86328 12.5006C9.86328 14.0706 11.1433 15.3506 12.7133 15.3506C14.2833 15.3506 15.5733 14.0706 15.5733 12.5006C15.5733 10.9306 14.2833 9.64062 12.7133 9.64062Z" fill="#2271B6"/>
</svg>
