<svg width="25" height="26" viewBox="0 0 25 26" fill="none" xmlns="http://www.w3.org/2000/svg">
<circle cx="12.5" cy="13.141" r="12.5" fill="#F3F4F6"/>
<path d="M12.5 14.7037C13.5356 14.7037 14.375 13.8642 14.375 12.8287C14.375 11.7931 13.5356 10.9536 12.5 10.9536C11.4644 10.9536 10.6249 11.7931 10.6249 12.8287C10.6249 13.8642 11.4644 14.7037 12.5 14.7037Z" fill="#86879D"/>
<path d="M19.5033 12.6693C18.952 11.2431 17.9948 10.0098 16.7502 9.1217C15.5055 8.23361 14.0279 7.7297 12.5 7.67224C10.9721 7.7297 9.49447 8.23361 8.24982 9.1217C7.00516 10.0098 6.04802 11.2431 5.49668 12.6693C5.45944 12.7722 5.45944 12.885 5.49668 12.988C6.04802 14.4142 7.00516 15.6475 8.24982 16.5356C9.49447 17.4237 10.9721 17.9276 12.5 17.985C14.0279 17.9276 15.5055 17.4237 16.7502 16.5356C17.9948 15.6475 18.952 14.4142 19.5033 12.988C19.5406 12.885 19.5406 12.7722 19.5033 12.6693ZM12.5 15.8756C11.8974 15.8756 11.3083 15.6969 10.8072 15.3621C10.3061 15.0273 9.91559 14.5514 9.68497 13.9947C9.45436 13.4379 9.39402 12.8253 9.51159 12.2342C9.62915 11.6432 9.91935 11.1002 10.3455 10.6741C10.7716 10.248 11.3145 9.95779 11.9056 9.84022C12.4966 9.72265 13.1093 9.78299 13.666 10.0136C14.2228 10.2442 14.6987 10.6348 15.0335 11.1358C15.3683 11.6369 15.547 12.226 15.547 12.8286C15.5457 13.6364 15.2243 14.4106 14.6532 14.9818C14.082 15.5529 13.3077 15.8744 12.5 15.8756Z" fill="#86879D"/>
</svg>
